  0
SECTION
  2
HEADER
  9
$ACADVER
  1
AC1009
  9
$DWGCODEPAGE
  3
ansi_1252
  9
$INSBASE
 10
0.0
 20
0.0
 30
0.0
  9
$EXTMIN
 10
-212.6313972081
 20
-185.0
 30
0.0
  9
$EXTMAX
 10
212.6313972081
 20
220.0
 30
0.0
  9
$LIMMIN
 10
0.0
 20
0.0
  9
$LIMMAX
 10
420.0
 20
297.0
  9
$ORTHOMODE
 70
     0
  9
$REGENMODE
 70
     1
  9
$FILLMODE
 70
     1
  9
$QTEXTMODE
 70
     0
  9
$MIRRTEXT
 70
     1
  9
$DRAGMODE
 70
     2
  9
$LTSCALE
 40
1.0
  9
$OSMODE
 70
    37
  9
$ATTMODE
 70
     1
  9
$TEXTSIZE
 40
3.5
  9
$TRACEWID
 40
1.0
  9
$TEXTSTYLE
  7
STANDARD
  9
$CLAYER
  8
0
  9
$CELTYPE
  6
BYLAYER
  9
$CECOLOR
 62
   256
  9
$DIMSCALE
 40
1.0
  9
$DIMASZ
 40
3.302
  9
$DIMEXO
 40
1.0
  9
$DIMDLI
 40
3.75
  9
$DIMRND
 40
0.0
  9
$DIMDLE
 40
0.0
  9
$DIMEXE
 40
1.0
  9
$DIMTP
 40
0.0
  9
$DIMTM
 40
0.0
  9
$DIMTXT
 40
3.5
  9
$DIMCEN
 40
2.5
  9
$DIMTSZ
 40
0.0
  9
$DIMTOL
 70
     0
  9
$DIMLIM
 70
     0
  9
$DIMTIH
 70
     1
  9
$DIMTOH
 70
     1
  9
$DIMSE1
 70
     0
  9
$DIMSE2
 70
     0
  9
$DIMTAD
 70
     1
  9
$DIMZIN
 70
     0
  9
$DIMBLK
  1

  9
$DIMASO
 70
     1
  9
$DIMSHO
 70
     1
  9
$DIMPOST
  1

  9
$DIMAPOST
  1

  9
$DIMALT
 70
     0
  9
$DIMALTD
 70
     3
  9
$DIMALTF
 40
0.0393700787
  9
$DIMLFAC
 40
1.0
  9
$DIMTOFL
 70
     1
  9
$DIMTVP
 40
0.0
  9
$DIMTIX
 70
     0
  9
$DIMSOXD
 70
     0
  9
$DIMSAH
 70
     0
  9
$DIMBLK1
  1

  9
$DIMBLK2
  1

  9
$DIMSTYLE
  2
ISO-25
  9
$DIMCLRD
 70
     0
  9
$DIMCLRE
 70
     0
  9
$DIMCLRT
 70
     0
  9
$DIMTFAC
 40
1.0
  9
$DIMGAP
 40
1.524
  9
$LUNITS
 70
     2
  9
$LUPREC
 70
     4
  9
$SKETCHINC
 40
1.0
  9
$FILLETRAD
 40
10.0
  9
$AUNITS
 70
     0
  9
$AUPREC
 70
     2
  9
$MENU
  1
.
  9
$ELEVATION
 40
0.0
  9
$PELEVATION
 40
0.0
  9
$THICKNESS
 40
0.0
  9
$LIMCHECK
 70
     0
  9
$CHAMFERA
 40
0.0
  9
$CHAMFERB
 40
0.0
  9
$SKPOLY
 70
     0
  9
$TDCREATE
 40
2457632.498956389
  9
$TDUPDATE
 40
2457632.499006852
  9
$TDINDWG
 40
0.0000000116
  9
$TDUSRTIMER
 40
0.0000000116
  9
$USRTIMER
 70
     1
  9
$ANGBASE
 50
0.0
  9
$ANGDIR
 70
     0
  9
$PDMODE
 70
     0
  9
$PDSIZE
 40
-1.0
  9
$PLINEWID
 40
0.0
  9
$COORDS
 70
     1
  9
$SPLFRAME
 70
     0
  9
$SPLINETYPE
 70
     6
  9
$SPLINESEGS
 70
     8
  9
$ATTDIA
 70
     0
  9
$ATTREQ
 70
     1
  9
$HANDLING
 70
     1
  9
$HANDSEED
  5
303
  9
$SURFTAB1
 70
     6
  9
$SURFTAB2
 70
     6
  9
$SURFTYPE
 70
     6
  9
$SURFU
 70
     6
  9
$SURFV
 70
     6
  9
$UCSNAME
  2

  9
$UCSORG
 10
0.0
 20
0.0
 30
0.0
  9
$UCSXDIR
 10
1.0
 20
0.0
 30
0.0
  9
$UCSYDIR
 10
0.0
 20
1.0
 30
0.0
  9
$PUCSNAME
  2

  9
$PUCSORG
 10
0.0
 20
0.0
 30
0.0
  9
$PUCSXDIR
 10
1.0
 20
0.0
 30
0.0
  9
$PUCSYDIR
 10
0.0
 20
1.0
 30
0.0
  9
$USERI1
 70
     0
  9
$USERI2
 70
     0
  9
$USERI3
 70
     0
  9
$USERI4
 70
     0
  9
$USERI5
 70
     0
  9
$USERR1
 40
0.0
  9
$USERR2
 40
0.0
  9
$USERR3
 40
0.0
  9
$USERR4
 40
0.0
  9
$USERR5
 40
0.0
  9
$WORLDVIEW
 70
     1
  9
$SHADEDGE
 70
     3
  9
$SHADEDIF
 70
    70
  9
$TILEMODE
 70
     1
  9
$MAXACTVP
 70
    64
  9
$PLIMCHECK
 70
     0
  9
$PEXTMIN
 10
1.0000000000E+20
 20
1.0000000000E+20
 30
1.0000000000E+20
  9
$PEXTMAX
 10
-1.0000000000E+20
 20
-1.0000000000E+20
 30
-1.0000000000E+20
  9
$PLIMMIN
 10
0.0
 20
0.0
  9
$PLIMMAX
 10
420.0
 20
297.0
  9
$UNITMODE
 70
     0
  9
$VISRETAIN
 70
     1
  9
$PLINEGEN
 70
     0
  9
$PSLTSCALE
 70
     1
  0
ENDSEC
  0
SECTION
  2
TABLES
  0
TABLE
  2
VPORT
 70
     1
  0
VPORT
  2
*ACTIVE
 70
     0
 10
0.0
 20
0.0
 11
1.0
 21
1.0
 12
0.0
 22
17.5
 13
0.0
 23
0.0
 14
10.0
 24
10.0
 15
10.0
 25
10.0
 16
0.0
 26
0.0
 36
1.0
 17
0.0
 27
0.0
 37
0.0
 40
413.1
 41
1.0500315912
 42
50.0
 43
0.0
 44
0.0
 50
0.0
 51
0.0
 71
     0
 72
   100
 73
     1
 74
     3
 75
     0
 76
     0
 77
     0
 78
     0
  0
ENDTAB
  0
TABLE
  2
LTYPE
 70
     6
  0
LTYPE
  2
CONTINUOUS
 70
     0
  3
Solid line
 72
    65
 73
     0
 40
0.0
  0
LTYPE
  2
HIDDEN
 70
     0
  3
Hidden __ __ __ __ __ __ __ __ __ __ __ __ __ __
 72
    65
 73
     2
 40
1.905
 49
1.27
 49
-0.635
  0
LTYPE
  2
PHANTOM
 70
     0
  3
Phantom ______  __  __  ______  __  __  ______
 72
    65
 73
     6
 40
12.7
 49
6.35
 49
-1.27
 49
1.27
 49
-1.27
 49
1.27
 49
-1.27
  0
LTYPE
  2
CENTER
 70
     0
  3
Center ____ _ ____ _ ____ _ ____ _ ____ _ ____
 72
    65
 73
     4
 40
10.16
 49
6.35
 49
-1.27
 49
1.27
 49
-1.27
  0
LTYPE
  2
CENTERX2
 70
     0
  3
Center (2x) ________  __  ________  __  _____
 72
    65
 73
     4
 40
20.32
 49
12.7
 49
-2.54
 49
2.54
 49
-2.54
  0
LTYPE
  2
DOT2
 70
     0
  3
Dot (.5x) ........................................
 72
    65
 73
     2
 40
0.635
 49
0.0
 49
-0.635
  0
ENDTAB
  0
TABLE
  2
LAYER
 70
     1
  0
LAYER
  2
0
 70
     0
 62
     7
  6
CONTINUOUS
  0
ENDTAB
  0
TABLE
  2
STYLE
 70
     1
  0
STYLE
  2
STANDARD
 70
     0
 40
0.0
 41
1.0
 50
0.0
 71
     0
 42
3.5
  3
txt
  4

  0
ENDTAB
  0
TABLE
  2
VIEW
 70
     0
  0
ENDTAB
  0
TABLE
  2
UCS
 70
     0
  0
ENDTAB
  0
TABLE
  2
APPID
 70
     1
  0
APPID
  2
ACAD
 70
     0
  0
ENDTAB
  0
TABLE
  2
DIMSTYLE
 70
     1
  0
DIMSTYLE
  2
ISO-25
 70
     0
  3

  4

  5

  6

  7

 40
1.0
 41
2.5
 42
0.625
 43
3.75
 44
1.25
 45
0.0
 46
0.0
 47
0.0
 48
0.0
140
2.5
141
2.5
142
0.0
143
0.0393700787
144
1.0
145
0.0
146
1.0
147
0.625
 71
     0
 72
     0
 73
     0
 74
     0
 75
     0
 76
     0
 77
     1
 78
     8
170
     0
171
     3
172
     1
173
     0
174
     0
175
     0
176
     0
177
     0
178
     0
  0
ENDTAB
  0
ENDSEC
  0
SECTION
  2
BLOCKS
  0
BLOCK
  8
0
  2
$MODEL_SPACE
 70
     0
 10
0.0
 20
0.0
 30
0.0
  3
$MODEL_SPACE
  1

  0
ENDBLK
  5
21
  8
0
  0
BLOCK
 67
     1
  8
0
  2
$PAPER_SPACE
 70
     0
 10
0.0
 20
0.0
 30
0.0
  3
$PAPER_SPACE
  1

  0
ENDBLK
  5
1D
 67
     1
  8
0
  0
ENDSEC
  0
SECTION
  2
ENTITIES
  0
CIRCLE
  5
89
  8
0
  6
CONTINUOUS
 62
     7
 10
-90.0
 20
-172.76
 30
0.0
 40
1.77500000000002
  0
CIRCLE
  5
8A
  8
0
  6
CONTINUOUS
 62
     7
 10
90.0
 20
-172.76
 30
0.0
 40
1.775000000000006
  0
CIRCLE
  5
93
  8
0
  6
CONTINUOUS
 62
     7
 10
194.6145487578
 20
8.4377136594
 30
0.0
 40
1.775000000000023
  0
CIRCLE
  5
94
  8
0
  6
CONTINUOUS
 62
     7
 10
104.6145487578
 20
164.3222863406
 30
0.0
 40
1.775000000000004
  0
CIRCLE
  5
9D
  8
0
  6
CONTINUOUS
 62
     7
 10
-104.6145487578
 20
164.3222863406
 30
0.0
 40
1.774999999999986
  0
CIRCLE
  5
9E
  8
0
  6
CONTINUOUS
 62
     7
 10
-194.6145487578
 20
8.4377136594
 30
0.0
 40
1.775000000000012
  0
CIRCLE
  5
A7
  8
0
  6
CONTINUOUS
 62
     7
 10
-16.14
 20
184.95
 30
0.0
 40
1.77500000000002
  0
CIRCLE
  5
A8
  8
0
  6
CONTINUOUS
 62
     7
 10
16.14
 20
184.95
 30
0.0
 40
1.775000000000023
  0
CIRCLE
  5
B9
  8
0
  6
CONTINUOUS
 62
     7
 10
168.2413984299
 20
-78.4973499829
 30
0.0
 40
1.774999999999962
  0
CIRCLE
  5
BA
  8
0
  6
CONTINUOUS
 62
     7
 10
152.1013984299
 20
-106.4526500171
 30
0.0
 40
1.775
  0
CIRCLE
  5
CB
  8
0
  6
CONTINUOUS
 62
     7
 10
-152.1013984299
 20
-106.4526500171
 30
0.0
 40
1.775000000000017
  0
CIRCLE
  5
CC
  8
0
  6
CONTINUOUS
 62
     7
 10
-168.2413984299
 20
-78.4973499829
 30
0.0
 40
1.774999999999993
  0
POLYLINE
  5
E1
  8
0
  6
CONTINUOUS
 62
     7
 66
     1
 10
0.0
 20
0.0
 30
0.0
 70
   128
  0
VERTEX
  5
229
  8
0
  6
CONTINUOUS
 62
     7
 10
-155.5363128631
 20
-86.4884166985
 30
0.0
  0
VERTEX
  5
22A
  8
0
  6
CONTINUOUS
 62
     7
 10
-155.5390213479
 20
-86.4634985166
 30
0.0
  0
VERTEX
  5
22B
  8
0
  6
CONTINUOUS
 62
     7
 10
-155.5471468025
 20
-86.4419027591
 30
0.0
  0
VERTEX
  5
22C
  8
0
  6
CONTINUOUS
 62
     7
 10
-155.5606892267
 20
-86.4236294257
 30
0.0
  0
VERTEX
  5
22D
  8
0
  6
CONTINUOUS
 62
     7
 10
-155.5796486207
 20
-86.4086785166
 30
0.0
  0
VERTEX
  5
22E
  8
0
  6
CONTINUOUS
 62
     7
 10
-155.6338183176
 20
-86.3887439712
 30
0.0
  0
VERTEX
  5
22F
  8
0
  6
CONTINUOUS
 62
     7
 10
-155.7096558934
 20
-86.3820991227
 30
0.0
  0
SEQEND
  5
2D7
  8
0
  6
CONTINUOUS
 62
     7
  0
POLYLINE
  5
E6
  8
0
  6
CONTINUOUS
 62
     7
 66
     1
 10
0.0
 20
0.0
 30
0.0
 70
   128
  0
VERTEX
  5
230
  8
0
  6
CONTINUOUS
 62
     7
 10
-160.3885213479
 20
-86.4486979106
 30
0.0
  0
VERTEX
  5
231
  8
0
  6
CONTINUOUS
 62
     7
 10
-160.7319623215
 20
-86.457825288
 30
0.0
  0
VERTEX
  5
232
  8
0
  6
CONTINUOUS
 62
     7
 10
-161.0169237722
 20
-86.463592456
 30
0.0
  0
SEQEND
  5
2D8
  8
0
  6
CONTINUOUS
 62
     7
  0
POLYLINE
  5
E7
  8
0
  6
CONTINUOUS
 62
     7
 66
     1
 10
0.0
 20
0.0
 30
0.0
 70
   128
  0
VERTEX
  5
233
  8
0
  6
CONTINUOUS
 62
     7
 10
-161.0169237722
 20
-86.463592456
 30
0.0
  0
VERTEX
  5
234
  8
0
  6
CONTINUOUS
 62
     7
 10
-161.4388334934
 20
-86.4499013898
 30
0.0
  0
VERTEX
  5
235
  8
0
  6
CONTINUOUS
 62
     7
 10
-161.75040256
 20
-86.4412506378
 30
0.0
  0
SEQEND
  5
2D9
  8
0
  6
CONTINUOUS
 62
     7
  0
POLYLINE
  5
E8
  8
0
  6
CONTINUOUS
 62
     7
 66
     1
 10
0.0
 20
0.0
 30
0.0
 70
   128
  0
VERTEX
  5
236
  8
0
  6
CONTINUOUS
 62
     7
 10
-161.75040256
 20
-86.4412506378
 30
0.0
  0
VERTEX
  5
237
  8
0
  6
CONTINUOUS
 62
     7
 10
-161.8428874085
 20
-86.4482057894
 30
0.0
  0
VERTEX
  5
238
  8
0
  6
CONTINUOUS
 62
     7
 10
-161.9089480146
 20
-86.4690712439
 30
0.0
  0
VERTEX
  5
239
  8
0
  6
CONTINUOUS
 62
     7
 10
-161.9320692267
 20
-86.4847203348
 30
0.0
  0
VERTEX
  5
23A
  8
0
  6
CONTINUOUS
 62
     7
 10
-161.9485843782
 20
-86.5038470015
 30
0.0
  0
VERTEX
  5
23B
  8
0
  6
CONTINUOUS
 62
     7
 10
-161.9584934691
 20
-86.5264512439
 30
0.0
  0
VERTEX
  5
23C
  8
0
  6
CONTINUOUS
 62
     7
 10
-161.9617964994
 20
-86.5525330621
 30
0.0
  0
SEQEND
  5
2DA
  8
0
  6
CONTINUOUS
 62
     7
  0
POLYLINE
  5
E9
  8
0
  6
CONTINUOUS
 62
     7
 66
     1
 10
0.0
 20
0.0
 30
0.0
 70
   128
  0
VERTEX
  5
23D
  8
0
  6
CONTINUOUS
 62
     7
 10
-161.9617964994
 20
-86.5525330621
 30
0.0
  0
VERTEX
  5
23E
  8
0
  6
CONTINUOUS
 62
     7
 10
-161.9202241474
 20
-86.9338653869
 30
0.0
  0
VERTEX
  5
23F
  8
0
  6
CONTINUOUS
 62
     7
 10
-161.8939564994
 20
-87.2144482136
 30
0.0
  0
SEQEND
  5
2DB
  8
0
  6
CONTINUOUS
 62
     7
  0
POLYLINE
  5
EA
  8
0
  6
CONTINUOUS
 62
     7
 66
     1
 10
0.0
 20
0.0
 30
0.0
 70
   128
  0
VERTEX
  5
240
  8
0
  6
CONTINUOUS
 62
     7
 10
-161.8939564994
 20
-87.2144482136
 30
0.0
  0
VERTEX
  5
241
  8
0
  6
CONTINUOUS
 62
     7
 10
-161.8974596965
 20
-87.3246824963
 30
0.0
  0
VERTEX
  5
242
  8
0
  6
CONTINUOUS
 62
     7
 10
-161.9051274085
 20
-87.4730082136
 30
0.0
  0
SEQEND
  5
2DC
  8
0
  6
CONTINUOUS
 62
     7
  0
POLYLINE
  5
EB
  8
0
  6
CONTINUOUS
 62
     7
 66
     1
 10
0.0
 20
0.0
 30
0.0
 70
   128
  0
VERTEX
  5
243
  8
0
  6
CONTINUOUS
 62
     7
 10
-161.9051274085
 20
-87.4730082136
 30
0.0
  0
VERTEX
  5
244
  8
0
  6
CONTINUOUS
 62
     7
 10
-161.9069624165
 20
-87.6837126597
 30
0.0
  0
VERTEX
  5
245
  8
0
  6
CONTINUOUS
 62
     7
 10
-161.9051274085
 20
-87.8068554863
 30
0.0
  0
SEQEND
  5
2DD
  8
0
  6
CONTINUOUS
 62
     7
  0
POLYLINE
  5
EC
  8
0
  6
CONTINUOUS
 62
     7
 66
     1
 10
0.0
 20
0.0
 30
0.0
 70
   128
  0
VERTEX
  5
246
  8
0
  6
CONTINUOUS
 62
     7
 10
-161.9051274085
 20
-87.8068554863
 30
0.0
  0
VERTEX
  5
247
  8
0
  6
CONTINUOUS
 62
     7
 10
-161.8886123365
 20
-87.9565146378
 30
0.0
  0
VERTEX
  5
248
  8
0
  6
CONTINUOUS
 62
     7
 10
-161.8641674085
 20
-88.0467973045
 30
0.0
  0
SEQEND
  5
2DE
  8
0
  6
CONTINUOUS
 62
     7
  0
POLYLINE
  5
ED
  8
0
  6
CONTINUOUS
 62
     7
 66
     1
 10
0.0
 20
0.0
 30
0.0
 70
   128
  0
VERTEX
  5
249
  8
0
  6
CONTINUOUS
 62
     7
 10
-161.8641674085
 20
-88.0467973045
 30
0.0
  0
VERTEX
  5
24A
  8
0
  6
CONTINUOUS
 62
     7
 10
-161.3116284277
 20
-88.7289771678
 30
0.0
  0
VERTEX
  5
24B
  8
0
  6
CONTINUOUS
 62
     7
 10
-160.875852257
 20
-89.2638833651
 30
0.0
  0
SEQEND
  5
2DF
  8
0
  6
CONTINUOUS
 62
     7
  0
POLYLINE
  5
F0
  8
0
  6
CONTINUOUS
 62
     7
 66
     1
 10
0.0
 20
0.0
 30
0.0
 70
   128
  0
VERTEX
  5
24C
  8
0
  6
CONTINUOUS
 62
     7
 10
-160.8795758934
 20
-91.5482954863
 30
0.0
  0
VERTEX
  5
24D
  8
0
  6
CONTINUOUS
 62
     7
 10
-161.8012340752
 20
-92.7088627591
 30
0.0
  0
VERTEX
  5
24E
  8
0
  6
CONTINUOUS
 62
     7
 10
-161.8598849843
 20
-92.7824454863
 30
0.0
  0
VERTEX
  5
24F
  8
0
  6
CONTINUOUS
 62
     7
 10
-161.8629804388
 20
-92.7862875318
 30
0.0
  0
VERTEX
  5
250
  8
0
  6
CONTINUOUS
 62
     7
 10
-161.8641674085
 20
-92.7877233651
 30
0.0
  0
SEQEND
  5
2E0
  8
0
  6
CONTINUOUS
 62
     7
  0
POLYLINE
  5
F2
  8
0
  6
CONTINUOUS
 62
     7
 66
     1
 10
0.0
 20
0.0
 30
0.0
 70
   128
  0
VERTEX
  5
251
  8
0
  6
CONTINUOUS
 62
     7
 10
-161.9617964994
 20
-93.6262785166
 30
0.0
  0
VERTEX
  5
252
  8
0
  6
CONTINUOUS
 62
     7
 10
-161.9043526358
 20
-94.2321820015
 30
0.0
  0
VERTEX
  5
253
  8
0
  6
CONTINUOUS
 62
     7
 10
-161.9014332608
 20
-94.3105334788
 30
0.0
  0
VERTEX
  5
254
  8
0
  6
CONTINUOUS
 62
     7
 10
-161.9011298612
 20
-94.321915742
 30
0.0
  0
VERTEX
  5
255
  8
0
  6
CONTINUOUS
 62
     7
 10
-161.8970211964
 20
-94.3327795772
 30
0.0
  0
VERTEX
  5
256
  8
0
  6
CONTINUOUS
 62
     7
 10
-161.8879821339
 20
-94.3431134693
 30
0.0
  0
VERTEX
  5
257
  8
0
  6
CONTINUOUS
 62
     7
 10
-161.8651790444
 20
-94.3576206639
 30
0.0
  0
VERTEX
  5
258
  8
0
  6
CONTINUOUS
 62
     7
 10
-161.83128256
 20
-94.3709354863
 30
0.0
  0
VERTEX
  5
259
  8
0
  6
CONTINUOUS
 62
     7
 10
-161.3977651782
 20
-94.4256357976
 30
0.0
  0
VERTEX
  5
25A
  8
0
  6
CONTINUOUS
 62
     7
 10
-160.7794643782
 20
-94.4387682136
 30
0.0
  0
SEQEND
  5
2E1
  8
0
  6
CONTINUOUS
 62
     7
  0
POLYLINE
  5
F7
  8
0
  6
CONTINUOUS
 62
     7
 66
     1
 10
0.0
 20
0.0
 30
0.0
 70
   128
  0
VERTEX
  5
25B
  8
0
  6
CONTINUOUS
 62
     7
 10
-157.0417480146
 20
-94.33369185
 30
0.0
  0
VERTEX
  5
25C
  8
0
  6
CONTINUOUS
 62
     7
 10
-156.4735116102
 20
-94.3478237947
 30
0.0
  0
VERTEX
  5
25D
  8
0
  6
CONTINUOUS
 62
     7
 10
-156.0794983176
 20
-94.3523100318
 30
0.0
  0
SEQEND
  5
2E2
  8
0
  6
CONTINUOUS
 62
     7
  0
POLYLINE
  5
FA
  8
0
  6
CONTINUOUS
 62
     7
 66
     1
 10
0.0
 20
0.0
 30
0.0
 70
   128
  0
VERTEX
  5
25E
  8
0
  6
CONTINUOUS
 62
     7
 10
-155.4759201358
 20
-94.2310979106
 30
0.0
  0
VERTEX
  5
25F
  8
0
  6
CONTINUOUS
 62
     7
 10
-155.4488954725
 20
-93.9835838296
 30
0.0
  0
VERTEX
  5
260
  8
0
  6
CONTINUOUS
 62
     7
 10
-155.4424074085
 20
-93.6089015469
 30
0.0
  0
SEQEND
  5
2E3
  8
0
  6
CONTINUOUS
 62
     7
  0
POLYLINE
  5
FC
  8
0
  6
CONTINUOUS
 62
     7
 66
     1
 10
0.0
 20
0.0
 30
0.0
 70
   128
  0
VERTEX
  5
261
  8
0
  6
CONTINUOUS
 62
     7
 10
161.6059553478
 20
-88.0226154545
 30
0.0
  0
VERTEX
  5
262
  8
0
  6
CONTINUOUS
 62
     7
 10
161.5988450448
 20
-87.8977354545
 30
0.0
  0
VERTEX
  5
263
  8
0
  6
CONTINUOUS
 62
     7
 10
161.5775141357
 20
-87.8085354545
 30
0.0
  0
VERTEX
  5
264
  8
0
  6
CONTINUOUS
 62
     7
 10
161.5615159539
 20
-87.7773154545
 30
0.0
  0
VERTEX
  5
265
  8
0
  6
CONTINUOUS
 62
     7
 10
161.5419626205
 20
-87.7550154545
 30
0.0
  0
VERTEX
  5
266
  8
0
  6
CONTINUOUS
 62
     7
 10
161.5188541357
 20
-87.7416354545
 30
0.0
  0
VERTEX
  5
267
  8
0
  6
CONTINUOUS
 62
     7
 10
161.4921904993
 20
-87.7371754545
 30
0.0
  0
SEQEND
  5
2E4
  8
0
  6
CONTINUOUS
 62
     7
  0
POLYLINE
  5
FD
  8
0
  6
CONTINUOUS
 62
     7
 66
     1
 10
0.0
 20
0.0
 30
0.0
 70
   128
  0
VERTEX
  5
268
  8
0
  6
CONTINUOUS
 62
     7
 10
161.4921904993
 20
-87.7371754545
 30
0.0
  0
VERTEX
  5
269
  8
0
  6
CONTINUOUS
 62
     7
 10
160.3226728382
 20
-87.787875184
 30
0.0
  0
VERTEX
  5
26A
  8
0
  6
CONTINUOUS
 62
     7
 10
159.4675795902
 20
-87.81991
 30
0.0
  0
SEQEND
  5
2E5
  8
0
  6
CONTINUOUS
 62
     7
  0
POLYLINE
  5
FF
  8
0
  6
CONTINUOUS
 62
     7
 66
     1
 10
0.0
 20
0.0
 30
0.0
 70
   128
  0
VERTEX
  5
26B
  8
0
  6
CONTINUOUS
 62
     7
 10
159.3351965599
 20
-87.81991
 30
0.0
  0
VERTEX
  5
26C
  8
0
  6
CONTINUOUS
 62
     7
 10
159.3288022997
 20
-87.823434346
 30
0.0
  0
VERTEX
  5
26D
  8
0
  6
CONTINUOUS
 62
     7
 10
159.3231133152
 20
-87.8293364546
 30
0.0
  0
VERTEX
  5
26E
  8
0
  6
CONTINUOUS
 62
     7
 10
159.3181296065
 20
-87.8376163258
 30
0.0
  0
VERTEX
  5
26F
  8
0
  6
CONTINUOUS
 62
     7
 10
159.3091728101
 20
-87.8665410982
 30
0.0
  0
VERTEX
  5
270
  8
0
  6
CONTINUOUS
 62
     7
 10
159.3029250448
 20
-87.9510518182
 30
0.0
  0
SEQEND
  5
2E6
  8
0
  6
CONTINUOUS
 62
     7
  0
POLYLINE
  5
100
  8
0
  6
CONTINUOUS
 62
     7
 66
     1
 10
0.0
 20
0.0
 30
0.0
 70
   128
  0
VERTEX
  5
271
  8
0
  6
CONTINUOUS
 62
     7
 10
159.3029250448
 20
-87.9510518182
 30
0.0
  0
VERTEX
  5
272
  8
0
  6
CONTINUOUS
 62
     7
 10
159.3772038327
 20
-88.9431150579
 30
0.0
  0
VERTEX
  5
273
  8
0
  6
CONTINUOUS
 62
     7
 10
159.424137166
 20
-89.6629160606
 30
0.0
  0
SEQEND
  5
2E7
  8
0
  6
CONTINUOUS
 62
     7
  0
POLYLINE
  5
102
  8
0
  6
CONTINUOUS
 62
     7
 66
     1
 10
0.0
 20
0.0
 30
0.0
 70
   128
  0
VERTEX
  5
274
  8
0
  6
CONTINUOUS
 62
     7
 10
158.8652426205
 20
-90.5051948485
 30
0.0
  0
VERTEX
  5
275
  8
0
  6
CONTINUOUS
 62
     7
 10
158.4622289885
 20
-91.0503173387
 30
0.0
  0
VERTEX
  5
276
  8
0
  6
CONTINUOUS
 62
     7
 10
158.2120159539
 20
-91.34375
 30
0.0
  0
SEQEND
  5
2E8
  8
0
  6
CONTINUOUS
 62
     7
  0
POLYLINE
  5
103
  8
0
  6
CONTINUOUS
 62
     7
 66
     1
 10
0.0
 20
0.0
 30
0.0
 70
   128
  0
VERTEX
  5
277
  8
0
  6
CONTINUOUS
 62
     7
 10
158.2120159539
 20
-91.34375
 30
0.0
  0
VERTEX
  5
278
  8
0
  6
CONTINUOUS
 62
     7
 10
157.8435008198
 20
-90.9430179641
 30
0.0
  0
VERTEX
  5
279
  8
0
  6
CONTINUOUS
 62
     7
 10
157.5108086811
 20
-90.5014712121
 30
0.0
  0
SEQEND
  5
2E9
  8
0
  6
CONTINUOUS
 62
     7
  0
POLYLINE
  5
107
  8
0
  6
CONTINUOUS
 62
     7
 66
     1
 10
0.0
 20
0.0
 30
0.0
 70
   128
  0
VERTEX
  5
27A
  8
0
  6
CONTINUOUS
 62
     7
 10
156.8786826205
 20
-87.8161863636
 30
0.0
  0
VERTEX
  5
27B
  8
0
  6
CONTINUOUS
 62
     7
 10
155.7273859534
 20
-87.7677684785
 30
0.0
  0
VERTEX
  5
27C
  8
0
  6
CONTINUOUS
 62
     7
 10
154.8875844387
 20
-87.7371754545
 30
0.0
  0
SEQEND
  5
2EA
  8
0
  6
CONTINUOUS
 62
     7
  0
POLYLINE
  5
108
  8
0
  6
CONTINUOUS
 62
     7
 66
     1
 10
0.0
 20
0.0
 30
0.0
 70
   128
  0
VERTEX
  5
27D
  8
0
  6
CONTINUOUS
 62
     7
 10
154.8875844387
 20
-87.7371754545
 30
0.0
  0
VERTEX
  5
27E
  8
0
  6
CONTINUOUS
 62
     7
 10
154.8712935296
 20
-87.7404009091
 30
0.0
  0
VERTEX
  5
27F
  8
0
  6
CONTINUOUS
 62
     7
 10
154.8571747417
 20
-87.7500772727
 30
0.0
  0
VERTEX
  5
280
  8
0
  6
CONTINUOUS
 62
     7
 10
154.8452280751
 20
-87.7662045455
 30
0.0
  0
VERTEX
  5
281
  8
0
  6
CONTINUOUS
 62
     7
 10
154.8354535296
 20
-87.7887827273
 30
0.0
  0
VERTEX
  5
282
  8
0
  6
CONTINUOUS
 62
     7
 10
154.8224208024
 20
-87.8532918182
 30
0.0
  0
VERTEX
  5
283
  8
0
  6
CONTINUOUS
 62
     7
 10
154.8180765599
 20
-87.9436045455
 30
0.0
  0
SEQEND
  5
2EB
  8
0
  6
CONTINUOUS
 62
     7
  0
POLYLINE
  5
10B
  8
0
  6
CONTINUOUS
 62
     7
 66
     1
 10
0.0
 20
0.0
 30
0.0
 70
   128
  0
VERTEX
  5
284
  8
0
  6
CONTINUOUS
 62
     7
 10
154.947977166
 20
-90.3566760606
 30
0.0
  0
VERTEX
  5
285
  8
0
  6
CONTINUOUS
 62
     7
 10
156.2060523951
 20
-92.2591206046
 30
0.0
  0
VERTEX
  5
286
  8
0
  6
CONTINUOUS
 62
     7
 10
156.9457080751
 20
-93.3092093939
 30
0.0
  0
SEQEND
  5
2EC
  8
0
  6
CONTINUOUS
 62
     7
  0
POLYLINE
  5
10C
  8
0
  6
CONTINUOUS
 62
     7
 66
     1
 10
0.0
 20
0.0
 30
0.0
 70
   128
  0
VERTEX
  5
287
  8
0
  6
CONTINUOUS
 62
     7
 10
156.9457080751
 20
-93.3092093939
 30
0.0
  0
VERTEX
  5
288
  8
0
  6
CONTINUOUS
 62
     7
 10
157.0871496576
 20
-93.5512532048
 30
0.0
  0
VERTEX
  5
289
  8
0
  6
CONTINUOUS
 62
     7
 10
157.121106863
 20
-93.7332384848
 30
0.0
  0
SEQEND
  5
2ED
  8
0
  6
CONTINUOUS
 62
     7
  0
POLYLINE
  5
10D
  8
0
  6
CONTINUOUS
 62
     7
 66
     1
 10
0.0
 20
0.0
 30
0.0
 70
   128
  0
VERTEX
  5
28A
  8
0
  6
CONTINUOUS
 62
     7
 10
157.121106863
 20
-93.7332384848
 30
0.0
  0
VERTEX
  5
28B
  8
0
  6
CONTINUOUS
 62
     7
 10
157.0468280751
 20
-94.7729045057
 30
0.0
  0
VERTEX
  5
28C
  8
0
  6
CONTINUOUS
 62
     7
 10
156.9998947417
 20
-95.5650736364
 30
0.0
  0
SEQEND
  5
2EE
  8
0
  6
CONTINUOUS
 62
     7
  0
POLYLINE
  5
10F
  8
0
  6
CONTINUOUS
 62
     7
 66
     1
 10
0.0
 20
0.0
 30
0.0
 70
   128
  0
VERTEX
  5
28D
  8
0
  6
CONTINUOUS
 62
     7
 10
157.1459311054
 20
-95.7148336364
 30
0.0
  0
VERTEX
  5
28E
  8
0
  6
CONTINUOUS
 62
     7
 10
157.5799487267
 20
-95.7328500785
 30
0.0
  0
VERTEX
  5
28F
  8
0
  6
CONTINUOUS
 62
     7
 10
158.1665177721
 20
-95.7371754545
 30
0.0
  0
SEQEND
  5
2EF
  8
0
  6
CONTINUOUS
 62
     7
  0
POLYLINE
  5
110
  8
0
  6
CONTINUOUS
 62
     7
 66
     1
 10
0.0
 20
0.0
 30
0.0
 70
   128
  0
VERTEX
  5
290
  8
0
  6
CONTINUOUS
 62
     7
 10
158.1665177721
 20
-95.7371754545
 30
0.0
  0
VERTEX
  5
291
  8
0
  6
CONTINUOUS
 62
     7
 10
158.901570541
 20
-95.7301690604
 30
0.0
  0
VERTEX
  5
292
  8
0
  6
CONTINUOUS
 62
     7
 10
159.2102608024
 20
-95.7148336364
 30
0.0
  0
SEQEND
  5
2F0
  8
0
  6
CONTINUOUS
 62
     7
  0
POLYLINE
  5
113
  8
0
  6
CONTINUOUS
 62
     7
 66
     1
 10
0.0
 20
0.0
 30
0.0
 70
   128
  0
VERTEX
  5
293
  8
0
  6
CONTINUOUS
 62
     7
 10
159.424137166
 20
-95.5725209091
 30
0.0
  0
VERTEX
  5
294
  8
0
  6
CONTINUOUS
 62
     7
 10
159.3498583781
 20
-94.5517113828
 30
0.0
  0
VERTEX
  5
295
  8
0
  6
CONTINUOUS
 62
     7
 10
159.3029250448
 20
-93.7667512121
 30
0.0
  0
SEQEND
  5
2F1
  8
0
  6
CONTINUOUS
 62
     7
  0
POLYLINE
  5
115
  8
0
  6
CONTINUOUS
 62
     7
 66
     1
 10
0.0
 20
0.0
 30
0.0
 70
   128
  0
VERTEX
  5
296
  8
0
  6
CONTINUOUS
 62
     7
 10
159.4638559539
 20
-93.3584312121
 30
0.0
  0
VERTEX
  5
297
  8
0
  6
CONTINUOUS
 62
     7
 10
160.7456090419
 20
-91.5687701522
 30
0.0
  0
VERTEX
  5
298
  8
0
  6
CONTINUOUS
 62
     7
 10
161.5046026205
 20
-90.2441524242
 30
0.0
  0
SEQEND
  5
2F2
  8
0
  6
CONTINUOUS
 62
     7
  0
POLYLINE
  5
116
  8
0
  6
CONTINUOUS
 62
     7
 66
     1
 10
0.0
 20
0.0
 30
0.0
 70
   128
  0
VERTEX
  5
299
  8
0
  6
CONTINUOUS
 62
     7
 10
161.5046026205
 20
-90.2441524242
 30
0.0
  0
VERTEX
  5
29A
  8
0
  6
CONTINUOUS
 62
     7
 10
161.5863334598
 20
-90.0248637552
 30
0.0
  0
VERTEX
  5
29B
  8
0
  6
CONTINUOUS
 62
     7
 10
161.6059553478
 20
-89.7977815152
 30
0.0
  0
SEQEND
  5
2F3
  8
0
  6
CONTINUOUS
 62
     7
  0
POLYLINE
  5
118
  8
0
  6
CONTINUOUS
 62
     7
 66
     1
 10
0.0
 20
0.0
 30
0.0
 70
   128
  0
VERTEX
  5
29C
  8
0
  6
CONTINUOUS
 62
     7
 10
2.4534529239
 20
178.7930366961
 30
0.0
  0
VERTEX
  5
29D
  8
0
  6
CONTINUOUS
 62
     7
 10
2.5511983784
 20
179.8007028411
 30
0.0
  0
VERTEX
  5
29E
  8
0
  6
CONTINUOUS
 62
     7
 10
2.5746650451
 20
180.6124597264
 30
0.0
  0
SEQEND
  5
2F4
  8
0
  6
CONTINUOUS
 62
     7
  0
POLYLINE
  5
119
  8
0
  6
CONTINUOUS
 62
     7
 66
     1
 10
0.0
 20
0.0
 30
0.0
 70
   128
  0
VERTEX
  5
29F
  8
0
  6
CONTINUOUS
 62
     7
 10
2.5746650451
 20
180.6124597264
 30
0.0
  0
VERTEX
  5
2A0
  8
0
  6
CONTINUOUS
 62
     7
 10
2.571436211
 20
180.6526484096
 30
0.0
  0
VERTEX
  5
2A1
  8
0
  6
CONTINUOUS
 62
     7
 10
2.5617497089
 20
180.6845629522
 30
0.0
  0
VERTEX
  5
2A2
  8
0
  6
CONTINUOUS
 62
     7
 10
2.5456055387
 20
180.7082033541
 30
0.0
  0
VERTEX
  5
2A3
  8
0
  6
CONTINUOUS
 62
     7
 10
2.51828812
 20
180.7254429061
 30
0.0
  0
VERTEX
  5
2A4
  8
0
  6
CONTINUOUS
 62
     7
 10
2.4820008027
 20
180.7311894234
 30
0.0
  0
SEQEND
  5
2F5
  8
0
  6
CONTINUOUS
 62
     7
  0
POLYLINE
  5
11A
  8
0
  6
CONTINUOUS
 62
     7
 66
     1
 10
0.0
 20
0.0
 30
0.0
 70
   128
  0
VERTEX
  5
2A5
  8
0
  6
CONTINUOUS
 62
     7
 10
2.4820008027
 20
180.7311894234
 30
0.0
  0
VERTEX
  5
2A6
  8
0
  6
CONTINUOUS
 62
     7
 10
2.2283352744
 20
180.7099147994
 30
0.0
  0
VERTEX
  5
2A7
  8
0
  6
CONTINUOUS
 62
     7
 10
1.9760517117
 20
180.6633494234
 30
0.0
  0
SEQEND
  5
2F6
  8
0
  6
CONTINUOUS
 62
     7
  0
POLYLINE
  5
11B
  8
0
  6
CONTINUOUS
 62
     7
 66
     1
 10
0.0
 20
0.0
 30
0.0
 70
   128
  0
VERTEX
  5
2A8
  8
0
  6
CONTINUOUS
 62
     7
 10
1.9760517117
 20
180.6633494234
 30
0.0
  0
VERTEX
  5
2A9
  8
0
  6
CONTINUOUS
 62
     7
 10
1.5850924836
 20
180.6385490122
 30
0.0
  0
VERTEX
  5
2AA
  8
0
  6
CONTINUOUS
 62
     7
 10
1.4171571663
 20
180.6310779082
 30
0.0
  0
SEQEND
  5
2F7
  8
0
  6
CONTINUOUS
 62
     7
  0
POLYLINE
  5
11C
  8
0
  6
CONTINUOUS
 62
     7
 66
     1
 10
0.0
 20
0.0
 30
0.0
 70
   128
  0
VERTEX
  5
2AB
  8
0
  6
CONTINUOUS
 62
     7
 10
1.4171571663
 20
180.6310779082
 30
0.0
  0
VERTEX
  5
2AC
  8
0
  6
CONTINUOUS
 62
     7
 10
0.5775350068
 20
180.6140623795
 30
0.0
  0
VERTEX
  5
2AD
  8
0
  6
CONTINUOUS
 62
     7
 10
-0.3058779852
 20
180.6099773022
 30
0.0
  0
SEQEND
  5
2F8
  8
0
  6
CONTINUOUS
 62
     7
  0
POLYLINE
  5
11E
  8
0
  6
CONTINUOUS
 62
     7
 66
     1
 10
0.0
 20
0.0
 30
0.0
 70
   128
  0
VERTEX
  5
2AE
  8
0
  6
CONTINUOUS
 62
     7
 10
-0.392244222
 20
180.5824891765
 30
0.0
  0
VERTEX
  5
2AF
  8
0
  6
CONTINUOUS
 62
     7
 10
0.0734272423
 20
181.3960294415
 30
0.0
  0
VERTEX
  5
2B0
  8
0
  6
CONTINUOUS
 62
     7
 10
0.8839014087
 20
182.7103021507
 30
0.0
  0
SEQEND
  5
2F9
  8
0
  6
CONTINUOUS
 62
     7
  0
POLYLINE
  5
11F
  8
0
  6
CONTINUOUS
 62
     7
 66
     1
 10
0.0
 20
0.0
 30
0.0
 70
   128
  0
VERTEX
  5
2B1
  8
0
  6
CONTINUOUS
 62
     7
 10
0.8839014087
 20
182.7103021507
 30
0.0
  0
VERTEX
  5
2B2
  8
0
  6
CONTINUOUS
 62
     7
 10
1.8885456986
 20
184.3402653836
 30
0.0
  0
VERTEX
  5
2B3
  8
0
  6
CONTINUOUS
 62
     7
 10
2.345894136
 20
185.046845181
 30
0.0
  0
SEQEND
  5
2FA
  8
0
  6
CONTINUOUS
 62
     7
  0
POLYLINE
  5
120
  8
0
  6
CONTINUOUS
 62
     7
 66
     1
 10
0.0
 20
0.0
 30
0.0
 70
   128
  0
VERTEX
  5
2B4
  8
0
  6
CONTINUOUS
 62
     7
 10
2.345894136
 20
185.046845181
 30
0.0
  0
VERTEX
  5
2B5
  8
0
  6
CONTINUOUS
 62
     7
 10
2.4326295425
 20
185.2321931529
 30
0.0
  0
VERTEX
  5
2B6
  8
0
  6
CONTINUOUS
 62
     7
 10
2.4534529239
 20
185.3446973022
 30
0.0
  0
SEQEND
  5
2FB
  8
0
  6
CONTINUOUS
 62
     7
  0
POLYLINE
  5
121
  8
0
  6
CONTINUOUS
 62
     7
 66
     1
 10
0.0
 20
0.0
 30
0.0
 70
   128
  0
VERTEX
  5
2B7
  8
0
  6
CONTINUOUS
 62
     7
 10
2.4534529239
 20
185.3446973022
 30
0.0
  0
VERTEX
  5
2B8
  8
0
  6
CONTINUOUS
 62
     7
 10
2.4189439997
 20
186.1650275499
 30
0.0
  0
VERTEX
  5
2B9
  8
0
  6
CONTINUOUS
 62
     7
 10
2.3434117117
 20
186.6213615446
 30
0.0
  0
SEQEND
  5
2FC
  8
0
  6
CONTINUOUS
 62
     7
  0
POLYLINE
  5
123
  8
0
  6
CONTINUOUS
 62
     7
 66
     1
 10
0.0
 20
0.0
 30
0.0
 70
   128
  0
VERTEX
  5
2BA
  8
0
  6
CONTINUOUS
 62
     7
 10
2.1580832269
 20
186.791795484
 30
0.0
  0
VERTEX
  5
2BB
  8
0
  6
CONTINUOUS
 62
     7
 10
1.0280024123
 20
186.7988018782
 30
0.0
  0
VERTEX
  5
2BC
  8
0
  6
CONTINUOUS
 62
     7
 10
-0.6033707755
 20
186.8191776164
 30
0.0
  0
VERTEX
  5
2BD
  8
0
  6
CONTINUOUS
 62
     7
 10
-2.6151143489
 20
186.8364791204
 30
0.0
  0
SEQEND
  5
2FD
  8
0
  6
CONTINUOUS
 62
     7
  0
POLYLINE
  5
124
  8
0
  6
CONTINUOUS
 62
     7
 66
     1
 10
0.0
 20
0.0
 30
0.0
 70
   128
  0
VERTEX
  5
2BE
  8
0
  6
CONTINUOUS
 62
     7
 10
-2.6151143489
 20
186.8364791204
 30
0.0
  0
VERTEX
  5
2BF
  8
0
  6
CONTINUOUS
 62
     7
 10
-2.6637057623
 20
186.8329475409
 30
0.0
  0
VERTEX
  5
2C0
  8
0
  6
CONTINUOUS
 62
     7
 10
-2.7022930612
 20
186.8223528025
 30
0.0
  0
VERTEX
  5
2C1
  8
0
  6
CONTINUOUS
 62
     7
 10
-2.7308762456
 20
186.8046949051
 30
0.0
  0
VERTEX
  5
2C2
  8
0
  6
CONTINUOUS
 62
     7
 10
-2.7517202776
 20
186.7748161211
 30
0.0
  0
VERTEX
  5
2C3
  8
0
  6
CONTINUOUS
 62
     7
 10
-2.7586682883
 20
186.7351263931
 30
0.0
  0
SEQEND
  5
2FE
  8
0
  6
CONTINUOUS
 62
     7
  0
POLYLINE
  5
128
  8
0
  6
CONTINUOUS
 62
     7
 66
     1
 10
0.0
 20
0.0
 30
0.0
 70
   128
  0
VERTEX
  5
2C4
  8
0
  6
CONTINUOUS
 62
     7
 10
-0.5507846519
 20
184.9736136658
 30
0.0
  0
VERTEX
  5
2C5
  8
0
  6
CONTINUOUS
 62
     7
 10
-0.4912379852
 20
184.968675484
 30
0.0
  0
VERTEX
  5
2C6
  8
0
  6
CONTINUOUS
 62
     7
 10
-0.4487046519
 20
184.9538609386
 30
0.0
  0
VERTEX
  5
2C7
  8
0
  6
CONTINUOUS
 62
     7
 10
-0.4338179852
 20
184.9427500295
 30
0.0
  0
VERTEX
  5
2C8
  8
0
  6
CONTINUOUS
 62
     7
 10
-0.4231846519
 20
184.9291700295
 30
0.0
  0
VERTEX
  5
2C9
  8
0
  6
CONTINUOUS
 62
     7
 10
-0.4168046519
 20
184.9131209386
 30
0.0
  0
VERTEX
  5
2CA
  8
0
  6
CONTINUOUS
 62
     7
 10
-0.4146779852
 20
184.8946027567
 30
0.0
  0
SEQEND
  5
2FF
  8
0
  6
CONTINUOUS
 62
     7
  0
POLYLINE
  5
12B
  8
0
  6
CONTINUOUS
 62
     7
 66
     1
 10
0.0
 20
0.0
 30
0.0
 70
   128
  0
VERTEX
  5
2CB
  8
0
  6
CONTINUOUS
 62
     7
 10
-3.092515561
 20
179.9546948779
 30
0.0
  0
VERTEX
  5
2CC
  8
0
  6
CONTINUOUS
 62
     7
 10
-3.0418252027
 20
179.2972702457
 30
0.0
  0
VERTEX
  5
2CD
  8
0
  6
CONTINUOUS
 62
     7
 10
-3.0010925307
 20
178.9179724537
 30
0.0
  0
SEQEND
  5
300
  8
0
  6
CONTINUOUS
 62
     7
  0
POLYLINE
  5
12C
  8
0
  6
CONTINUOUS
 62
     7
 66
     1
 10
0.0
 20
0.0
 30
0.0
 70
   128
  0
VERTEX
  5
2CE
  8
0
  6
CONTINUOUS
 62
     7
 10
-3.0010925307
 20
178.9179724537
 30
0.0
  0
VERTEX
  5
2CF
  8
0
  6
CONTINUOUS
 62
     7
 10
-2.986615198
 20
178.8752629514
 30
0.0
  0
VERTEX
  5
2D0
  8
0
  6
CONTINUOUS
 62
     7
 10
-2.9580115474
 20
178.841346582
 30
0.0
  0
VERTEX
  5
2D1
  8
0
  6
CONTINUOUS
 62
     7
 10
-2.9152815789
 20
178.8162233453
 30
0.0
  0
VERTEX
  5
2D2
  8
0
  6
CONTINUOUS
 62
     7
 10
-2.8467858776
 20
178.7979024493
 30
0.0
  0
VERTEX
  5
2D3
  8
0
  6
CONTINUOUS
 62
     7
 10
-2.7586682883
 20
178.791795484
 30
0.0
  0
SEQEND
  5
301
  8
0
  6
CONTINUOUS
 62
     7
  0
POLYLINE
  5
12E
  8
0
  6
CONTINUOUS
 62
     7
 66
     1
 10
0.0
 20
0.0
 30
0.0
 70
   128
  0
VERTEX
  5
2D4
  8
0
  6
CONTINUOUS
 62
     7
 10
0.1901414087
 20
178.7301615446
 30
0.0
  0
VERTEX
  5
2D5
  8
0
  6
CONTINUOUS
 62
     7
 10
1.3918690208
 20
178.6936520348
 30
0.0
  0
VERTEX
  5
2D6
  8
0
  6
CONTINUOUS
 62
     7
 10
2.2730892875
 20
178.6705833628
 30
0.0
  0
SEQEND
  5
302
  8
0
  6
CONTINUOUS
 62
     7
  0
CIRCLE
  5
140
  8
0
  6
CONTINUOUS
 62
     7
 10
44.4
 20
92.9
 30
0.0
 40
1.774999999999999
  0
CIRCLE
  5
141
  8
0
  6
CONTINUOUS
 62
     7
 10
76.4
 20
-145.9
 30
0.0
 40
1.774999999999991
  0
CIRCLE
  5
142
  8
0
  6
CONTINUOUS
 62
     7
 10
-76.4
 20
-145.9
 30
0.0
 40
1.775000000000006
  0
CIRCLE
  5
143
  8
0
  6
CONTINUOUS
 62
     7
 10
-44.4
 20
92.9
 30
0.0
 40
1.774999999999984
  0
LINE
  5
16C
  8
0
  6
CONTINUOUS
 62
     7
 10
84.3611928011
 20
65.8821278813
 30
0.0
 11
64.0095958122
 21
54.1321278813
 31
0.0
  0
LINE
  5
16D
  8
0
  6
CONTINUOUS
 62
     7
 10
79.8611928011
 20
73.6763565153
 30
0.0
 11
84.3611928011
 21
65.8821278813
 31
0.0
  0
LINE
  5
16E
  8
0
  6
CONTINUOUS
 62
     7
 10
59.5095958122
 20
61.9263565153
 30
0.0
 11
79.8611928011
 21
73.6763565153
 31
0.0
  0
LINE
  5
16F
  8
0
  6
CONTINUOUS
 62
     7
 10
64.0095958122
 20
54.1321278813
 30
0.0
 11
59.5095958122
 21
61.9263565153
 31
0.0
  0
LINE
  5
170
  8
0
  6
CONTINUOUS
 62
     7
 10
103.7361928011
 20
32.3236434846
 30
0.0
 11
83.3845958122
 21
20.5736434846
 31
0.0
  0
LINE
  5
171
  8
0
  6
CONTINUOUS
 62
     7
 10
99.2361928011
 20
40.1178721187
 30
0.0
 11
103.7361928011
 21
32.3236434846
 31
0.0
  0
LINE
  5
172
  8
0
  6
CONTINUOUS
 62
     7
 10
78.8845958122
 20
28.3678721187
 30
0.0
 11
99.2361928011
 21
40.1178721187
 31
0.0
  0
LINE
  5
173
  8
0
  6
CONTINUOUS
 62
     7
 10
83.3845958122
 20
20.5736434846
 30
0.0
 11
78.8845958122
 21
28.3678721187
 31
0.0
  0
LINE
  5
174
  8
0
  6
CONTINUOUS
 62
     7
 10
123.3323359714
 20
88.3821278813
 30
0.0
 11
102.9807389825
 21
76.6321278813
 31
0.0
  0
LINE
  5
175
  8
0
  6
CONTINUOUS
 62
     7
 10
118.8323359714
 20
96.1763565153
 30
0.0
 11
123.3323359714
 21
88.3821278813
 31
0.0
  0
LINE
  5
176
  8
0
  6
CONTINUOUS
 62
     7
 10
98.4807389825
 20
84.4263565153
 30
0.0
 11
118.8323359714
 21
96.1763565153
 31
0.0
  0
LINE
  5
177
  8
0
  6
CONTINUOUS
 62
     7
 10
102.9807389825
 20
76.6321278813
 30
0.0
 11
98.4807389825
 21
84.4263565153
 31
0.0
  0
LINE
  5
178
  8
0
  6
CONTINUOUS
 62
     7
 10
142.7073359714
 20
54.8236434846
 30
0.0
 11
122.3557389825
 21
43.0736434846
 31
0.0
  0
LINE
  5
179
  8
0
  6
CONTINUOUS
 62
     7
 10
138.2073359714
 20
62.6178721187
 30
0.0
 11
142.7073359714
 21
54.8236434846
 31
0.0
  0
LINE
  5
17A
  8
0
  6
CONTINUOUS
 62
     7
 10
117.8557389825
 20
50.8678721187
 30
0.0
 11
138.2073359714
 21
62.6178721187
 31
0.0
  0
LINE
  5
17B
  8
0
  6
CONTINUOUS
 62
     7
 10
122.3557389825
 20
43.0736434846
 30
0.0
 11
117.8557389825
 21
50.8678721187
 31
0.0
  0
LINE
  5
17C
  8
0
  6
CONTINUOUS
 62
     7
 10
-111.8086066299
 20
176.3418125935
 30
0.0
 11
-208.6207927703
 21
8.6581874065
 31
0.0
  0
LINE
  5
17D
  8
0
  6
CONTINUOUS
 62
     7
 10
208.6207927703
 20
8.6581874065
 30
0.0
 11
111.8086066299
 21
176.3418125935
 31
0.0
  0
LINE
  5
17E
  8
0
  6
CONTINUOUS
 62
     7
 10
-96.8121861404
 20
-185.0
 30
0.0
 11
96.8121861404
 21
-185.0
 31
0.0
  0
LINE
  5
17F
  8
0
  6
CONTINUOUS
 62
     7
 10
-65.1
 20
-176.2
 30
0.0
 11
-49.9
 21
-176.2
 31
0.0
  0
LINE
  5
180
  8
0
  6
CONTINUOUS
 62
     7
 10
-49.9
 20
-176.2
 30
0.0
 11
-49.9
 21
-169.12
 31
0.0
  0
LINE
  5
181
  8
0
  6
CONTINUOUS
 62
     7
 10
-49.9
 20
-169.12
 30
0.0
 11
-65.1
 21
-169.12
 31
0.0
  0
LINE
  5
182
  8
0
  6
CONTINUOUS
 62
     7
 10
-65.1
 20
-169.12
 30
0.0
 11
-65.1
 21
-176.2
 31
0.0
  0
LINE
  5
183
  8
0
  6
CONTINUOUS
 62
     7
 10
65.1
 20
-169.12
 30
0.0
 11
49.9
 21
-169.12
 31
0.0
  0
LINE
  5
184
  8
0
  6
CONTINUOUS
 62
     7
 10
49.9
 20
-169.12
 30
0.0
 11
49.9
 21
-176.2
 31
0.0
  0
LINE
  5
185
  8
0
  6
CONTINUOUS
 62
     7
 10
49.9
 20
-176.2
 30
0.0
 11
65.1
 21
-176.2
 31
0.0
  0
LINE
  5
186
  8
0
  6
CONTINUOUS
 62
     7
 10
65.1
 20
-176.2
 30
0.0
 11
65.1
 21
-169.12
 31
0.0
  0
LINE
  5
187
  8
0
  6
CONTINUOUS
 62
     7
 10
185.1436761468
 20
31.7217462136
 30
0.0
 11
177.5436761468
 21
44.8853323512
 31
0.0
  0
LINE
  5
188
  8
0
  6
CONTINUOUS
 62
     7
 10
177.5436761468
 20
44.8853323512
 30
0.0
 11
171.412216288
 21
41.3453323512
 31
0.0
  0
LINE
  5
189
  8
0
  6
CONTINUOUS
 62
     7
 10
171.412216288
 20
41.3453323512
 30
0.0
 11
179.012216288
 21
28.1817462136
 31
0.0
  0
LINE
  5
18A
  8
0
  6
CONTINUOUS
 62
     7
 10
179.012216288
 20
28.1817462136
 30
0.0
 11
185.1436761468
 21
31.7217462136
 31
0.0
  0
LINE
  5
18B
  8
0
  6
CONTINUOUS
 62
     7
 10
113.912216288
 20
140.9382537864
 30
0.0
 11
121.512216288
 21
127.7746676488
 31
0.0
  0
LINE
  5
18C
  8
0
  6
CONTINUOUS
 62
     7
 10
121.512216288
 20
127.7746676488
 30
0.0
 11
127.6436761468
 21
131.3146676488
 31
0.0
  0
LINE
  5
18D
  8
0
  6
CONTINUOUS
 62
     7
 10
127.6436761468
 20
131.3146676488
 30
0.0
 11
120.0436761468
 21
144.4782537864
 31
0.0
  0
LINE
  5
18E
  8
0
  6
CONTINUOUS
 62
     7
 10
120.0436761468
 20
144.4782537864
 30
0.0
 11
113.912216288
 21
140.9382537864
 31
0.0
  0
LINE
  5
18F
  8
0
  6
CONTINUOUS
 62
     7
 10
-120.0436761468
 20
144.4782537864
 30
0.0
 11
-127.6436761468
 21
131.3146676488
 31
0.0
  0
LINE
  5
190
  8
0
  6
CONTINUOUS
 62
     7
 10
-127.6436761468
 20
131.3146676488
 30
0.0
 11
-121.512216288
 21
127.7746676488
 31
0.0
  0
LINE
  5
191
  8
0
  6
CONTINUOUS
 62
     7
 10
-121.512216288
 20
127.7746676488
 30
0.0
 11
-113.912216288
 21
140.9382537864
 31
0.0
  0
LINE
  5
192
  8
0
  6
CONTINUOUS
 62
     7
 10
-113.912216288
 20
140.9382537864
 30
0.0
 11
-120.0436761468
 21
144.4782537864
 31
0.0
  0
LINE
  5
193
  8
0
  6
CONTINUOUS
 62
     7
 10
-179.012216288
 20
28.1817462136
 30
0.0
 11
-171.412216288
 21
41.3453323511
 31
0.0
  0
LINE
  5
194
  8
0
  6
CONTINUOUS
 62
     7
 10
-171.412216288
 20
41.3453323511
 30
0.0
 11
-177.5436761468
 21
44.8853323511
 31
0.0
  0
LINE
  5
195
  8
0
  6
CONTINUOUS
 62
     7
 10
-177.5436761468
 20
44.8853323511
 30
0.0
 11
-185.1436761468
 21
31.7217462136
 31
0.0
  0
LINE
  5
196
  8
0
  6
CONTINUOUS
 62
     7
 10
-185.1436761468
 20
31.7217462136
 30
0.0
 11
-179.012216288
 21
28.1817462136
 31
0.0
  0
LINE
  5
197
  8
0
  6
CONTINUOUS
 62
     7
 10
19.78
 20
117.6
 30
0.0
 11
19.78
 21
129.8
 31
0.0
  0
LINE
  5
198
  8
0
  6
CONTINUOUS
 62
     7
 10
19.78
 20
129.8
 30
0.0
 11
12.7
 21
129.8
 31
0.0
  0
LINE
  5
199
  8
0
  6
CONTINUOUS
 62
     7
 10
12.7
 20
129.8
 30
0.0
 11
12.7
 21
117.6
 31
0.0
  0
LINE
  5
19A
  8
0
  6
CONTINUOUS
 62
     7
 10
12.7
 20
117.6
 30
0.0
 11
19.78
 21
117.6
 31
0.0
  0
LINE
  5
19B
  8
0
  6
CONTINUOUS
 62
     7
 10
19.78
 20
195.6
 30
0.0
 11
19.78
 21
207.8
 31
0.0
  0
LINE
  5
19C
  8
0
  6
CONTINUOUS
 62
     7
 10
19.78
 20
207.8
 30
0.0
 11
12.7
 21
207.8
 31
0.0
  0
LINE
  5
19D
  8
0
  6
CONTINUOUS
 62
     7
 10
12.7
 20
207.8
 30
0.0
 11
12.7
 21
195.6
 31
0.0
  0
LINE
  5
19E
  8
0
  6
CONTINUOUS
 62
     7
 10
12.7
 20
195.6
 30
0.0
 11
19.78
 21
195.6
 31
0.0
  0
LINE
  5
19F
  8
0
  6
CONTINUOUS
 62
     7
 10
-19.78
 20
207.8
 30
0.0
 11
-19.78
 21
195.6
 31
0.0
  0
LINE
  5
1A0
  8
0
  6
CONTINUOUS
 62
     7
 10
-19.78
 20
195.6
 30
0.0
 11
-12.7
 21
195.6
 31
0.0
  0
LINE
  5
1A1
  8
0
  6
CONTINUOUS
 62
     7
 10
-12.7
 20
195.6
 30
0.0
 11
-12.7
 21
207.8
 31
0.0
  0
LINE
  5
1A2
  8
0
  6
CONTINUOUS
 62
     7
 10
-12.7
 20
207.8
 30
0.0
 11
-19.78
 21
207.8
 31
0.0
  0
LINE
  5
1A3
  8
0
  6
CONTINUOUS
 62
     7
 10
-19.78
 20
174.3
 30
0.0
 11
-19.78
 21
162.1
 31
0.0
  0
LINE
  5
1A4
  8
0
  6
CONTINUOUS
 62
     7
 10
-19.78
 20
162.1
 30
0.0
 11
-12.7
 21
162.1
 31
0.0
  0
LINE
  5
1A5
  8
0
  6
CONTINUOUS
 62
     7
 10
-12.7
 20
162.1
 30
0.0
 11
-12.7
 21
174.3
 31
0.0
  0
LINE
  5
1A6
  8
0
  6
CONTINUOUS
 62
     7
 10
-12.7
 20
174.3
 30
0.0
 11
-19.78
 21
174.3
 31
0.0
  0
LINE
  5
1A7
  8
0
  6
CONTINUOUS
 62
     7
 10
91.954587485
 20
-75.9299824869
 30
0.0
 11
102.5200974112
 21
-82.0299824869
 31
0.0
  0
LINE
  5
1A8
  8
0
  6
CONTINUOUS
 62
     7
 10
102.5200974112
 20
-82.0299824869
 30
0.0
 11
106.0600974112
 21
-75.8985226281
 31
0.0
  0
LINE
  5
1A9
  8
0
  6
CONTINUOUS
 62
     7
 10
106.0600974112
 20
-75.8985226281
 30
0.0
 11
95.494587485
 21
-69.7985226281
 31
0.0
  0
LINE
  5
1AA
  8
0
  6
CONTINUOUS
 62
     7
 10
95.494587485
 20
-69.7985226281
 30
0.0
 11
91.954587485
 21
-75.9299824869
 31
0.0
  0
LINE
  5
1AB
  8
0
  6
CONTINUOUS
 62
     7
 10
159.5045689802
 20
-114.9299824869
 30
0.0
 11
170.0700789064
 21
-121.0299824869
 31
0.0
  0
LINE
  5
1AC
  8
0
  6
CONTINUOUS
 62
     7
 10
170.0700789064
 20
-121.0299824869
 30
0.0
 11
173.6100789064
 21
-114.8985226281
 31
0.0
  0
LINE
  5
1AD
  8
0
  6
CONTINUOUS
 62
     7
 10
173.6100789064
 20
-114.8985226281
 30
0.0
 11
163.0445689802
 21
-108.7985226281
 31
0.0
  0
LINE
  5
1AE
  8
0
  6
CONTINUOUS
 62
     7
 10
163.0445689802
 20
-108.7985226281
 30
0.0
 11
159.5045689802
 21
-114.9299824869
 31
0.0
  0
LINE
  5
1AF
  8
0
  6
CONTINUOUS
 62
     7
 10
189.8500789064
 20
-86.7700175131
 30
0.0
 11
179.2845689802
 21
-80.6700175131
 31
0.0
  0
LINE
  5
1B0
  8
0
  6
CONTINUOUS
 62
     7
 10
179.2845689802
 20
-80.6700175131
 30
0.0
 11
175.7445689802
 21
-86.8014773719
 31
0.0
  0
LINE
  5
1B1
  8
0
  6
CONTINUOUS
 62
     7
 10
175.7445689802
 20
-86.8014773719
 30
0.0
 11
186.3100789064
 21
-92.9014773719
 31
0.0
  0
LINE
  5
1B2
  8
0
  6
CONTINUOUS
 62
     7
 10
186.3100789064
 20
-92.9014773719
 30
0.0
 11
189.8500789064
 21
-86.7700175131
 31
0.0
  0
LINE
  5
1B3
  8
0
  6
CONTINUOUS
 62
     7
 10
160.8382278796
 20
-70.0200175131
 30
0.0
 11
150.2727179535
 21
-63.9200175131
 31
0.0
  0
LINE
  5
1B4
  8
0
  6
CONTINUOUS
 62
     7
 10
150.2727179535
 20
-63.9200175131
 30
0.0
 11
146.7327179535
 21
-70.0514773719
 31
0.0
  0
LINE
  5
1B5
  8
0
  6
CONTINUOUS
 62
     7
 10
146.7327179535
 20
-70.0514773719
 30
0.0
 11
157.2982278796
 21
-76.1514773719
 31
0.0
  0
LINE
  5
1B6
  8
0
  6
CONTINUOUS
 62
     7
 10
157.2982278796
 20
-76.1514773719
 30
0.0
 11
160.8382278796
 21
-70.0200175131
 31
0.0
  0
LINE
  5
1B7
  8
0
  6
CONTINUOUS
 62
     7
 10
-111.7345874851
 20
-41.6700175131
 30
0.0
 11
-122.3000974112
 21
-47.7700175131
 31
0.0
  0
LINE
  5
1B8
  8
0
  6
CONTINUOUS
 62
     7
 10
-122.3000974112
 20
-47.7700175131
 30
0.0
 11
-118.7600974112
 21
-53.9014773719
 31
0.0
  0
LINE
  5
1B9
  8
0
  6
CONTINUOUS
 62
     7
 10
-118.7600974112
 20
-53.9014773719
 30
0.0
 11
-108.1945874851
 21
-47.8014773719
 31
0.0
  0
LINE
  5
1BA
  8
0
  6
CONTINUOUS
 62
     7
 10
-108.1945874851
 20
-47.8014773719
 30
0.0
 11
-111.7345874851
 21
-41.6700175131
 31
0.0
  0
LINE
  5
1BB
  8
0
  6
CONTINUOUS
 62
     7
 10
-179.2845689802
 20
-80.6700175131
 30
0.0
 11
-189.8500789064
 21
-86.7700175131
 31
0.0
  0
LINE
  5
1BC
  8
0
  6
CONTINUOUS
 62
     7
 10
-189.8500789064
 20
-86.7700175131
 30
0.0
 11
-186.3100789064
 21
-92.9014773719
 31
0.0
  0
LINE
  5
1BD
  8
0
  6
CONTINUOUS
 62
     7
 10
-186.3100789064
 20
-92.9014773719
 30
0.0
 11
-175.7445689802
 21
-86.8014773719
 31
0.0
  0
LINE
  5
1BE
  8
0
  6
CONTINUOUS
 62
     7
 10
-175.7445689802
 20
-86.8014773719
 30
0.0
 11
-179.2845689802
 21
-80.6700175131
 31
0.0
  0
LINE
  5
1BF
  8
0
  6
CONTINUOUS
 62
     7
 10
-170.0700789064
 20
-121.0299824869
 30
0.0
 11
-159.5045689802
 21
-114.9299824869
 31
0.0
  0
LINE
  5
1C0
  8
0
  6
CONTINUOUS
 62
     7
 10
-159.5045689802
 20
-114.9299824869
 30
0.0
 11
-163.0445689802
 21
-108.7985226281
 31
0.0
  0
LINE
  5
1C1
  8
0
  6
CONTINUOUS
 62
     7
 10
-163.0445689802
 20
-108.7985226281
 30
0.0
 11
-173.6100789064
 21
-114.8985226281
 31
0.0
  0
LINE
  5
1C2
  8
0
  6
CONTINUOUS
 62
     7
 10
-173.6100789064
 20
-114.8985226281
 30
0.0
 11
-170.0700789064
 21
-121.0299824869
 31
0.0
  0
LINE
  5
1C3
  8
0
  6
CONTINUOUS
 62
     7
 10
-141.0582278796
 20
-104.2799824869
 30
0.0
 11
-130.4927179535
 21
-98.1799824869
 31
0.0
  0
LINE
  5
1C4
  8
0
  6
CONTINUOUS
 62
     7
 10
-130.4927179535
 20
-98.1799824869
 30
0.0
 11
-134.0327179535
 21
-92.0485226281
 31
0.0
  0
LINE
  5
1C5
  8
0
  6
CONTINUOUS
 62
     7
 10
-134.0327179535
 20
-92.0485226281
 30
0.0
 11
-144.5982278796
 21
-98.1485226281
 31
0.0
  0
LINE
  5
1C6
  8
0
  6
CONTINUOUS
 62
     7
 10
-144.5982278796
 20
-98.1485226281
 30
0.0
 11
-141.0582278796
 21
-104.2799824869
 31
0.0
  0
LINE
  5
1C7
  8
0
  6
CONTINUOUS
 62
     7
 10
-155.5363128631
 20
-87.9131730621
 30
0.0
 11
-155.5363128631
 21
-86.4884166985
 31
0.0
  0
LINE
  5
1C8
  8
0
  6
CONTINUOUS
 62
     7
 10
-155.7096558934
 20
-86.3820991227
 30
0.0
 11
-157.066572257
 21
-86.3820991227
 31
0.0
  0
LINE
  5
1C9
  8
0
  6
CONTINUOUS
 62
     7
 10
-156.0794983176
 20
-94.3523100318
 30
0.0
 11
-155.8494861964
 21
-94.3523100318
 31
0.0
  0
LINE
  5
1CA
  8
0
  6
CONTINUOUS
 62
     7
 10
159.4675795902
 20
-87.81991
 30
0.0
 11
159.3351965599
 21
-87.81991
 31
0.0
  0
LINE
  5
1CB
  8
0
  6
CONTINUOUS
 62
     7
 10
156.9998947417
 20
-89.6405742424
 30
0.0
 11
156.9998947417
 21
-87.9138154545
 31
0.0
  0
LINE
  5
1CC
  8
0
  6
CONTINUOUS
 62
     7
 10
154.8180765599
 20
-87.9436045455
 30
0.0
 11
154.8180765599
 21
-89.993039697
 31
0.0
  0
LINE
  5
1CD
  8
0
  6
CONTINUOUS
 62
     7
 10
161.6059553478
 20
-89.7977815152
 30
0.0
 11
161.6059553478
 21
-88.0226154545
 31
0.0
  0
LINE
  5
1CE
  8
0
  6
CONTINUOUS
 62
     7
 10
-2.8798804095
 20
184.9736136658
 30
0.0
 11
-0.5507846519
 21
184.9736136658
 31
0.0
  0
LINE
  5
1CF
  8
0
  6
CONTINUOUS
 62
     7
 10
32.5
 20
91.0
 30
0.0
 11
-32.5
 21
91.0
 31
0.0
  0
LINE
  5
1D0
  8
0
  6
CONTINUOUS
 62
     7
 10
-42.5
 20
81.0
 30
0.0
 11
-42.5
 21
59.9711431703
 31
0.0
  0
LINE
  5
1D1
  8
0
  6
CONTINUOUS
 62
     7
 10
-43.8397459622
 20
54.9711431703
 30
0.0
 11
-73.6602540378
 21
3.3205080757
 31
0.0
  0
LINE
  5
1D2
  8
0
  6
CONTINUOUS
 62
     7
 10
-75.0
 20
-1.6794919243
 30
0.0
 11
-75.0
 21
-134.0
 31
0.0
  0
LINE
  5
1D3
  8
0
  6
CONTINUOUS
 62
     7
 10
-65.0
 20
-144.0
 30
0.0
 11
65.0
 21
-144.0
 31
0.0
  0
LINE
  5
1D4
  8
0
  6
CONTINUOUS
 62
     7
 10
75.0
 20
-134.0
 30
0.0
 11
75.0
 21
-1.6794919243
 31
0.0
  0
LINE
  5
1D5
  8
0
  6
CONTINUOUS
 62
     7
 10
73.6602540378
 20
3.3205080757
 30
0.0
 11
43.8397459622
 21
54.9711431703
 31
0.0
  0
LINE
  5
1D6
  8
0
  6
CONTINUOUS
 62
     7
 10
42.5
 20
59.9711431703
 30
0.0
 11
42.5
 21
81.0
 31
0.0
  0
LINE
  5
1D7
  8
0
  6
CONTINUOUS
 62
     7
 10
-138.2073359714
 20
62.6178721187
 30
0.0
 11
-142.7073359714
 21
54.8236434846
 31
0.0
  0
LINE
  5
1D8
  8
0
  6
CONTINUOUS
 62
     7
 10
-142.7073359714
 20
54.8236434846
 30
0.0
 11
-122.3557389825
 21
43.0736434846
 31
0.0
  0
LINE
  5
1D9
  8
0
  6
CONTINUOUS
 62
     7
 10
-122.3557389825
 20
43.0736434846
 30
0.0
 11
-117.8557389825
 21
50.8678721187
 31
0.0
  0
LINE
  5
1DA
  8
0
  6
CONTINUOUS
 62
     7
 10
-117.8557389825
 20
50.8678721187
 30
0.0
 11
-138.2073359714
 21
62.6178721187
 31
0.0
  0
LINE
  5
1DB
  8
0
  6
CONTINUOUS
 62
     7
 10
-118.8323359714
 20
96.1763565153
 30
0.0
 11
-123.3323359714
 21
88.3821278813
 31
0.0
  0
LINE
  5
1DC
  8
0
  6
CONTINUOUS
 62
     7
 10
-123.3323359714
 20
88.3821278813
 30
0.0
 11
-102.9807389825
 21
76.6321278813
 31
0.0
  0
LINE
  5
1DD
  8
0
  6
CONTINUOUS
 62
     7
 10
-102.9807389825
 20
76.6321278813
 30
0.0
 11
-98.4807389825
 21
84.4263565153
 31
0.0
  0
LINE
  5
1DE
  8
0
  6
CONTINUOUS
 62
     7
 10
-98.4807389825
 20
84.4263565153
 30
0.0
 11
-118.8323359714
 21
96.1763565153
 31
0.0
  0
LINE
  5
1DF
  8
0
  6
CONTINUOUS
 62
     7
 10
-99.2361928011
 20
40.1178721187
 30
0.0
 11
-103.7361928011
 21
32.3236434846
 31
0.0
  0
LINE
  5
1E0
  8
0
  6
CONTINUOUS
 62
     7
 10
-103.7361928011
 20
32.3236434846
 30
0.0
 11
-83.3845958122
 21
20.5736434846
 31
0.0
  0
LINE
  5
1E1
  8
0
  6
CONTINUOUS
 62
     7
 10
-83.3845958122
 20
20.5736434846
 30
0.0
 11
-78.8845958122
 21
28.3678721187
 31
0.0
  0
LINE
  5
1E2
  8
0
  6
CONTINUOUS
 62
     7
 10
-78.8845958122
 20
28.3678721187
 30
0.0
 11
-99.2361928011
 21
40.1178721187
 31
0.0
  0
LINE
  5
1E3
  8
0
  6
CONTINUOUS
 62
     7
 10
-79.8611928011
 20
73.6763565153
 30
0.0
 11
-84.3611928011
 21
65.8821278813
 31
0.0
  0
LINE
  5
1E4
  8
0
  6
CONTINUOUS
 62
     7
 10
-84.3611928011
 20
65.8821278813
 30
0.0
 11
-64.0095958122
 21
54.1321278813
 31
0.0
  0
LINE
  5
1E5
  8
0
  6
CONTINUOUS
 62
     7
 10
-64.0095958122
 20
54.1321278813
 30
0.0
 11
-59.5095958122
 21
61.9263565153
 31
0.0
  0
LINE
  5
1E6
  8
0
  6
CONTINUOUS
 62
     7
 10
-59.5095958122
 20
61.9263565153
 30
0.0
 11
-79.8611928011
 21
73.6763565153
 31
0.0
  0
LINE
  5
1E7
  8
0
  6
CONTINUOUS
 62
     7
 10
53.3205080757
 20
156.7320508076
 30
0.0
 11
36.0
 21
166.7320508076
 31
0.0
  0
LINE
  5
1E8
  8
0
  6
CONTINUOUS
 62
     7
 10
34.0
 20
163.2679491924
 30
0.0
 11
51.3205080757
 21
153.2679491924
 31
0.0
  0
LINE
  5
1E9
  8
0
  6
CONTINUOUS
 62
     7
 10
53.3205080757
 20
141.7320508076
 30
0.0
 11
36.0
 21
151.7320508076
 31
0.0
  0
LINE
  5
1EA
  8
0
  6
CONTINUOUS
 62
     7
 10
34.0
 20
148.2679491924
 30
0.0
 11
51.3205080757
 21
138.2679491924
 31
0.0
  0
LINE
  5
1EB
  8
0
  6
CONTINUOUS
 62
     7
 10
-162.3941916244
 20
-32.1891108675
 30
0.0
 11
-162.3941916244
 21
-52.1891108675
 31
0.0
  0
LINE
  5
1EC
  8
0
  6
CONTINUOUS
 62
     7
 10
-158.3941916244
 20
-52.1891108675
 30
0.0
 11
-158.3941916244
 21
-32.1891108675
 31
0.0
  0
LINE
  5
1ED
  8
0
  6
CONTINUOUS
 62
     7
 10
-149.4038105677
 20
-24.6891108675
 30
0.0
 11
-149.4038105677
 21
-44.6891108675
 31
0.0
  0
LINE
  5
1EE
  8
0
  6
CONTINUOUS
 62
     7
 10
-145.4038105677
 20
-44.6891108675
 30
0.0
 11
-145.4038105677
 21
-24.6891108675
 31
0.0
  0
LINE
  5
1EF
  8
0
  6
CONTINUOUS
 62
     7
 10
109.0736835487
 20
-124.54293994
 30
0.0
 11
126.3941916244
 21
-114.54293994
 31
0.0
  0
LINE
  5
1F0
  8
0
  6
CONTINUOUS
 62
     7
 10
124.3941916244
 20
-111.0788383249
 30
0.0
 11
107.0736835487
 21
-121.0788383249
 31
0.0
  0
LINE
  5
1F1
  8
0
  6
CONTINUOUS
 62
     7
 10
96.083302492
 20
-117.04293994
 30
0.0
 11
113.4038105677
 21
-107.04293994
 31
0.0
  0
LINE
  5
1F2
  8
0
  6
CONTINUOUS
 62
     7
 10
111.4038105677
 20
-103.5788383249
 30
0.0
 11
94.083302492
 21
-113.5788383249
 31
0.0
  0
ARC
  5
1F3
  8
0
  6
CONTINUOUS
 62
     7
 10
0.0
 20
55.0
 30
0.0
 40
164.9999999999985
 50
47.3414428028
 51
132.6585571972
  0
ARC
  5
1F4
  8
0
  6
CONTINUOUS
 62
     7
 10
47.6313972081
 20
-27.5
 30
0.0
 40
164.9999999999981
 50
287.3414428028
 51
12.6585571972
  0
ARC
  5
1F5
  8
0
  6
CONTINUOUS
 62
     7
 10
-47.6313972081
 20
-27.5
 30
0.0
 40
164.9999999999983
 50
167.3414428028
 51
252.6585571972
  0
ARC
  5
1F6
  8
0
  6
CONTINUOUS
 62
     7
 10
-296.5171878342
 20
-204.3952274297
 30
0.0
 40
179.8190476186358
 50
38.3703078704
 51
38.8798576382
  0
ARC
  5
1F7
  8
0
  6
CONTINUOUS
 62
     7
 10
-154.5566275637
 20
-89.2238237912
 30
0.0
 40
3.034187917336139
 50
202.0870230863
 51
229.3164109203
  0
ARC
  5
1F8
  8
0
  6
CONTINUOUS
 62
     7
 10
-40.5942801506
 20
-175.7097883496
 30
0.0
 40
144.6371893394371
 50
142.6261840235
 51
143.8385149444
  0
ARC
  5
1F9
  8
0
  6
CONTINUOUS
 62
     7
 10
-155.6328145478
 20
-88.3235944238
 30
0.0
 40
2.413517178899515
 50
126.4451693897
 51
158.5433505866
  0
ARC
  5
1FA
  8
0
  6
CONTINUOUS
 62
     7
 10
-163.8136129144
 20
-84.0557713346
 30
0.0
 40
6.832048420276451
 50
318.1736202116
 51
330.3003113528
  0
ARC
  5
1FB
  8
0
  6
CONTINUOUS
 62
     7
 10
-201.4065399867
 20
-119.7608869194
 30
0.0
 40
52.8410805113541
 50
36.1204233188
 51
39.0812768586
  0
ARC
  5
1FC
  8
0
  6
CONTINUOUS
 62
     7
 10
-162.6334409214
 20
-91.4037621876
 30
0.0
 40
2.769151366019762
 50
21.7887552145
 51
50.6020403929
  0
ARC
  5
1FD
  8
0
  6
CONTINUOUS
 62
     7
 10
-162.9258396845
 20
-89.2503581308
 30
0.0
 40
3.076964671964098
 50
311.6843770001
 51
338.543550695
  0
ARC
  5
1FE
  8
0
  6
CONTINUOUS
 62
     7
 10
-160.4428409426
 20
-93.378162647
 30
0.0
 40
1.53908656944802
 50
157.4413048158
 51
189.2771254967
  0
ARC
  5
1FF
  8
0
  6
CONTINUOUS
 62
     7
 10
-160.6641778716
 20
-93.5964541524
 30
0.0
 40
0.8501670167341254
 50
262.206421087
 51
292.4659754639
  0
ARC
  5
200
  8
0
  6
CONTINUOUS
 62
     7
 10
-163.093721129
 20
-91.4715592921
 30
0.0
 40
4.007253479876981
 50
313.4214098492
 51
331.9803338221
  0
ARC
  5
201
  8
0
  6
CONTINUOUS
 62
     7
 10
-152.3784252528
 20
-97.6037582534
 30
0.0
 40
8.341459299611998
 50
139.3560214328
 51
149.3717079078
  0
ARC
  5
202
  8
0
  6
CONTINUOUS
 62
     7
 10
-136.8575210262
 20
-77.0661747326
 30
0.0
 40
26.56257078136964
 50
214.6548580665
 51
220.546842111
  0
ARC
  5
203
  8
0
  6
CONTINUOUS
 62
     7
 10
-155.7806598425
 20
-93.9281709312
 30
0.0
 40
0.4296871462871814
 50
260.7827818421
 51
315.1709182269
  0
ARC
  5
204
  8
0
  6
CONTINUOUS
 62
     7
 10
-156.7212989558
 20
-93.3300595887
 30
0.0
 40
1.308937136558609
 50
347.7000638676
 51
25.1357351488
  0
ARC
  5
205
  8
0
  6
CONTINUOUS
 62
     7
 10
157.6895336264
 20
-89.1184857263
 30
0.0
 40
1.818035706109105
 50
310.2926483643
 51
342.5747826501
  0
ARC
  5
206
  8
0
  6
CONTINUOUS
 62
     7
 10
158.6974445292
 20
-89.2151882332
 30
0.0
 40
1.750036724685113
 50
194.0679600374
 51
227.3075051463
  0
ARC
  5
207
  8
0
  6
CONTINUOUS
 62
     7
 10
156.8986275705
 20
-87.9154840122
 30
0.0
 40
0.1012809165045758
 50
0.9439649819
 51
101.3573173158
  0
ARC
  5
208
  8
0
  6
CONTINUOUS
 62
     7
 10
155.5845312703
 20
-89.9242617977
 30
0.0
 40
0.7695344192509792
 50
185.1277091818
 51
214.1884561622
  0
ARC
  5
209
  8
0
  6
CONTINUOUS
 62
     7
 10
157.14330526
 20
-95.5713115368
 30
0.0
 40
0.1435461185084796
 50
177.5093861646
 51
271.0481526997
  0
ARC
  5
20A
  8
0
  6
CONTINUOUS
 62
     7
 10
159.1811664401
 20
-94.9392330592
 30
0.0
 40
0.7761460798620042
 50
272.1482744785
 51
282.7586012732
  0
ARC
  5
20B
  8
0
  6
CONTINUOUS
 62
     7
 10
159.3166187183
 20
-95.5928648637
 30
0.0
 40
0.109426199239114
 50
289.1823608705
 51
10.7144743925
  0
ARC
  5
20C
  8
0
  6
CONTINUOUS
 62
     7
 10
160.0496386295
 20
-93.8251791757
 30
0.0
 40
0.7489959976962245
 50
141.4523827416
 51
175.5259035687
  0
ARC
  5
20D
  8
0
  6
CONTINUOUS
 62
     7
 10
-0.3205684082
 20
180.5067106977
 30
0.0
 40
0.1043062803586941
 50
81.9035844791
 51
133.4062535263
  0
ARC
  5
20E
  8
0
  6
CONTINUOUS
 62
     7
 10
2.136805756
 20
186.5826792184
 30
0.0
 40
0.2101959641146098
 50
10.6045742799
 51
84.1901788791
  0
ARC
  5
20F
  8
0
  6
CONTINUOUS
 62
     7
 10
178.925885285
 20
158.9663417099
 30
0.0
 40
183.7944025532594
 50
171.3101254815
 51
171.8254953043
  0
ARC
  5
210
  8
0
  6
CONTINUOUS
 62
     7
 10
-2.8893849111
 20
185.0857929505
 30
0.0
 40
0.1125812038184182
 50
172.8576962319
 51
274.8428759192
  0
ARC
  5
211
  8
0
  6
CONTINUOUS
 62
     7
 10
84.7484565021
 20
131.7857280992
 30
0.0
 40
100.3658908349751
 50
148.0517809828
 51
151.1047063905
  0
ARC
  5
212
  8
0
  6
CONTINUOUS
 62
     7
 10
6.5627457204
 20
180.9950270766
 30
0.0
 40
9.711146250360578
 50
184.2013188363
 51
186.1497630165
  0
ARC
  5
213
  8
0
  6
CONTINUOUS
 62
     7
 10
2.188608848
 20
344.9168267226
 30
0.0
 40
166.1986809667998
 50
268.29421042
 51
269.3110263654
  0
ARC
  5
214
  8
0
  6
CONTINUOUS
 62
     7
 10
2.2748808568
 20
178.8620015586
 30
0.0
 40
0.1914265796528156
 50
269.463758602
 51
338.8833470129
  0
ARC
  5
215
  8
0
  6
CONTINUOUS
 62
     7
 10
32.5
 20
81.0
 30
0.0
 40
10.00000000000002
 50
0.0
 51
90.0
  0
ARC
  5
216
  8
0
  6
CONTINUOUS
 62
     7
 10
-32.5
 20
81.0
 30
0.0
 40
10.00000000000001
 50
90.0
 51
180.0
  0
ARC
  5
217
  8
0
  6
CONTINUOUS
 62
     7
 10
-52.5
 20
59.9711431703
 30
0.0
 40
10.00000000000025
 50
330.0
 51
0.0
  0
ARC
  5
218
  8
0
  6
CONTINUOUS
 62
     7
 10
-65.0
 20
-1.6794919243
 30
0.0
 40
9.999999999999986
 50
150.0
 51
180.0
  0
ARC
  5
219
  8
0
  6
CONTINUOUS
 62
     7
 10
-65.0
 20
-134.0
 30
0.0
 40
10.00000000000003
 50
180.0
 51
270.0
  0
ARC
  5
21A
  8
0
  6
CONTINUOUS
 62
     7
 10
65.0
 20
-134.0
 30
0.0
 40
10.00000000000009
 50
270.0
 51
0.0
  0
ARC
  5
21B
  8
0
  6
CONTINUOUS
 62
     7
 10
65.0
 20
-1.6794919243
 30
0.0
 40
9.999999999999702
 50
0.0
 51
30.0
  0
ARC
  5
21C
  8
0
  6
CONTINUOUS
 62
     7
 10
52.5
 20
59.9711431703
 30
0.0
 40
10.00000000000004
 50
180.0
 51
210.0
  0
ARC
  5
21D
  8
0
  6
CONTINUOUS
 62
     7
 10
35.0
 20
165.0
 30
0.0
 40
2.000000000000006
 50
60.0
 51
240.0
  0
ARC
  5
21E
  8
0
  6
CONTINUOUS
 62
     7
 10
52.3205080757
 20
155.0
 30
0.0
 40
2.000000000000024
 50
240.0
 51
60.0
  0
ARC
  5
21F
  8
0
  6
CONTINUOUS
 62
     7
 10
35.0
 20
150.0
 30
0.0
 40
2.000000000000006
 50
60.0
 51
240.0
  0
ARC
  5
220
  8
0
  6
CONTINUOUS
 62
     7
 10
52.3205080757
 20
140.0
 30
0.0
 40
2.00000000000002
 50
240.0
 51
60.0
  0
ARC
  5
221
  8
0
  6
CONTINUOUS
 62
     7
 10
-160.3941916244
 20
-52.1891108675
 30
0.0
 40
2.0
 50
180.0
 51
0.0
  0
ARC
  5
222
  8
0
  6
CONTINUOUS
 62
     7
 10
-160.3941916244
 20
-32.1891108675
 30
0.0
 40
2.0
 50
0.0
 51
180.0
  0
ARC
  5
223
  8
0
  6
CONTINUOUS
 62
     7
 10
-147.4038105677
 20
-44.6891108675
 30
0.0
 40
2.000000000000028
 50
180.0
 51
0.0
  0
ARC
  5
224
  8
0
  6
CONTINUOUS
 62
     7
 10
-147.4038105677
 20
-24.6891108675
 30
0.0
 40
2.0
 50
0.0
 51
180.0
  0
ARC
  5
225
  8
0
  6
CONTINUOUS
 62
     7
 10
125.3941916244
 20
-112.8108891325
 30
0.0
 40
2.000000000000016
 50
300.0
 51
120.0
  0
ARC
  5
226
  8
0
  6
CONTINUOUS
 62
     7
 10
108.0736835487
 20
-122.8108891325
 30
0.0
 40
1.999999999999983
 50
120.0
 51
300.0
  0
ARC
  5
227
  8
0
  6
CONTINUOUS
 62
     7
 10
112.4038105677
 20
-105.3108891325
 30
0.0
 40
2.000000000000034
 50
300.0
 51
120.0
  0
ARC
  5
228
  8
0
  6
CONTINUOUS
 62
     7
 10
95.083302492
 20
-115.3108891325
 30
0.0
 40
2.000000000000003
 50
120.0
 51
300.0
  0
ENDSEC
  0
EOF
