  0
SECTION
  2
HEADER
  9
$ACADVER
  1
AC1009
  9
$DWGCODEPAGE
  3
ansi_1252
  9
$INSBASE
 10
0.0
 20
0.0
 30
0.0
  9
$EXTMIN
 10
-212.6313972081
 20
-185.0
 30
0.0
  9
$EXTMAX
 10
212.6313972081
 20
220.0
 30
0.0
  9
$LIMMIN
 10
0.0
 20
0.0
  9
$LIMMAX
 10
420.0
 20
297.0
  9
$ORTHOMODE
 70
     0
  9
$REGENMODE
 70
     1
  9
$FILLMODE
 70
     1
  9
$QTEXTMODE
 70
     0
  9
$MIRRTEXT
 70
     1
  9
$DRAGMODE
 70
     2
  9
$LTSCALE
 40
1.0
  9
$OSMODE
 70
    37
  9
$ATTMODE
 70
     1
  9
$TEXTSIZE
 40
3.5
  9
$TRACEWID
 40
1.0
  9
$TEXTSTYLE
  7
STANDARD
  9
$CLAYER
  8
0
  9
$CELTYPE
  6
BYLAYER
  9
$CECOLOR
 62
   256
  9
$DIMSCALE
 40
1.0
  9
$DIMASZ
 40
3.302
  9
$DIMEXO
 40
1.0
  9
$DIMDLI
 40
3.75
  9
$DIMRND
 40
0.0
  9
$DIMDLE
 40
0.0
  9
$DIMEXE
 40
1.0
  9
$DIMTP
 40
0.0
  9
$DIMTM
 40
0.0
  9
$DIMTXT
 40
3.5
  9
$DIMCEN
 40
2.5
  9
$DIMTSZ
 40
0.0
  9
$DIMTOL
 70
     0
  9
$DIMLIM
 70
     0
  9
$DIMTIH
 70
     1
  9
$DIMTOH
 70
     1
  9
$DIMSE1
 70
     0
  9
$DIMSE2
 70
     0
  9
$DIMTAD
 70
     1
  9
$DIMZIN
 70
     0
  9
$DIMBLK
  1

  9
$DIMASO
 70
     1
  9
$DIMSHO
 70
     1
  9
$DIMPOST
  1

  9
$DIMAPOST
  1

  9
$DIMALT
 70
     0
  9
$DIMALTD
 70
     3
  9
$DIMALTF
 40
0.0393700787
  9
$DIMLFAC
 40
1.0
  9
$DIMTOFL
 70
     1
  9
$DIMTVP
 40
0.0
  9
$DIMTIX
 70
     0
  9
$DIMSOXD
 70
     0
  9
$DIMSAH
 70
     0
  9
$DIMBLK1
  1

  9
$DIMBLK2
  1

  9
$DIMSTYLE
  2
ISO-25
  9
$DIMCLRD
 70
     0
  9
$DIMCLRE
 70
     0
  9
$DIMCLRT
 70
     0
  9
$DIMTFAC
 40
1.0
  9
$DIMGAP
 40
1.524
  9
$LUNITS
 70
     2
  9
$LUPREC
 70
     4
  9
$SKETCHINC
 40
1.0
  9
$FILLETRAD
 40
10.0
  9
$AUNITS
 70
     0
  9
$AUPREC
 70
     2
  9
$MENU
  1
.
  9
$ELEVATION
 40
0.0
  9
$PELEVATION
 40
0.0
  9
$THICKNESS
 40
0.0
  9
$LIMCHECK
 70
     0
  9
$CHAMFERA
 40
0.0
  9
$CHAMFERB
 40
0.0
  9
$SKPOLY
 70
     0
  9
$TDCREATE
 40
2457620.385371921
  9
$TDUPDATE
 40
2457620.385402535
  9
$TDINDWG
 40
0.0000000116
  9
$TDUSRTIMER
 40
0.0000000116
  9
$USRTIMER
 70
     1
  9
$ANGBASE
 50
0.0
  9
$ANGDIR
 70
     0
  9
$PDMODE
 70
     0
  9
$PDSIZE
 40
-1.0
  9
$PLINEWID
 40
0.0
  9
$COORDS
 70
     1
  9
$SPLFRAME
 70
     0
  9
$SPLINETYPE
 70
     6
  9
$SPLINESEGS
 70
     8
  9
$ATTDIA
 70
     0
  9
$ATTREQ
 70
     1
  9
$HANDLING
 70
     1
  9
$HANDSEED
  5
340
  9
$SURFTAB1
 70
     6
  9
$SURFTAB2
 70
     6
  9
$SURFTYPE
 70
     6
  9
$SURFU
 70
     6
  9
$SURFV
 70
     6
  9
$UCSNAME
  2

  9
$UCSORG
 10
0.0
 20
0.0
 30
0.0
  9
$UCSXDIR
 10
1.0
 20
0.0
 30
0.0
  9
$UCSYDIR
 10
0.0
 20
1.0
 30
0.0
  9
$PUCSNAME
  2

  9
$PUCSORG
 10
0.0
 20
0.0
 30
0.0
  9
$PUCSXDIR
 10
1.0
 20
0.0
 30
0.0
  9
$PUCSYDIR
 10
0.0
 20
1.0
 30
0.0
  9
$USERI1
 70
     0
  9
$USERI2
 70
     0
  9
$USERI3
 70
     0
  9
$USERI4
 70
     0
  9
$USERI5
 70
     0
  9
$USERR1
 40
0.0
  9
$USERR2
 40
0.0
  9
$USERR3
 40
0.0
  9
$USERR4
 40
0.0
  9
$USERR5
 40
0.0
  9
$WORLDVIEW
 70
     1
  9
$SHADEDGE
 70
     3
  9
$SHADEDIF
 70
    70
  9
$TILEMODE
 70
     1
  9
$MAXACTVP
 70
    64
  9
$PLIMCHECK
 70
     0
  9
$PEXTMIN
 10
1.0000000000E+20
 20
1.0000000000E+20
 30
1.0000000000E+20
  9
$PEXTMAX
 10
-1.0000000000E+20
 20
-1.0000000000E+20
 30
-1.0000000000E+20
  9
$PLIMMIN
 10
0.0
 20
0.0
  9
$PLIMMAX
 10
420.0
 20
297.0
  9
$UNITMODE
 70
     0
  9
$VISRETAIN
 70
     1
  9
$PLINEGEN
 70
     0
  9
$PSLTSCALE
 70
     1
  0
ENDSEC
  0
SECTION
  2
TABLES
  0
TABLE
  2
VPORT
 70
     1
  0
VPORT
  2
*ACTIVE
 70
     0
 10
0.0
 20
0.0
 11
1.0
 21
1.0
 12
0.0
 22
17.5
 13
0.0
 23
0.0
 14
10.0
 24
10.0
 15
10.0
 25
10.0
 16
0.0
 26
0.0
 36
1.0
 17
0.0
 27
0.0
 37
0.0
 40
413.1
 41
1.0500315912
 42
50.0
 43
0.0
 44
0.0
 50
0.0
 51
0.0
 71
     0
 72
   100
 73
     1
 74
     3
 75
     0
 76
     0
 77
     0
 78
     0
  0
ENDTAB
  0
TABLE
  2
LTYPE
 70
     6
  0
LTYPE
  2
CONTINUOUS
 70
     0
  3
Solid line
 72
    65
 73
     0
 40
0.0
  0
LTYPE
  2
HIDDEN
 70
     0
  3
Hidden __ __ __ __ __ __ __ __ __ __ __ __ __ __
 72
    65
 73
     2
 40
1.905
 49
1.27
 49
-0.635
  0
LTYPE
  2
PHANTOM
 70
     0
  3
Phantom ______  __  __  ______  __  __  ______
 72
    65
 73
     6
 40
12.7
 49
6.35
 49
-1.27
 49
1.27
 49
-1.27
 49
1.27
 49
-1.27
  0
LTYPE
  2
CENTER
 70
     0
  3
Center ____ _ ____ _ ____ _ ____ _ ____ _ ____
 72
    65
 73
     4
 40
10.16
 49
6.35
 49
-1.27
 49
1.27
 49
-1.27
  0
LTYPE
  2
CENTERX2
 70
     0
  3
Center (2x) ________  __  ________  __  _____
 72
    65
 73
     4
 40
20.32
 49
12.7
 49
-2.54
 49
2.54
 49
-2.54
  0
LTYPE
  2
DOT2
 70
     0
  3
Dot (.5x) ........................................
 72
    65
 73
     2
 40
0.635
 49
0.0
 49
-0.635
  0
ENDTAB
  0
TABLE
  2
LAYER
 70
     1
  0
LAYER
  2
0
 70
     0
 62
     7
  6
CONTINUOUS
  0
ENDTAB
  0
TABLE
  2
STYLE
 70
     1
  0
STYLE
  2
STANDARD
 70
     0
 40
0.0
 41
1.0
 50
0.0
 71
     0
 42
3.5
  3
txt
  4

  0
ENDTAB
  0
TABLE
  2
VIEW
 70
     0
  0
ENDTAB
  0
TABLE
  2
UCS
 70
     0
  0
ENDTAB
  0
TABLE
  2
APPID
 70
     1
  0
APPID
  2
ACAD
 70
     0
  0
ENDTAB
  0
TABLE
  2
DIMSTYLE
 70
     1
  0
DIMSTYLE
  2
ISO-25
 70
     0
  3

  4

  5

  6

  7

 40
1.0
 41
2.5
 42
0.625
 43
3.75
 44
1.25
 45
0.0
 46
0.0
 47
0.0
 48
0.0
140
2.5
141
2.5
142
0.0
143
0.0393700787
144
1.0
145
0.0
146
1.0
147
0.625
 71
     0
 72
     0
 73
     0
 74
     0
 75
     0
 76
     0
 77
     1
 78
     8
170
     0
171
     3
172
     1
173
     0
174
     0
175
     0
176
     0
177
     0
178
     0
  0
ENDTAB
  0
ENDSEC
  0
SECTION
  2
BLOCKS
  0
BLOCK
  8
0
  2
$MODEL_SPACE
 70
     0
 10
0.0
 20
0.0
 30
0.0
  3
$MODEL_SPACE
  1

  0
ENDBLK
  5
21
  8
0
  0
BLOCK
 67
     1
  8
0
  2
$PAPER_SPACE
 70
     0
 10
0.0
 20
0.0
 30
0.0
  3
$PAPER_SPACE
  1

  0
ENDBLK
  5
1D
 67
     1
  8
0
  0
ENDSEC
  0
SECTION
  2
ENTITIES
  0
CIRCLE
  5
73
  8
0
  6
CONTINUOUS
 62
     7
 10
0.0
 20
0.0
 30
0.0
 40
5.000000000000002
  0
CIRCLE
  5
7E
  8
0
  6
CONTINUOUS
 62
     7
 10
-104.6145487578
 20
164.3222863406
 30
0.0
 40
1.77500000000002
  0
CIRCLE
  5
7F
  8
0
  6
CONTINUOUS
 62
     7
 10
-194.6145487578
 20
8.4377136594
 30
0.0
 40
1.775000000000034
  0
CIRCLE
  5
88
  8
0
  6
CONTINUOUS
 62
     7
 10
-90.0
 20
-172.76
 30
0.0
 40
1.774999999999997
  0
CIRCLE
  5
89
  8
0
  6
CONTINUOUS
 62
     7
 10
90.0
 20
-172.76
 30
0.0
 40
1.775000000000021
  0
CIRCLE
  5
92
  8
0
  6
CONTINUOUS
 62
     7
 10
194.6145487578
 20
8.4377136594
 30
0.0
 40
1.77500000000001
  0
CIRCLE
  5
93
  8
0
  6
CONTINUOUS
 62
     7
 10
104.6145487578
 20
164.3222863406
 30
0.0
 40
1.775000000000007
  0
CIRCLE
  5
9C
  8
0
  6
CONTINUOUS
 62
     7
 10
-16.14
 20
184.95
 30
0.0
 40
1.77500000000002
  0
CIRCLE
  5
9D
  8
0
  6
CONTINUOUS
 62
     7
 10
16.14
 20
184.95
 30
0.0
 40
1.774999999999979
  0
CIRCLE
  5
AE
  8
0
  6
CONTINUOUS
 62
     7
 10
-152.1013984299
 20
-106.4526500171
 30
0.0
 40
1.77500000000003
  0
CIRCLE
  5
AF
  8
0
  6
CONTINUOUS
 62
     7
 10
-168.2413984299
 20
-78.4973499829
 30
0.0
 40
1.774999999999986
  0
CIRCLE
  5
C0
  8
0
  6
CONTINUOUS
 62
     7
 10
168.2413984299
 20
-78.4973499829
 30
0.0
 40
1.775000000000035
  0
CIRCLE
  5
C1
  8
0
  6
CONTINUOUS
 62
     7
 10
152.1013984299
 20
-106.4526500171
 30
0.0
 40
1.775000000000013
  0
CIRCLE
  5
D2
  8
0
  6
CONTINUOUS
 62
     7
 10
-154.0667286475
 20
-122.769878732
 30
0.0
 40
2.549999999999955
  0
CIRCLE
  5
D3
  8
0
  6
CONTINUOUS
 62
     7
 10
-183.3551981252
 20
-72.0407615207
 30
0.0
 40
2.549999999999983
  0
CIRCLE
  5
D4
  8
0
  6
CONTINUOUS
 62
     7
 10
183.3551981252
 20
-72.0407615207
 30
0.0
 40
2.549999999999983
  0
CIRCLE
  5
D5
  8
0
  6
CONTINUOUS
 62
     7
 10
154.0667286475
 20
-122.769878732
 30
0.0
 40
2.550000000000022
  0
CIRCLE
  5
D6
  8
0
  6
CONTINUOUS
 62
     7
 10
-29.2884694777
 20
194.8106402527
 30
0.0
 40
2.549999999999985
  0
CIRCLE
  5
D7
  8
0
  6
CONTINUOUS
 62
     7
 10
29.2884694777
 20
194.8106402527
 30
0.0
 40
2.55000000000002
  0
POLYLINE
  5
DB
  8
0
  6
CONTINUOUS
 62
     7
 66
     1
 10
0.0
 20
0.0
 30
0.0
 70
   128
  0
VERTEX
  5
26F
  8
0
  6
CONTINUOUS
 62
     7
 10
-142.757376825
 20
-80.1758077719
 30
0.0
  0
VERTEX
  5
270
  8
0
  6
CONTINUOUS
 62
     7
 10
-142.7606149211
 20
-80.1487317318
 30
0.0
  0
VERTEX
  5
271
  8
0
  6
CONTINUOUS
 62
     7
 10
-142.7703292092
 20
-80.1256277754
 30
0.0
  0
VERTEX
  5
272
  8
0
  6
CONTINUOUS
 62
     7
 10
-142.7930769827
 20
-80.1012062819
 30
0.0
  0
VERTEX
  5
273
  8
0
  6
CONTINUOUS
 62
     7
 10
-142.8271156869
 20
-80.0837099262
 30
0.0
  0
VERTEX
  5
274
  8
0
  6
CONTINUOUS
 62
     7
 10
-142.8724453219
 20
-80.0731387084
 30
0.0
  0
VERTEX
  5
275
  8
0
  6
CONTINUOUS
 62
     7
 10
-142.9307198554
 20
-80.069490197
 30
0.0
  0
SEQEND
  5
318
  8
0
  6
CONTINUOUS
 62
     7
  0
POLYLINE
  5
E0
  8
0
  6
CONTINUOUS
 62
     7
 66
     1
 10
0.0
 20
0.0
 30
0.0
 70
   128
  0
VERTEX
  5
276
  8
0
  6
CONTINUOUS
 62
     7
 10
-147.6095853099
 20
-80.1360889848
 30
0.0
  0
VERTEX
  5
277
  8
0
  6
CONTINUOUS
 62
     7
 10
-147.9530262835
 20
-80.1452163623
 30
0.0
  0
VERTEX
  5
278
  8
0
  6
CONTINUOUS
 62
     7
 10
-148.2379877341
 20
-80.1509835303
 30
0.0
  0
SEQEND
  5
319
  8
0
  6
CONTINUOUS
 62
     7
  0
POLYLINE
  5
E1
  8
0
  6
CONTINUOUS
 62
     7
 66
     1
 10
0.0
 20
0.0
 30
0.0
 70
   128
  0
VERTEX
  5
279
  8
0
  6
CONTINUOUS
 62
     7
 10
-148.2379877341
 20
-80.1509835303
 30
0.0
  0
VERTEX
  5
27A
  8
0
  6
CONTINUOUS
 62
     7
 10
-148.6598974523
 20
-80.1372924642
 30
0.0
  0
VERTEX
  5
27B
  8
0
  6
CONTINUOUS
 62
     7
 10
-148.971466522
 20
-80.1286417121
 30
0.0
  0
SEQEND
  5
31A
  8
0
  6
CONTINUOUS
 62
     7
  0
POLYLINE
  5
E2
  8
0
  6
CONTINUOUS
 62
     7
 66
     1
 10
0.0
 20
0.0
 30
0.0
 70
   128
  0
VERTEX
  5
27C
  8
0
  6
CONTINUOUS
 62
     7
 10
-148.9714665089
 20
-80.128641712
 30
0.0
  0
VERTEX
  5
27D
  8
0
  6
CONTINUOUS
 62
     7
 10
-149.0743400964
 20
-80.1375864427
 30
0.0
  0
VERTEX
  5
27E
  8
0
  6
CONTINUOUS
 62
     7
 10
-149.1189164495
 20
-80.1511775465
 30
0.0
  0
VERTEX
  5
27F
  8
0
  6
CONTINUOUS
 62
     7
 10
-149.1517721522
 20
-80.1709386588
 30
0.0
  0
VERTEX
  5
280
  8
0
  6
CONTINUOUS
 62
     7
 10
-149.1729072045
 20
-80.1968697795
 30
0.0
  0
VERTEX
  5
281
  8
0
  6
CONTINUOUS
 62
     7
 10
-149.1803721471
 20
-80.2170870545
 30
0.0
  0
VERTEX
  5
282
  8
0
  6
CONTINUOUS
 62
     7
 10
-149.1828604612
 20
-80.2399241363
 30
0.0
  0
SEQEND
  5
31B
  8
0
  6
CONTINUOUS
 62
     7
  0
POLYLINE
  5
E3
  8
0
  6
CONTINUOUS
 62
     7
 66
     1
 10
0.0
 20
0.0
 30
0.0
 70
   128
  0
VERTEX
  5
283
  8
0
  6
CONTINUOUS
 62
     7
 10
-149.1828604614
 20
-80.2399241363
 30
0.0
  0
VERTEX
  5
284
  8
0
  6
CONTINUOUS
 62
     7
 10
-149.1412881094
 20
-80.6212564612
 30
0.0
  0
VERTEX
  5
285
  8
0
  6
CONTINUOUS
 62
     7
 10
-149.1150204614
 20
-80.9018392879
 30
0.0
  0
SEQEND
  5
31C
  8
0
  6
CONTINUOUS
 62
     7
  0
POLYLINE
  5
E4
  8
0
  6
CONTINUOUS
 62
     7
 66
     1
 10
0.0
 20
0.0
 30
0.0
 70
   128
  0
VERTEX
  5
286
  8
0
  6
CONTINUOUS
 62
     7
 10
-149.1150204614
 20
-80.9018392878
 30
0.0
  0
VERTEX
  5
287
  8
0
  6
CONTINUOUS
 62
     7
 10
-149.115620622
 20
-80.9367957672
 30
0.0
  0
VERTEX
  5
288
  8
0
  6
CONTINUOUS
 62
     7
 10
-149.1261913709
 20
-81.1603992939
 30
0.0
  0
SEQEND
  5
31D
  8
0
  6
CONTINUOUS
 62
     7
  0
POLYLINE
  5
E6
  8
0
  6
CONTINUOUS
 62
     7
 66
     1
 10
0.0
 20
0.0
 30
0.0
 70
   128
  0
VERTEX
  5
289
  8
0
  6
CONTINUOUS
 62
     7
 10
-149.1261913707
 20
-81.4942465554
 30
0.0
  0
VERTEX
  5
28A
  8
0
  6
CONTINUOUS
 62
     7
 10
-149.1235190046
 20
-81.5362837393
 30
0.0
  0
VERTEX
  5
28B
  8
0
  6
CONTINUOUS
 62
     7
 10
-149.0852313704
 20
-81.7341883787
 30
0.0
  0
SEQEND
  5
31E
  8
0
  6
CONTINUOUS
 62
     7
  0
POLYLINE
  5
EA
  8
0
  6
CONTINUOUS
 62
     7
 66
     1
 10
0.0
 20
0.0
 30
0.0
 70
   128
  0
VERTEX
  5
28C
  8
0
  6
CONTINUOUS
 62
     7
 10
-148.1006398553
 20
-85.2356865606
 30
0.0
  0
VERTEX
  5
28D
  8
0
  6
CONTINUOUS
 62
     7
 10
-149.0222980372
 20
-86.3962538333
 30
0.0
  0
VERTEX
  5
28E
  8
0
  6
CONTINUOUS
 62
     7
 10
-149.0809489463
 20
-86.4698365606
 30
0.0
  0
VERTEX
  5
28F
  8
0
  6
CONTINUOUS
 62
     7
 10
-149.0840444008
 20
-86.473678606
 30
0.0
  0
VERTEX
  5
290
  8
0
  6
CONTINUOUS
 62
     7
 10
-149.0852313705
 20
-86.4751144394
 30
0.0
  0
SEQEND
  5
31F
  8
0
  6
CONTINUOUS
 62
     7
  0
POLYLINE
  5
EC
  8
0
  6
CONTINUOUS
 62
     7
 66
     1
 10
0.0
 20
0.0
 30
0.0
 70
   128
  0
VERTEX
  5
291
  8
0
  6
CONTINUOUS
 62
     7
 10
-149.1828604614
 20
-87.3136695909
 30
0.0
  0
VERTEX
  5
292
  8
0
  6
CONTINUOUS
 62
     7
 10
-149.1254165978
 20
-87.9195730757
 30
0.0
  0
VERTEX
  5
293
  8
0
  6
CONTINUOUS
 62
     7
 10
-149.1224972228
 20
-87.997924553
 30
0.0
  0
VERTEX
  5
294
  8
0
  6
CONTINUOUS
 62
     7
 10
-149.1221938232
 20
-88.0093068163
 30
0.0
  0
VERTEX
  5
295
  8
0
  6
CONTINUOUS
 62
     7
 10
-149.1180851584
 20
-88.0201706515
 30
0.0
  0
VERTEX
  5
296
  8
0
  6
CONTINUOUS
 62
     7
 10
-149.1090460959
 20
-88.0305045435
 30
0.0
  0
VERTEX
  5
297
  8
0
  6
CONTINUOUS
 62
     7
 10
-149.0862430064
 20
-88.0450117381
 30
0.0
  0
VERTEX
  5
298
  8
0
  6
CONTINUOUS
 62
     7
 10
-149.052346522
 20
-88.0583265606
 30
0.0
  0
VERTEX
  5
299
  8
0
  6
CONTINUOUS
 62
     7
 10
-148.6188291402
 20
-88.1130268719
 30
0.0
  0
VERTEX
  5
29A
  8
0
  6
CONTINUOUS
 62
     7
 10
-148.0005283402
 20
-88.1261592879
 30
0.0
  0
SEQEND
  5
320
  8
0
  6
CONTINUOUS
 62
     7
  0
POLYLINE
  5
F1
  8
0
  6
CONTINUOUS
 62
     7
 66
     1
 10
0.0
 20
0.0
 30
0.0
 70
   128
  0
VERTEX
  5
29B
  8
0
  6
CONTINUOUS
 62
     7
 10
-144.2628119766
 20
-88.0210829242
 30
0.0
  0
VERTEX
  5
29C
  8
0
  6
CONTINUOUS
 62
     7
 10
-143.6945755722
 20
-88.0352148689
 30
0.0
  0
VERTEX
  5
29D
  8
0
  6
CONTINUOUS
 62
     7
 10
-143.3005622796
 20
-88.039701106
 30
0.0
  0
SEQEND
  5
321
  8
0
  6
CONTINUOUS
 62
     7
  0
POLYLINE
  5
F4
  8
0
  6
CONTINUOUS
 62
     7
 66
     1
 10
0.0
 20
0.0
 30
0.0
 70
   128
  0
VERTEX
  5
29E
  8
0
  6
CONTINUOUS
 62
     7
 10
-142.6969840973
 20
-87.9184889832
 30
0.0
  0
VERTEX
  5
29F
  8
0
  6
CONTINUOUS
 62
     7
 10
-142.6888581285
 20
-87.8840395411
 30
0.0
  0
VERTEX
  5
2A0
  8
0
  6
CONTINUOUS
 62
     7
 10
-142.6634713705
 20
-87.2962926064
 30
0.0
  0
SEQEND
  5
322
  8
0
  6
CONTINUOUS
 62
     7
  0
POLYLINE
  5
F7
  8
0
  6
CONTINUOUS
 62
     7
 66
     1
 10
0.0
 20
0.0
 30
0.0
 70
   128
  0
VERTEX
  5
2A1
  8
0
  6
CONTINUOUS
 62
     7
 10
2.4720801281
 20
164.9447327159
 30
0.0
  0
VERTEX
  5
2A2
  8
0
  6
CONTINUOUS
 62
     7
 10
2.4681037218
 20
164.988827991
 30
0.0
  0
VERTEX
  5
2A3
  8
0
  6
CONTINUOUS
 62
     7
 10
2.4561745044
 20
165.0227334146
 30
0.0
  0
VERTEX
  5
2A4
  8
0
  6
CONTINUOUS
 62
     7
 10
2.4362924759
 20
165.0464489869
 30
0.0
  0
VERTEX
  5
2A5
  8
0
  6
CONTINUOUS
 62
     7
 10
2.4111737721
 20
165.0592090529
 30
0.0
  0
VERTEX
  5
2A6
  8
0
  6
CONTINUOUS
 62
     7
 10
2.3794158881
 20
165.0634624087
 30
0.0
  0
SEQEND
  5
323
  8
0
  6
CONTINUOUS
 62
     7
  0
POLYLINE
  5
F8
  8
0
  6
CONTINUOUS
 62
     7
 66
     1
 10
0.0
 20
0.0
 30
0.0
 70
   128
  0
VERTEX
  5
2A7
  8
0
  6
CONTINUOUS
 62
     7
 10
2.3794158881
 20
165.0634624087
 30
0.0
  0
VERTEX
  5
2A8
  8
0
  6
CONTINUOUS
 62
     7
 10
2.3404039701
 20
165.0628085457
 30
0.0
  0
VERTEX
  5
2A9
  8
0
  6
CONTINUOUS
 62
     7
 10
1.8734667877
 20
164.9956224082
 30
0.0
  0
SEQEND
  5
324
  8
0
  6
CONTINUOUS
 62
     7
  0
POLYLINE
  5
F9
  8
0
  6
CONTINUOUS
 62
     7
 66
     1
 10
0.0
 20
0.0
 30
0.0
 70
   128
  0
VERTEX
  5
2AA
  8
0
  6
CONTINUOUS
 62
     7
 10
1.8734667877
 20
164.9956224083
 30
0.0
  0
VERTEX
  5
2AB
  8
0
  6
CONTINUOUS
 62
     7
 10
1.3281238041
 20
164.9636854493
 30
0.0
  0
VERTEX
  5
2AC
  8
0
  6
CONTINUOUS
 62
     7
 10
1.3145722499
 20
164.9633508937
 30
0.0
  0
SEQEND
  5
325
  8
0
  6
CONTINUOUS
 62
     7
  0
POLYLINE
  5
FA
  8
0
  6
CONTINUOUS
 62
     7
 66
     1
 10
0.0
 20
0.0
 30
0.0
 70
   128
  0
VERTEX
  5
2AD
  8
0
  6
CONTINUOUS
 62
     7
 10
1.3145722499
 20
164.9633508937
 30
0.0
  0
VERTEX
  5
2AE
  8
0
  6
CONTINUOUS
 62
     7
 10
1.081857014
 20
164.9564975248
 30
0.0
  0
VERTEX
  5
2AF
  8
0
  6
CONTINUOUS
 62
     7
 10
-0.4084628984
 20
164.9422502875
 30
0.0
  0
SEQEND
  5
326
  8
0
  6
CONTINUOUS
 62
     7
  0
POLYLINE
  5
FD
  8
0
  6
CONTINUOUS
 62
     7
 66
     1
 10
0.0
 20
0.0
 30
0.0
 70
   128
  0
VERTEX
  5
2B0
  8
0
  6
CONTINUOUS
 62
     7
 10
0.7813164918
 20
167.0425751364
 30
0.0
  0
VERTEX
  5
2B1
  8
0
  6
CONTINUOUS
 62
     7
 10
1.8633874178
 20
168.7952529688
 30
0.0
  0
VERTEX
  5
2B2
  8
0
  6
CONTINUOUS
 62
     7
 10
2.2433092189
 20
169.3791181665
 30
0.0
  0
SEQEND
  5
327
  8
0
  6
CONTINUOUS
 62
     7
  0
POLYLINE
  5
FF
  8
0
  6
CONTINUOUS
 62
     7
 66
     1
 10
0.0
 20
0.0
 30
0.0
 70
   128
  0
VERTEX
  5
2B3
  8
0
  6
CONTINUOUS
 62
     7
 10
2.3508680067
 20
169.6769702867
 30
0.0
  0
VERTEX
  5
2B4
  8
0
  6
CONTINUOUS
 62
     7
 10
2.3333311761
 20
170.2892157828
 30
0.0
  0
VERTEX
  5
2B5
  8
0
  6
CONTINUOUS
 62
     7
 10
2.2408267924
 20
170.9536345361
 30
0.0
  0
SEQEND
  5
328
  8
0
  6
CONTINUOUS
 62
     7
  0
POLYLINE
  5
101
  8
0
  6
CONTINUOUS
 62
     7
 66
     1
 10
0.0
 20
0.0
 30
0.0
 70
   128
  0
VERTEX
  5
2B6
  8
0
  6
CONTINUOUS
 62
     7
 10
2.0554983097
 20
171.1240684694
 30
0.0
  0
VERTEX
  5
2B7
  8
0
  6
CONTINUOUS
 62
     7
 10
0.9254174952
 20
171.1310748636
 30
0.0
  0
VERTEX
  5
2B8
  8
0
  6
CONTINUOUS
 62
     7
 10
-0.7059556927
 20
171.1514506018
 30
0.0
  0
VERTEX
  5
2B9
  8
0
  6
CONTINUOUS
 62
     7
 10
-2.717699266
 20
171.1687521058
 30
0.0
  0
SEQEND
  5
329
  8
0
  6
CONTINUOUS
 62
     7
  0
POLYLINE
  5
102
  8
0
  6
CONTINUOUS
 62
     7
 66
     1
 10
0.0
 20
0.0
 30
0.0
 70
   128
  0
VERTEX
  5
2BA
  8
0
  6
CONTINUOUS
 62
     7
 10
-2.7176992632
 20
171.1687521057
 30
0.0
  0
VERTEX
  5
2BB
  8
0
  6
CONTINUOUS
 62
     7
 10
-2.741052571
 20
171.1680207297
 30
0.0
  0
VERTEX
  5
2BC
  8
0
  6
CONTINUOUS
 62
     7
 10
-2.7866447023
 20
171.1608581391
 30
0.0
  0
VERTEX
  5
2BD
  8
0
  6
CONTINUOUS
 62
     7
 10
-2.821416434
 20
171.1460560717
 30
0.0
  0
VERTEX
  5
2BE
  8
0
  6
CONTINUOUS
 62
     7
 10
-2.8453677663
 20
171.1236145275
 30
0.0
  0
VERTEX
  5
2BF
  8
0
  6
CONTINUOUS
 62
     7
 10
-2.8572818457
 20
171.0983108339
 30
0.0
  0
VERTEX
  5
2C0
  8
0
  6
CONTINUOUS
 62
     7
 10
-2.8612532055
 20
171.0673993785
 30
0.0
  0
SEQEND
  5
32A
  8
0
  6
CONTINUOUS
 62
     7
  0
POLYLINE
  5
106
  8
0
  6
CONTINUOUS
 62
     7
 66
     1
 10
0.0
 20
0.0
 30
0.0
 70
   128
  0
VERTEX
  5
2C1
  8
0
  6
CONTINUOUS
 62
     7
 10
-0.653369569
 20
169.3058866513
 30
0.0
  0
VERTEX
  5
2C2
  8
0
  6
CONTINUOUS
 62
     7
 10
-0.6196827963
 20
169.3044988041
 30
0.0
  0
VERTEX
  5
2C3
  8
0
  6
CONTINUOUS
 62
     7
 10
-0.5865741704
 20
169.2994063336
 30
0.0
  0
VERTEX
  5
2C4
  8
0
  6
CONTINUOUS
 62
     7
 10
-0.5599091099
 20
169.2905733265
 30
0.0
  0
VERTEX
  5
2C5
  8
0
  6
CONTINUOUS
 62
     7
 10
-0.539687615
 20
169.2779997827
 30
0.0
  0
VERTEX
  5
2C6
  8
0
  6
CONTINUOUS
 62
     7
 10
-0.5259096857
 20
169.2616857023
 30
0.0
  0
VERTEX
  5
2C7
  8
0
  6
CONTINUOUS
 62
     7
 10
-0.5194245982
 20
169.2455356024
 30
0.0
  0
VERTEX
  5
2C8
  8
0
  6
CONTINUOUS
 62
     7
 10
-0.5172629024
 20
169.2268757421
 30
0.0
  0
SEQEND
  5
32B
  8
0
  6
CONTINUOUS
 62
     7
  0
POLYLINE
  5
109
  8
0
  6
CONTINUOUS
 62
     7
 66
     1
 10
0.0
 20
0.0
 30
0.0
 70
   128
  0
VERTEX
  5
2C9
  8
0
  6
CONTINUOUS
 62
     7
 10
-3.1951004776
 20
164.2869678551
 30
0.0
  0
VERTEX
  5
2CA
  8
0
  6
CONTINUOUS
 62
     7
 10
-3.1579104264
 20
163.784009687
 30
0.0
  0
VERTEX
  5
2CB
  8
0
  6
CONTINUOUS
 62
     7
 10
-3.1036774486
 20
163.2502454443
 30
0.0
  0
SEQEND
  5
32C
  8
0
  6
CONTINUOUS
 62
     7
  0
POLYLINE
  5
10A
  8
0
  6
CONTINUOUS
 62
     7
 66
     1
 10
0.0
 20
0.0
 30
0.0
 70
   128
  0
VERTEX
  5
2CC
  8
0
  6
CONTINUOUS
 62
     7
 10
-3.1036774489
 20
163.2502454443
 30
0.0
  0
VERTEX
  5
2CD
  8
0
  6
CONTINUOUS
 62
     7
 10
-3.0865656892
 20
163.2030853832
 30
0.0
  0
VERTEX
  5
2CE
  8
0
  6
CONTINUOUS
 62
     7
 10
-3.0602405907
 20
163.1733260422
 30
0.0
  0
VERTEX
  5
2CF
  8
0
  6
CONTINUOUS
 62
     7
 10
-3.0226705556
 20
163.1505662761
 30
0.0
  0
VERTEX
  5
2D0
  8
0
  6
CONTINUOUS
 62
     7
 10
-2.9738555838
 20
163.1348060851
 30
0.0
  0
VERTEX
  5
2D1
  8
0
  6
CONTINUOUS
 62
     7
 10
-2.8612532054
 20
163.1240684693
 30
0.0
  0
SEQEND
  5
32D
  8
0
  6
CONTINUOUS
 62
     7
  0
POLYLINE
  5
10C
  8
0
  6
CONTINUOUS
 62
     7
 66
     1
 10
0.0
 20
0.0
 30
0.0
 70
   128
  0
VERTEX
  5
2D2
  8
0
  6
CONTINUOUS
 62
     7
 10
0.0875564916
 20
163.06243453
 30
0.0
  0
VERTEX
  5
2D3
  8
0
  6
CONTINUOUS
 62
     7
 10
1.2892841037
 20
163.0259250202
 30
0.0
  0
VERTEX
  5
2D4
  8
0
  6
CONTINUOUS
 62
     7
 10
2.1705043703
 20
163.0028563482
 30
0.0
  0
SEQEND
  5
32E
  8
0
  6
CONTINUOUS
 62
     7
  0
POLYLINE
  5
10F
  8
0
  6
CONTINUOUS
 62
     7
 66
     1
 10
0.0
 20
0.0
 30
0.0
 70
   128
  0
VERTEX
  5
2D5
  8
0
  6
CONTINUOUS
 62
     7
 10
149.3873108679
 20
-81.0125202117
 30
0.0
  0
VERTEX
  5
2D6
  8
0
  6
CONTINUOUS
 62
     7
 10
148.2177932068
 20
-81.0632199411
 30
0.0
  0
VERTEX
  5
2D7
  8
0
  6
CONTINUOUS
 62
     7
 10
147.3626999588
 20
-81.0952547571
 30
0.0
  0
SEQEND
  5
32F
  8
0
  6
CONTINUOUS
 62
     7
  0
POLYLINE
  5
111
  8
0
  6
CONTINUOUS
 62
     7
 66
     1
 10
0.0
 20
0.0
 30
0.0
 70
   128
  0
VERTEX
  5
2D8
  8
0
  6
CONTINUOUS
 62
     7
 10
147.2303169286
 20
-81.0952547573
 30
0.0
  0
VERTEX
  5
2D9
  8
0
  6
CONTINUOUS
 62
     7
 10
147.223247943
 20
-81.0993239754
 30
0.0
  0
VERTEX
  5
2DA
  8
0
  6
CONTINUOUS
 62
     7
 10
147.2170517164
 20
-81.1063356078
 30
0.0
  0
VERTEX
  5
2DB
  8
0
  6
CONTINUOUS
 62
     7
 10
147.2117282486
 20
-81.1162896544
 30
0.0
  0
VERTEX
  5
2DC
  8
0
  6
CONTINUOUS
 62
     7
 10
147.2007367692
 20
-81.1661783997
 30
0.0
  0
VERTEX
  5
2DD
  8
0
  6
CONTINUOUS
 62
     7
 10
147.1980454134
 20
-81.2263965753
 30
0.0
  0
SEQEND
  5
330
  8
0
  6
CONTINUOUS
 62
     7
  0
POLYLINE
  5
112
  8
0
  6
CONTINUOUS
 62
     7
 66
     1
 10
0.0
 20
0.0
 30
0.0
 70
   128
  0
VERTEX
  5
2DE
  8
0
  6
CONTINUOUS
 62
     7
 10
147.1980454134
 20
-81.2263965753
 30
0.0
  0
VERTEX
  5
2DF
  8
0
  6
CONTINUOUS
 62
     7
 10
147.2723242013
 20
-82.2184598151
 30
0.0
  0
VERTEX
  5
2E0
  8
0
  6
CONTINUOUS
 62
     7
 10
147.3192575346
 20
-82.9382608177
 30
0.0
  0
SEQEND
  5
331
  8
0
  6
CONTINUOUS
 62
     7
  0
POLYLINE
  5
114
  8
0
  6
CONTINUOUS
 62
     7
 66
     1
 10
0.0
 20
0.0
 30
0.0
 70
   128
  0
VERTEX
  5
2E1
  8
0
  6
CONTINUOUS
 62
     7
 10
146.7603629868
 20
-83.7805396092
 30
0.0
  0
VERTEX
  5
2E2
  8
0
  6
CONTINUOUS
 62
     7
 10
146.4956580217
 20
-84.1460662956
 30
0.0
  0
VERTEX
  5
2E3
  8
0
  6
CONTINUOUS
 62
     7
 10
146.1071363194
 20
-84.6190947544
 30
0.0
  0
SEQEND
  5
332
  8
0
  6
CONTINUOUS
 62
     7
  0
POLYLINE
  5
115
  8
0
  6
CONTINUOUS
 62
     7
 66
     1
 10
0.0
 20
0.0
 30
0.0
 70
   128
  0
VERTEX
  5
2E4
  8
0
  6
CONTINUOUS
 62
     7
 10
146.1071363198
 20
-84.6190947549
 30
0.0
  0
VERTEX
  5
2E5
  8
0
  6
CONTINUOUS
 62
     7
 10
145.7182653656
 20
-84.1931933906
 30
0.0
  0
VERTEX
  5
2E6
  8
0
  6
CONTINUOUS
 62
     7
 10
145.4059290532
 20
-83.776815974
 30
0.0
  0
SEQEND
  5
333
  8
0
  6
CONTINUOUS
 62
     7
  0
POLYLINE
  5
118
  8
0
  6
CONTINUOUS
 62
     7
 66
     1
 10
0.0
 20
0.0
 30
0.0
 70
   128
  0
VERTEX
  5
2E7
  8
0
  6
CONTINUOUS
 62
     7
 10
144.8950151104
 20
-81.189160212
 30
0.0
  0
VERTEX
  5
2E8
  8
0
  6
CONTINUOUS
 62
     7
 10
144.890323544
 20
-81.1545244904
 30
0.0
  0
VERTEX
  5
2E9
  8
0
  6
CONTINUOUS
 62
     7
 10
144.876248845
 20
-81.1274463193
 30
0.0
  0
VERTEX
  5
2EA
  8
0
  6
CONTINUOUS
 62
     7
 10
144.8520092888
 20
-81.1074934312
 30
0.0
  0
VERTEX
  5
2EB
  8
0
  6
CONTINUOUS
 62
     7
 10
144.8178606702
 20
-81.0955216984
 30
0.0
  0
VERTEX
  5
2EC
  8
0
  6
CONTINUOUS
 62
     7
 10
144.7738029891
 20
-81.0915311207
 30
0.0
  0
SEQEND
  5
334
  8
0
  6
CONTINUOUS
 62
     7
  0
POLYLINE
  5
119
  8
0
  6
CONTINUOUS
 62
     7
 66
     1
 10
0.0
 20
0.0
 30
0.0
 70
   128
  0
VERTEX
  5
2ED
  8
0
  6
CONTINUOUS
 62
     7
 10
144.7738029892
 20
-81.0915311208
 30
0.0
  0
VERTEX
  5
2EE
  8
0
  6
CONTINUOUS
 62
     7
 10
143.622506322
 20
-81.0431132357
 30
0.0
  0
VERTEX
  5
2EF
  8
0
  6
CONTINUOUS
 62
     7
 10
142.7827048073
 20
-81.0125202117
 30
0.0
  0
SEQEND
  5
335
  8
0
  6
CONTINUOUS
 62
     7
  0
POLYLINE
  5
11A
  8
0
  6
CONTINUOUS
 62
     7
 66
     1
 10
0.0
 20
0.0
 30
0.0
 70
   128
  0
VERTEX
  5
2F0
  8
0
  6
CONTINUOUS
 62
     7
 10
142.782704807
 20
-81.0125202115
 30
0.0
  0
VERTEX
  5
2F1
  8
0
  6
CONTINUOUS
 62
     7
 10
142.7692693456
 20
-81.0146608271
 30
0.0
  0
VERTEX
  5
2F2
  8
0
  6
CONTINUOUS
 62
     7
 10
142.7577398946
 20
-81.0207344387
 30
0.0
  0
VERTEX
  5
2F3
  8
0
  6
CONTINUOUS
 62
     7
 10
142.7475359615
 20
-81.0307446609
 30
0.0
  0
VERTEX
  5
2F4
  8
0
  6
CONTINUOUS
 62
     7
 10
142.7386575463
 20
-81.0446914936
 30
0.0
  0
VERTEX
  5
2F5
  8
0
  6
CONTINUOUS
 62
     7
 10
142.7229744406
 20
-81.0931418927
 30
0.0
  0
VERTEX
  5
2F6
  8
0
  6
CONTINUOUS
 62
     7
 10
142.7131969285
 20
-81.2189493026
 30
0.0
  0
SEQEND
  5
336
  8
0
  6
CONTINUOUS
 62
     7
  0
POLYLINE
  5
11D
  8
0
  6
CONTINUOUS
 62
     7
 66
     1
 10
0.0
 20
0.0
 30
0.0
 70
   128
  0
VERTEX
  5
2F7
  8
0
  6
CONTINUOUS
 62
     7
 10
142.8430975501
 20
-83.6320208419
 30
0.0
  0
VERTEX
  5
2F8
  8
0
  6
CONTINUOUS
 62
     7
 10
143.98334481
 20
-85.3609517314
 30
0.0
  0
VERTEX
  5
2F9
  8
0
  6
CONTINUOUS
 62
     7
 10
144.8408284387
 20
-86.5845541453
 30
0.0
  0
SEQEND
  5
337
  8
0
  6
CONTINUOUS
 62
     7
  0
POLYLINE
  5
11E
  8
0
  6
CONTINUOUS
 62
     7
 66
     1
 10
0.0
 20
0.0
 30
0.0
 70
   128
  0
VERTEX
  5
2FA
  8
0
  6
CONTINUOUS
 62
     7
 10
144.840828439
 20
-86.5845541451
 30
0.0
  0
VERTEX
  5
2FB
  8
0
  6
CONTINUOUS
 62
     7
 10
144.9723775335
 20
-86.8012232391
 30
0.0
  0
VERTEX
  5
2FC
  8
0
  6
CONTINUOUS
 62
     7
 10
145.0162272317
 20
-87.008583242
 30
0.0
  0
SEQEND
  5
338
  8
0
  6
CONTINUOUS
 62
     7
  0
POLYLINE
  5
11F
  8
0
  6
CONTINUOUS
 62
     7
 66
     1
 10
0.0
 20
0.0
 30
0.0
 70
   128
  0
VERTEX
  5
2FD
  8
0
  6
CONTINUOUS
 62
     7
 10
145.0162272316
 20
-87.008583242
 30
0.0
  0
VERTEX
  5
2FE
  8
0
  6
CONTINUOUS
 62
     7
 10
144.9419484437
 20
-88.0482492628
 30
0.0
  0
VERTEX
  5
2FF
  8
0
  6
CONTINUOUS
 62
     7
 10
144.8950151104
 20
-88.8404183935
 30
0.0
  0
SEQEND
  5
339
  8
0
  6
CONTINUOUS
 62
     7
  0
POLYLINE
  5
121
  8
0
  6
CONTINUOUS
 62
     7
 66
     1
 10
0.0
 20
0.0
 30
0.0
 70
   128
  0
VERTEX
  5
300
  8
0
  6
CONTINUOUS
 62
     7
 10
145.0410514626
 20
-88.9901783924
 30
0.0
  0
VERTEX
  5
301
  8
0
  6
CONTINUOUS
 62
     7
 10
145.9014409789
 20
-89.0122719951
 30
0.0
  0
VERTEX
  5
302
  8
0
  6
CONTINUOUS
 62
     7
 10
146.0616381273
 20
-89.0125202117
 30
0.0
  0
SEQEND
  5
33A
  8
0
  6
CONTINUOUS
 62
     7
  0
POLYLINE
  5
122
  8
0
  6
CONTINUOUS
 62
     7
 66
     1
 10
0.0
 20
0.0
 30
0.0
 70
   128
  0
VERTEX
  5
303
  8
0
  6
CONTINUOUS
 62
     7
 10
146.0616381273
 20
-89.0125202117
 30
0.0
  0
VERTEX
  5
304
  8
0
  6
CONTINUOUS
 62
     7
 10
146.2261931804
 20
-89.0122813888
 30
0.0
  0
VERTEX
  5
305
  8
0
  6
CONTINUOUS
 62
     7
 10
147.105381171
 20
-88.9901783935
 30
0.0
  0
SEQEND
  5
33B
  8
0
  6
CONTINUOUS
 62
     7
  0
POLYLINE
  5
124
  8
0
  6
CONTINUOUS
 62
     7
 66
     1
 10
0.0
 20
0.0
 30
0.0
 70
   128
  0
VERTEX
  5
306
  8
0
  6
CONTINUOUS
 62
     7
 10
147.2476938981
 20
-88.9715602117
 30
0.0
  0
VERTEX
  5
307
  8
0
  6
CONTINUOUS
 62
     7
 10
147.2808132374
 20
-88.9569074827
 30
0.0
  0
VERTEX
  5
308
  8
0
  6
CONTINUOUS
 62
     7
 10
147.3016445235
 20
-88.9327056614
 30
0.0
  0
VERTEX
  5
309
  8
0
  6
CONTINUOUS
 62
     7
 10
147.3144472984
 20
-88.897968867
 30
0.0
  0
VERTEX
  5
30A
  8
0
  6
CONTINUOUS
 62
     7
 10
147.3192215621
 20
-88.8526970994
 30
0.0
  0
VERTEX
  5
30B
  8
0
  6
CONTINUOUS
 62
     7
 10
147.3192575347
 20
-88.8478656662
 30
0.0
  0
SEQEND
  5
33C
  8
0
  6
CONTINUOUS
 62
     7
  0
POLYLINE
  5
125
  8
0
  6
CONTINUOUS
 62
     7
 66
     1
 10
0.0
 20
0.0
 30
0.0
 70
   128
  0
VERTEX
  5
30C
  8
0
  6
CONTINUOUS
 62
     7
 10
147.3192575346
 20
-88.8478656662
 30
0.0
  0
VERTEX
  5
30D
  8
0
  6
CONTINUOUS
 62
     7
 10
147.2449787467
 20
-87.8270561399
 30
0.0
  0
VERTEX
  5
30E
  8
0
  6
CONTINUOUS
 62
     7
 10
147.1980454134
 20
-87.0420959693
 30
0.0
  0
SEQEND
  5
33D
  8
0
  6
CONTINUOUS
 62
     7
  0
POLYLINE
  5
127
  8
0
  6
CONTINUOUS
 62
     7
 66
     1
 10
0.0
 20
0.0
 30
0.0
 70
   128
  0
VERTEX
  5
30F
  8
0
  6
CONTINUOUS
 62
     7
 10
147.3589763235
 20
-86.633775968
 30
0.0
  0
VERTEX
  5
310
  8
0
  6
CONTINUOUS
 62
     7
 10
148.3474695985
 20
-85.2894452074
 30
0.0
  0
VERTEX
  5
311
  8
0
  6
CONTINUOUS
 62
     7
 10
149.3997229922
 20
-83.5194971756
 30
0.0
  0
SEQEND
  5
33E
  8
0
  6
CONTINUOUS
 62
     7
  0
POLYLINE
  5
12A
  8
0
  6
CONTINUOUS
 62
     7
 66
     1
 10
0.0
 20
0.0
 30
0.0
 70
   128
  0
VERTEX
  5
312
  8
0
  6
CONTINUOUS
 62
     7
 10
149.5010757165
 20
-81.2979602117
 30
0.0
  0
VERTEX
  5
313
  8
0
  6
CONTINUOUS
 62
     7
 10
149.4807683937
 20
-81.1077176546
 30
0.0
  0
VERTEX
  5
314
  8
0
  6
CONTINUOUS
 62
     7
 10
149.4642035535
 20
-81.0654687284
 30
0.0
  0
VERTEX
  5
315
  8
0
  6
CONTINUOUS
 62
     7
 10
149.4427347491
 20
-81.0355240203
 30
0.0
  0
VERTEX
  5
316
  8
0
  6
CONTINUOUS
 62
     7
 10
149.4163619806
 20
-81.0178835305
 30
0.0
  0
VERTEX
  5
317
  8
0
  6
CONTINUOUS
 62
     7
 10
149.3873108679
 20
-81.0125202117
 30
0.0
  0
SEQEND
  5
33F
  8
0
  6
CONTINUOUS
 62
     7
  0
CIRCLE
  5
12B
  8
0
  6
CONTINUOUS
 62
     7
 10
-35.0
 20
-77.0123648516
 30
0.0
 40
1.774999999999601
  0
CIRCLE
  5
12C
  8
0
  6
CONTINUOUS
 62
     7
 10
53.334591186
 20
-26.0123648516
 30
0.0
 40
1.774999999999629
  0
CIRCLE
  5
12D
  8
0
  6
CONTINUOUS
 62
     7
 10
103.834591186
 20
-113.4809306338
 30
0.0
 40
1.77499999999965
  0
CIRCLE
  5
12E
  8
0
  6
CONTINUOUS
 62
     7
 10
15.5
 20
-164.4809306338
 30
0.0
 40
1.774999999999608
  0
CIRCLE
  5
12F
  8
0
  6
CONTINUOUS
 62
     7
 10
103.8249722428
 20
-83.4642701354
 30
0.0
 40
9.000000000002402
  0
CIRCLE
  5
134
  8
0
  6
CONTINUOUS
 62
     7
 10
26.0237020536
 20
-48.7085172743
 30
0.0
 40
1.774999999999967
  0
CIRCLE
  5
13B
  8
0
  6
CONTINUOUS
 62
     7
 10
29.9208163706
 20
-46.4585172743
 30
0.0
 40
1.774999999999967
  0
CIRCLE
  5
13C
  8
0
  6
CONTINUOUS
 62
     7
 10
14.3108891325
 20
-92.4213301954
 30
0.0
 40
1.774999999999983
  0
CIRCLE
  5
13D
  8
0
  6
CONTINUOUS
 62
     7
 10
10.4137748154
 20
-94.6713301954
 30
0.0
 40
1.774999999999984
  0
CIRCLE
  5
13E
  8
0
  6
CONTINUOUS
 62
     7
 10
-56.2098906477
 20
-77.6416135104
 30
0.0
 40
1.774999999995053
  0
CIRCLE
  5
13F
  8
0
  6
CONTINUOUS
 62
     7
 10
-118.1498906477
 20
29.6416135104
 30
0.0
 40
1.774999999997718
  0
LINE
  5
194
  8
0
  6
CONTINUOUS
 62
     7
 10
12.8854897804
 20
108.1816770199
 30
0.0
 11
16.3854897804
 21
102.1194991934
 31
0.0
  0
LINE
  5
195
  8
0
  6
CONTINUOUS
 62
     7
 10
46.6963789129
 20
119.6194991934
 30
0.0
 11
16.3854897804
 21
102.1194991934
 31
0.0
  0
LINE
  5
196
  8
0
  6
CONTINUOUS
 62
     7
 10
46.6963789129
 20
119.6194991934
 30
0.0
 11
43.1963789129
 21
125.6816770199
 31
0.0
  0
LINE
  5
197
  8
0
  6
CONTINUOUS
 62
     7
 10
12.8854897804
 20
108.1816770199
 30
0.0
 11
43.1963789129
 21
125.6816770199
 31
0.0
  0
LINE
  5
198
  8
0
  6
CONTINUOUS
 62
     7
 10
-111.8086066299
 20
176.3418125935
 30
0.0
 11
-208.6207927703
 21
8.6581874065
 31
0.0
  0
LINE
  5
199
  8
0
  6
CONTINUOUS
 62
     7
 10
208.6207927703
 20
8.6581874065
 30
0.0
 11
111.8086066299
 21
176.3418125935
 31
0.0
  0
LINE
  5
19A
  8
0
  6
CONTINUOUS
 62
     7
 10
-96.8121861404
 20
-185.0
 30
0.0
 11
96.8121861404
 21
-185.0
 31
0.0
  0
LINE
  5
19B
  8
0
  6
CONTINUOUS
 62
     7
 10
-120.0436761468
 20
144.4782537864
 30
0.0
 11
-127.6436761468
 21
131.3146676488
 31
0.0
  0
LINE
  5
19C
  8
0
  6
CONTINUOUS
 62
     7
 10
-127.6436761468
 20
131.3146676488
 30
0.0
 11
-121.512216288
 21
127.7746676488
 31
0.0
  0
LINE
  5
19D
  8
0
  6
CONTINUOUS
 62
     7
 10
-121.512216288
 20
127.7746676488
 30
0.0
 11
-113.912216288
 21
140.9382537864
 31
0.0
  0
LINE
  5
19E
  8
0
  6
CONTINUOUS
 62
     7
 10
-113.912216288
 20
140.9382537864
 30
0.0
 11
-120.0436761468
 21
144.4782537864
 31
0.0
  0
LINE
  5
19F
  8
0
  6
CONTINUOUS
 62
     7
 10
-177.5436761468
 20
44.8853323512
 30
0.0
 11
-185.1436761468
 21
31.7217462136
 31
0.0
  0
LINE
  5
1A0
  8
0
  6
CONTINUOUS
 62
     7
 10
-185.1436761468
 20
31.7217462136
 30
0.0
 11
-179.012216288
 21
28.1817462136
 31
0.0
  0
LINE
  5
1A1
  8
0
  6
CONTINUOUS
 62
     7
 10
-179.012216288
 20
28.1817462136
 30
0.0
 11
-171.412216288
 21
41.3453323512
 31
0.0
  0
LINE
  5
1A2
  8
0
  6
CONTINUOUS
 62
     7
 10
-171.412216288
 20
41.3453323512
 30
0.0
 11
-177.5436761468
 21
44.8853323512
 31
0.0
  0
LINE
  5
1A3
  8
0
  6
CONTINUOUS
 62
     7
 10
-65.1
 20
-176.2
 30
0.0
 11
-49.9
 21
-176.2
 31
0.0
  0
LINE
  5
1A4
  8
0
  6
CONTINUOUS
 62
     7
 10
-49.9
 20
-176.2
 30
0.0
 11
-49.9
 21
-169.12
 31
0.0
  0
LINE
  5
1A5
  8
0
  6
CONTINUOUS
 62
     7
 10
-49.9
 20
-169.12
 30
0.0
 11
-65.1
 21
-169.12
 31
0.0
  0
LINE
  5
1A6
  8
0
  6
CONTINUOUS
 62
     7
 10
-65.1
 20
-169.12
 30
0.0
 11
-65.1
 21
-176.2
 31
0.0
  0
LINE
  5
1A7
  8
0
  6
CONTINUOUS
 62
     7
 10
49.9
 20
-176.2
 30
0.0
 11
65.1
 21
-176.2
 31
0.0
  0
LINE
  5
1A8
  8
0
  6
CONTINUOUS
 62
     7
 10
65.1
 20
-176.2
 30
0.0
 11
65.1
 21
-169.12
 31
0.0
  0
LINE
  5
1A9
  8
0
  6
CONTINUOUS
 62
     7
 10
65.1
 20
-169.12
 30
0.0
 11
49.9
 21
-169.12
 31
0.0
  0
LINE
  5
1AA
  8
0
  6
CONTINUOUS
 62
     7
 10
49.9
 20
-169.12
 30
0.0
 11
49.9
 21
-176.2
 31
0.0
  0
LINE
  5
1AB
  8
0
  6
CONTINUOUS
 62
     7
 10
185.1436761468
 20
31.7217462136
 30
0.0
 11
177.5436761468
 21
44.8853323512
 31
0.0
  0
LINE
  5
1AC
  8
0
  6
CONTINUOUS
 62
     7
 10
177.5436761468
 20
44.8853323512
 30
0.0
 11
171.412216288
 21
41.3453323512
 31
0.0
  0
LINE
  5
1AD
  8
0
  6
CONTINUOUS
 62
     7
 10
171.412216288
 20
41.3453323512
 30
0.0
 11
179.012216288
 21
28.1817462136
 31
0.0
  0
LINE
  5
1AE
  8
0
  6
CONTINUOUS
 62
     7
 10
179.012216288
 20
28.1817462136
 30
0.0
 11
185.1436761468
 21
31.7217462136
 31
0.0
  0
LINE
  5
1AF
  8
0
  6
CONTINUOUS
 62
     7
 10
127.6436761468
 20
131.3146676488
 30
0.0
 11
120.0436761468
 21
144.4782537864
 31
0.0
  0
LINE
  5
1B0
  8
0
  6
CONTINUOUS
 62
     7
 10
120.0436761468
 20
144.4782537864
 30
0.0
 11
113.912216288
 21
140.9382537864
 31
0.0
  0
LINE
  5
1B1
  8
0
  6
CONTINUOUS
 62
     7
 10
113.912216288
 20
140.9382537864
 30
0.0
 11
121.512216288
 21
127.7746676488
 31
0.0
  0
LINE
  5
1B2
  8
0
  6
CONTINUOUS
 62
     7
 10
121.512216288
 20
127.7746676488
 30
0.0
 11
127.6436761468
 21
131.3146676488
 31
0.0
  0
LINE
  5
1B3
  8
0
  6
CONTINUOUS
 62
     7
 10
-12.7
 20
117.6
 30
0.0
 11
-12.7
 21
129.8
 31
0.0
  0
LINE
  5
1B4
  8
0
  6
CONTINUOUS
 62
     7
 10
-12.7
 20
129.8
 30
0.0
 11
-19.78
 21
129.8
 31
0.0
  0
LINE
  5
1B5
  8
0
  6
CONTINUOUS
 62
     7
 10
-19.78
 20
129.8
 30
0.0
 11
-19.78
 21
117.6
 31
0.0
  0
LINE
  5
1B6
  8
0
  6
CONTINUOUS
 62
     7
 10
-19.78
 20
117.6
 30
0.0
 11
-12.7
 21
117.6
 31
0.0
  0
LINE
  5
1B7
  8
0
  6
CONTINUOUS
 62
     7
 10
-19.78
 20
207.8
 30
0.0
 11
-19.78
 21
195.6
 31
0.0
  0
LINE
  5
1B8
  8
0
  6
CONTINUOUS
 62
     7
 10
-19.78
 20
195.6
 30
0.0
 11
-12.7
 21
195.6
 31
0.0
  0
LINE
  5
1B9
  8
0
  6
CONTINUOUS
 62
     7
 10
-12.7
 20
195.6
 30
0.0
 11
-12.7
 21
207.8
 31
0.0
  0
LINE
  5
1BA
  8
0
  6
CONTINUOUS
 62
     7
 10
-12.7
 20
207.8
 30
0.0
 11
-19.78
 21
207.8
 31
0.0
  0
LINE
  5
1BB
  8
0
  6
CONTINUOUS
 62
     7
 10
12.7
 20
207.8
 30
0.0
 11
12.7
 21
195.6
 31
0.0
  0
LINE
  5
1BC
  8
0
  6
CONTINUOUS
 62
     7
 10
12.7
 20
195.6
 30
0.0
 11
19.78
 21
195.6
 31
0.0
  0
LINE
  5
1BD
  8
0
  6
CONTINUOUS
 62
     7
 10
19.78
 20
195.6
 30
0.0
 11
19.78
 21
207.8
 31
0.0
  0
LINE
  5
1BE
  8
0
  6
CONTINUOUS
 62
     7
 10
19.78
 20
207.8
 30
0.0
 11
12.7
 21
207.8
 31
0.0
  0
LINE
  5
1BF
  8
0
  6
CONTINUOUS
 62
     7
 10
12.7
 20
174.3
 30
0.0
 11
12.7
 21
162.1
 31
0.0
  0
LINE
  5
1C0
  8
0
  6
CONTINUOUS
 62
     7
 10
12.7
 20
162.1
 30
0.0
 11
19.78
 21
162.1
 31
0.0
  0
LINE
  5
1C1
  8
0
  6
CONTINUOUS
 62
     7
 10
19.78
 20
162.1
 30
0.0
 11
19.78
 21
174.3
 31
0.0
  0
LINE
  5
1C2
  8
0
  6
CONTINUOUS
 62
     7
 10
19.78
 20
174.3
 30
0.0
 11
12.7
 21
174.3
 31
0.0
  0
LINE
  5
1C3
  8
0
  6
CONTINUOUS
 62
     7
 10
-95.494587485
 20
-69.7985226281
 30
0.0
 11
-106.0600974112
 21
-75.8985226281
 31
0.0
  0
LINE
  5
1C4
  8
0
  6
CONTINUOUS
 62
     7
 10
-106.0600974112
 20
-75.8985226281
 30
0.0
 11
-102.5200974112
 21
-82.0299824869
 31
0.0
  0
LINE
  5
1C5
  8
0
  6
CONTINUOUS
 62
     7
 10
-102.5200974112
 20
-82.0299824869
 30
0.0
 11
-91.954587485
 21
-75.9299824869
 31
0.0
  0
LINE
  5
1C6
  8
0
  6
CONTINUOUS
 62
     7
 10
-91.954587485
 20
-75.9299824869
 30
0.0
 11
-95.494587485
 21
-69.7985226281
 31
0.0
  0
LINE
  5
1C7
  8
0
  6
CONTINUOUS
 62
     7
 10
-170.0700789064
 20
-121.0299824869
 30
0.0
 11
-159.5045689802
 21
-114.9299824869
 31
0.0
  0
LINE
  5
1C8
  8
0
  6
CONTINUOUS
 62
     7
 10
-159.5045689802
 20
-114.9299824869
 30
0.0
 11
-163.0445689802
 21
-108.7985226281
 31
0.0
  0
LINE
  5
1C9
  8
0
  6
CONTINUOUS
 62
     7
 10
-163.0445689802
 20
-108.7985226281
 30
0.0
 11
-173.6100789064
 21
-114.8985226281
 31
0.0
  0
LINE
  5
1CA
  8
0
  6
CONTINUOUS
 62
     7
 10
-173.6100789064
 20
-114.8985226281
 30
0.0
 11
-170.0700789064
 21
-121.0299824869
 31
0.0
  0
LINE
  5
1CB
  8
0
  6
CONTINUOUS
 62
     7
 10
-186.3100789064
 20
-92.9014773719
 30
0.0
 11
-175.7445689802
 21
-86.8014773719
 31
0.0
  0
LINE
  5
1CC
  8
0
  6
CONTINUOUS
 62
     7
 10
-175.7445689802
 20
-86.8014773719
 30
0.0
 11
-179.2845689802
 21
-80.6700175131
 31
0.0
  0
LINE
  5
1CD
  8
0
  6
CONTINUOUS
 62
     7
 10
-179.2845689802
 20
-80.6700175131
 30
0.0
 11
-189.8500789064
 21
-86.7700175131
 31
0.0
  0
LINE
  5
1CE
  8
0
  6
CONTINUOUS
 62
     7
 10
-189.8500789064
 20
-86.7700175131
 30
0.0
 11
-186.3100789064
 21
-92.9014773719
 31
0.0
  0
LINE
  5
1CF
  8
0
  6
CONTINUOUS
 62
     7
 10
-157.2982278796
 20
-76.1514773719
 30
0.0
 11
-146.7327179535
 21
-70.0514773719
 31
0.0
  0
LINE
  5
1D0
  8
0
  6
CONTINUOUS
 62
     7
 10
-146.7327179535
 20
-70.0514773719
 30
0.0
 11
-150.2727179535
 21
-63.9200175131
 31
0.0
  0
LINE
  5
1D1
  8
0
  6
CONTINUOUS
 62
     7
 10
-150.2727179535
 20
-63.9200175131
 30
0.0
 11
-160.8382278796
 21
-70.0200175131
 31
0.0
  0
LINE
  5
1D2
  8
0
  6
CONTINUOUS
 62
     7
 10
-160.8382278796
 20
-70.0200175131
 30
0.0
 11
-157.2982278796
 21
-76.1514773719
 31
0.0
  0
LINE
  5
1D3
  8
0
  6
CONTINUOUS
 62
     7
 10
108.1945874851
 20
-47.8014773719
 30
0.0
 11
118.7600974112
 21
-53.9014773719
 31
0.0
  0
LINE
  5
1D4
  8
0
  6
CONTINUOUS
 62
     7
 10
118.7600974112
 20
-53.9014773719
 30
0.0
 11
122.3000974112
 21
-47.7700175131
 31
0.0
  0
LINE
  5
1D5
  8
0
  6
CONTINUOUS
 62
     7
 10
122.3000974112
 20
-47.7700175131
 30
0.0
 11
111.7345874851
 21
-41.6700175131
 31
0.0
  0
LINE
  5
1D6
  8
0
  6
CONTINUOUS
 62
     7
 10
111.7345874851
 20
-41.6700175131
 30
0.0
 11
108.1945874851
 21
-47.8014773719
 31
0.0
  0
LINE
  5
1D7
  8
0
  6
CONTINUOUS
 62
     7
 10
189.8500789064
 20
-86.7700175131
 30
0.0
 11
179.2845689802
 21
-80.6700175131
 31
0.0
  0
LINE
  5
1D8
  8
0
  6
CONTINUOUS
 62
     7
 10
179.2845689802
 20
-80.6700175131
 30
0.0
 11
175.7445689802
 21
-86.8014773719
 31
0.0
  0
LINE
  5
1D9
  8
0
  6
CONTINUOUS
 62
     7
 10
175.7445689802
 20
-86.8014773719
 30
0.0
 11
186.3100789064
 21
-92.9014773719
 31
0.0
  0
LINE
  5
1DA
  8
0
  6
CONTINUOUS
 62
     7
 10
186.3100789064
 20
-92.9014773719
 30
0.0
 11
189.8500789064
 21
-86.7700175131
 31
0.0
  0
LINE
  5
1DB
  8
0
  6
CONTINUOUS
 62
     7
 10
173.6100789064
 20
-114.8985226281
 30
0.0
 11
163.0445689802
 21
-108.7985226281
 31
0.0
  0
LINE
  5
1DC
  8
0
  6
CONTINUOUS
 62
     7
 10
163.0445689802
 20
-108.7985226281
 30
0.0
 11
159.5045689802
 21
-114.9299824869
 31
0.0
  0
LINE
  5
1DD
  8
0
  6
CONTINUOUS
 62
     7
 10
159.5045689802
 20
-114.9299824869
 30
0.0
 11
170.0700789064
 21
-121.0299824869
 31
0.0
  0
LINE
  5
1DE
  8
0
  6
CONTINUOUS
 62
     7
 10
170.0700789064
 20
-121.0299824869
 30
0.0
 11
173.6100789064
 21
-114.8985226281
 31
0.0
  0
LINE
  5
1DF
  8
0
  6
CONTINUOUS
 62
     7
 10
144.5982278796
 20
-98.1485226281
 30
0.0
 11
134.0327179535
 21
-92.0485226281
 31
0.0
  0
LINE
  5
1E0
  8
0
  6
CONTINUOUS
 62
     7
 10
134.0327179535
 20
-92.0485226281
 30
0.0
 11
130.4927179535
 21
-98.1799824869
 31
0.0
  0
LINE
  5
1E1
  8
0
  6
CONTINUOUS
 62
     7
 10
130.4927179535
 20
-98.1799824869
 30
0.0
 11
141.0582278796
 21
-104.2799824869
 31
0.0
  0
LINE
  5
1E2
  8
0
  6
CONTINUOUS
 62
     7
 10
141.0582278796
 20
-104.2799824869
 30
0.0
 11
144.5982278796
 21
-98.1485226281
 31
0.0
  0
LINE
  5
1E3
  8
0
  6
CONTINUOUS
 62
     7
 10
-142.757376825
 20
-81.6005641363
 30
0.0
 11
-142.757376825
 21
-80.1758077719
 31
0.0
  0
LINE
  5
1E4
  8
0
  6
CONTINUOUS
 62
     7
 10
-142.9307198553
 20
-80.0694901969
 30
0.0
 11
-144.2876362185
 21
-80.0694901969
 31
0.0
  0
LINE
  5
1E5
  8
0
  6
CONTINUOUS
 62
     7
 10
-149.1261913706
 20
-81.1603992939
 30
0.0
 11
-149.1261913706
 21
-81.4942465554
 31
0.0
  0
LINE
  5
1E6
  8
0
  6
CONTINUOUS
 62
     7
 10
-149.0852313704
 20
-81.7341883787
 30
0.0
 11
-148.0969162261
 21
-82.9512744307
 31
0.0
  0
LINE
  5
1E7
  8
0
  6
CONTINUOUS
 62
     7
 10
-143.3005622796
 20
-88.039701106
 30
0.0
 11
-143.0705501575
 21
-88.0397011061
 31
0.0
  0
LINE
  5
1E8
  8
0
  6
CONTINUOUS
 62
     7
 10
-2.9824653266
 20
169.3058866512
 30
0.0
 11
-0.653369569
 21
169.3058866513
 31
0.0
  0
LINE
  5
1E9
  8
0
  6
CONTINUOUS
 62
     7
 10
2.3508680068
 20
163.1253096792
 30
0.0
 11
2.4720801282
 21
164.9447327159
 31
0.0
  0
LINE
  5
1EA
  8
0
  6
CONTINUOUS
 62
     7
 10
147.3626999588
 20
-81.0952547571
 30
0.0
 11
147.2303169286
 21
-81.0952547573
 31
0.0
  0
LINE
  5
1EB
  8
0
  6
CONTINUOUS
 62
     7
 10
144.8950151104
 20
-82.9159189996
 30
0.0
 11
144.8950151104
 21
-81.189160212
 31
0.0
  0
LINE
  5
1EC
  8
0
  6
CONTINUOUS
 62
     7
 10
142.7131969285
 20
-81.2189493026
 30
0.0
 11
142.7131969286
 21
-83.2683844615
 31
0.0
  0
LINE
  5
1ED
  8
0
  6
CONTINUOUS
 62
     7
 10
149.5010757164
 20
-83.0731262723
 30
0.0
 11
149.5010757164
 21
-81.2979602117
 31
0.0
  0
LINE
  5
1EE
  8
0
  6
CONTINUOUS
 62
     7
 10
107.6363789129
 20
14.0683229801
 30
0.0
 11
77.3254897804
 21
-3.4316770199
 31
0.0
  0
LINE
  5
1EF
  8
0
  6
CONTINUOUS
 62
     7
 10
104.1363789129
 20
20.1305008066
 30
0.0
 11
107.6363789129
 21
14.0683229801
 31
0.0
  0
LINE
  5
1F0
  8
0
  6
CONTINUOUS
 62
     7
 10
73.8254897804
 20
2.6305008066
 30
0.0
 11
104.1363789129
 21
20.1305008066
 31
0.0
  0
LINE
  5
1F1
  8
0
  6
CONTINUOUS
 62
     7
 10
77.3254897804
 20
-3.4316770199
 30
0.0
 11
73.8254897804
 21
2.6305008066
 31
0.0
  0
LINE
  5
1F2
  8
0
  6
CONTINUOUS
 62
     7
 10
-96.7879306876
 20
38.6416135104
 30
0.0
 11
-84.2879306876
 21
16.9909784158
 31
0.0
  0
LINE
  5
1F3
  8
0
  6
CONTINUOUS
 62
     7
 10
-80.8238290725
 20
18.9909784158
 30
0.0
 11
-93.3238290725
 21
40.6416135104
 31
0.0
  0
LINE
  5
1F4
  8
0
  6
CONTINUOUS
 62
     7
 10
-34.2705804184
 20
-61.6416135104
 30
0.0
 11
-46.7705804184
 21
-39.9909784158
 31
0.0
  0
LINE
  5
1F5
  8
0
  6
CONTINUOUS
 62
     7
 10
-50.2346820336
 20
-41.9909784158
 30
0.0
 11
-37.7346820336
 21
-63.6416135104
 31
0.0
  0
LINE
  5
1F6
  8
0
  6
CONTINUOUS
 62
     7
 10
-79.4674226119
 20
48.6416135104
 30
0.0
 11
-66.9674226119
 21
26.9909784158
 31
0.0
  0
LINE
  5
1F7
  8
0
  6
CONTINUOUS
 62
     7
 10
-63.5033209968
 20
28.9909784158
 30
0.0
 11
-76.0033209968
 21
50.6416135104
 31
0.0
  0
LINE
  5
1F8
  8
0
  6
CONTINUOUS
 62
     7
 10
-44.8264064606
 20
68.6416135104
 30
0.0
 11
-32.3264064606
 21
46.9909784158
 31
0.0
  0
LINE
  5
1F9
  8
0
  6
CONTINUOUS
 62
     7
 10
-28.8623048454
 20
48.9909784158
 30
0.0
 11
-41.3623048454
 21
70.6416135104
 31
0.0
  0
LINE
  5
1FA
  8
0
  6
CONTINUOUS
 62
     7
 10
0.3704357329
 20
-41.6416135104
 30
0.0
 11
-12.1295642671
 21
-19.9909784158
 31
0.0
  0
LINE
  5
1FB
  8
0
  6
CONTINUOUS
 62
     7
 10
-15.5936658822
 20
-21.9909784158
 30
0.0
 11
-3.0936658822
 21
-43.6416135104
 31
0.0
  0
LINE
  5
1FC
  8
0
  6
CONTINUOUS
 62
     7
 10
-62.1469145363
 20
58.6416135104
 30
0.0
 11
-49.6469145363
 21
36.9909784158
 31
0.0
  0
LINE
  5
1FD
  8
0
  6
CONTINUOUS
 62
     7
 10
-46.1828129211
 20
38.9909784158
 30
0.0
 11
-58.6828129211
 21
60.6416135104
 31
0.0
  0
LINE
  5
1FE
  8
0
  6
CONTINUOUS
 62
     7
 10
-16.9500723428
 20
-51.6416135104
 30
0.0
 11
-29.4500723428
 21
-29.9909784158
 31
0.0
  0
LINE
  5
1FF
  8
0
  6
CONTINUOUS
 62
     7
 10
-32.9141739579
 20
-31.9909784158
 30
0.0
 11
-20.4141739579
 21
-53.6416135104
 31
0.0
  0
LINE
  5
200
  8
0
  6
CONTINUOUS
 62
     7
 10
35.0114518843
 20
-21.6416135104
 30
0.0
 11
22.5114518843
 21
0.0090215842
 31
0.0
  0
LINE
  5
201
  8
0
  6
CONTINUOUS
 62
     7
 10
19.0473502692
 20
-1.9909784158
 30
0.0
 11
31.5473502692
 21
-23.6416135104
 31
0.0
  0
LINE
  5
202
  8
0
  6
CONTINUOUS
 62
     7
 10
-10.1853903092
 20
88.6416135104
 30
0.0
 11
2.3146096908
 21
66.9909784158
 31
0.0
  0
LINE
  5
203
  8
0
  6
CONTINUOUS
 62
     7
 10
5.7787113059
 20
68.9909784158
 30
0.0
 11
-6.7212886941
 21
90.6416135104
 31
0.0
  0
LINE
  5
204
  8
0
  6
CONTINUOUS
 62
     7
 10
52.33195996
 20
-11.6416135104
 30
0.0
 11
39.83195996
 21
10.0090215842
 31
0.0
  0
LINE
  5
205
  8
0
  6
CONTINUOUS
 62
     7
 10
36.3678583449
 20
8.0090215842
 30
0.0
 11
48.8678583449
 21
-13.6416135104
 31
0.0
  0
LINE
  5
206
  8
0
  6
CONTINUOUS
 62
     7
 10
-27.5058983849
 20
78.6416135104
 30
0.0
 11
-15.0058983849
 21
56.9909784158
 31
0.0
  0
LINE
  5
207
  8
0
  6
CONTINUOUS
 62
     7
 10
-11.5417967697
 20
58.9909784158
 30
0.0
 11
-24.0417967697
 21
80.6416135104
 31
0.0
  0
LINE
  5
208
  8
0
  6
CONTINUOUS
 62
     7
 10
17.6909438086
 20
-31.6416135104
 30
0.0
 11
5.1909438086
 21
-9.9909784158
 31
0.0
  0
LINE
  5
209
  8
0
  6
CONTINUOUS
 62
     7
 10
1.7268421935
 20
-11.9909784158
 30
0.0
 11
14.2268421935
 21
-33.6416135104
 31
0.0
  0
LINE
  5
20A
  8
0
  6
CONTINUOUS
 62
     7
 10
19.6351177665
 20
76.9909784158
 30
0.0
 11
53.6883664205
 21
18.0090215842
 31
0.0
  0
LINE
  5
20B
  8
0
  6
CONTINUOUS
 62
     7
 10
57.1524680357
 20
20.0090215842
 30
0.0
 11
23.0992193816
 21
78.9909784158
 31
0.0
  0
LINE
  5
20C
  8
0
  6
CONTINUOUS
 62
     7
 10
36.9556258422
 20
86.9909784158
 30
0.0
 11
71.0088744962
 21
28.0090215842
 31
0.0
  0
LINE
  5
20D
  8
0
  6
CONTINUOUS
 62
     7
 10
74.4729761114
 20
30.0090215842
 30
0.0
 11
40.4197274573
 21
88.9909784158
 31
0.0
  0
LINE
  5
20E
  8
0
  6
CONTINUOUS
 62
     7
 10
54.2761339179
 20
96.9909784158
 30
0.0
 11
88.3293825719
 21
38.0090215842
 31
0.0
  0
LINE
  5
20F
  8
0
  6
CONTINUOUS
 62
     7
 10
91.7934841871
 20
40.0090215842
 30
0.0
 11
57.740235533
 21
98.9909784158
 31
0.0
  0
LINE
  5
210
  8
0
  6
CONTINUOUS
 62
     7
 10
71.5966419936
 20
106.9909784158
 30
0.0
 11
105.6498906476
 21
48.0090215842
 31
0.0
  0
LINE
  5
211
  8
0
  6
CONTINUOUS
 62
     7
 10
109.1139922628
 20
50.0090215842
 30
0.0
 11
75.0607436087
 21
108.9909784158
 31
0.0
  0
LINE
  5
212
  8
0
  6
CONTINUOUS
 62
     7
 10
-101.6084387633
 20
6.9909784158
 30
0.0
 11
-67.5551901093
 21
-51.9909784158
 31
0.0
  0
LINE
  5
213
  8
0
  6
CONTINUOUS
 62
     7
 10
-64.0910884941
 20
-49.9909784158
 30
0.0
 11
-98.1443371482
 21
8.9909784158
 31
0.0
  0
LINE
  5
214
  8
0
  6
CONTINUOUS
 62
     7
 10
-118.928946839
 20
-3.0090215842
 30
0.0
 11
-84.875698185
 21
-61.9909784158
 31
0.0
  0
LINE
  5
215
  8
0
  6
CONTINUOUS
 62
     7
 10
-81.4115965698
 20
-59.9909784158
 30
0.0
 11
-115.4648452239
 21
-1.0090215842
 31
0.0
  0
LINE
  5
216
  8
0
  6
CONTINUOUS
 62
     7
 10
-153.5699629904
 20
-23.0090215842
 30
0.0
 11
-131.0699629904
 21
-61.9801647545
 31
0.0
  0
LINE
  5
217
  8
0
  6
CONTINUOUS
 62
     7
 10
-127.6058613753
 20
-59.9801647545
 30
0.0
 11
-150.1058613753
 21
-21.0090215842
 31
0.0
  0
LINE
  5
218
  8
0
  6
CONTINUOUS
 62
     7
 10
-136.2494549147
 20
-13.0090215842
 30
0.0
 11
-113.7494549147
 21
-51.9801647545
 31
0.0
  0
LINE
  5
219
  8
0
  6
CONTINUOUS
 62
     7
 10
-110.2853532996
 20
-49.9801647545
 30
0.0
 11
-132.7853532996
 21
-11.0090215842
 31
0.0
  0
ARC
  5
21A
  8
0
  6
CONTINUOUS
 62
     7
 10
0.0
 20
55.0
 30
0.0
 40
164.9999999999983
 50
47.3414428028
 51
132.6585571972
  0
ARC
  5
21B
  8
0
  6
CONTINUOUS
 62
     7
 10
47.6313972081
 20
-27.5
 30
0.0
 40
164.9999999999982
 50
287.3414428028
 51
12.6585571972
  0
ARC
  5
21C
  8
0
  6
CONTINUOUS
 62
     7
 10
-47.6313972081
 20
-27.5
 30
0.0
 40
164.9999999999982
 50
167.3414428028
 51
252.6585571972
  0
ARC
  5
21D
  8
0
  6
CONTINUOUS
 62
     7
 10
-140.0035416013
 20
-81.636278197
 30
0.0
 40
5.183110232693707
 50
207.7812773678
 51
223.6221566482
  0
ARC
  5
21E
  8
0
  6
CONTINUOUS
 62
     7
 10
-27.8153441136
 20
-169.3971794231
 30
0.0
 40
144.6371893382357
 50
142.6261840235
 51
143.8385149444
  0
ARC
  5
21F
  8
0
  6
CONTINUOUS
 62
     7
 10
-142.0507533168
 20
-82.6273729737
 30
0.0
 40
3.398000796854902
 50
131.1698787369
 51
153.818641171
  0
ARC
  5
220
  8
0
  6
CONTINUOUS
 62
     7
 10
-153.5365365323
 20
-75.9412169234
 30
0.0
 40
9.903386706057066
 50
320.0581453952
 51
328.4157861893
  0
ARC
  5
221
  8
0
  6
CONTINUOUS
 62
     7
 10
-188.6276039483
 20
-113.4482779933
 30
0.0
 40
52.84108051087431
 50
36.1204233188
 51
39.0812768587
  0
ARC
  5
222
  8
0
  6
CONTINUOUS
 62
     7
 10
-150.7824562753
 20
-85.7701965585
 30
0.0
 40
3.89338507190383
 50
26.0026974682
 51
46.3880983611
  0
ARC
  5
223
  8
0
  6
CONTINUOUS
 62
     7
 10
-150.6257234356
 20
-82.6038933546
 30
0.0
 40
3.647243146067274
 50
313.8145656727
 51
336.4133621709
  0
ARC
  5
224
  8
0
  6
CONTINUOUS
 62
     7
 10
-147.7870525422
 20
-87.051216212
 30
0.0
 40
1.420268116742144
 50
156.0694577158
 51
190.6489726652
  0
ARC
  5
225
  8
0
  6
CONTINUOUS
 62
     7
 10
-147.9000622699
 20
-87.1687306929
 30
0.0
 40
0.962685277706989
 50
264.0096918361
 51
290.662705026
  0
ARC
  5
226
  8
0
  6
CONTINUOUS
 62
     7
 10
-151.7157101507
 20
-84.091765155
 30
0.0
 40
5.752321476040315
 50
316.2511080441
 51
329.1506355193
  0
ARC
  5
227
  8
0
  6
CONTINUOUS
 62
     7
 10
-136.9563387913
 20
-93.1859817228
 30
0.0
 40
11.5846976436493
 50
140.7602251979
 51
147.9675041776
  0
ARC
  5
228
  8
0
  6
CONTINUOUS
 62
     7
 10
-124.0785849882
 20
-70.7535658069
 30
0.0
 40
26.56257078131586
 50
214.6548580665
 51
220.546842111
  0
ARC
  5
229
  8
0
  6
CONTINUOUS
 62
     7
 10
-143.0133374674
 20
-87.5797696269
 30
0.0
 40
0.4634762749560212
 50
262.9091764987
 51
313.0445239844
  0
ARC
  5
22A
  8
0
  6
CONTINUOUS
 62
     7
 10
-144.087644275
 20
-87.0337925317
 30
0.0
 40
1.448162543056988
 50
349.5565934568
 51
23.2792056087
  0
ARC
  5
22B
  8
0
  6
CONTINUOUS
 62
     7
 10
-283.7382517974
 20
-198.082618505
 30
0.0
 40
179.8190476202179
 50
38.3703078704
 51
38.8798576382
  0
ARC
  5
22C
  8
0
  6
CONTINUOUS
 62
     7
 10
-0.41998316
 20
164.829023188
 30
0.0
 40
0.1138116534179203
 50
84.1904476634
 51
131.1193857809
  0
ARC
  5
22D
  8
0
  6
CONTINUOUS
 62
     7
 10
20.5516058307
 20
153.7388512806
 30
0.0
 40
23.82967496574178
 50
146.0627991748
 51
152.0311587086
  0
ARC
  5
22E
  8
0
  6
CONTINUOUS
 62
     7
 10
1.6773607425
 20
169.7518370887
 30
0.0
 40
0.6776555710686285
 50
326.6321408713
 51
353.6570636108
  0
ARC
  5
22F
  8
0
  6
CONTINUOUS
 62
     7
 10
2.0302241791
 20
170.9106062695
 30
0.0
 40
0.2149532331686127
 50
11.5471935997
 51
83.2475609292
  0
ARC
  5
230
  8
0
  6
CONTINUOUS
 62
     7
 10
178.8233003682
 20
143.2986146953
 30
0.0
 40
183.7944025536236
 50
171.3101254815
 51
171.8254953043
  0
ARC
  5
231
  8
0
  6
CONTINUOUS
 62
     7
 10
-2.9910860208
 20
169.418914967
 30
0.0
 40
0.1133565903077641
 50
173.3390549773
 51
274.3615173865
  0
ARC
  5
232
  8
0
  6
CONTINUOUS
 62
     7
 10
84.6458715844
 20
116.118001085
 30
0.0
 40
100.3658908342783
 50
148.0517809828
 51
151.1047063905
  0
ARC
  5
233
  8
0
  6
CONTINUOUS
 62
     7
 10
6.4601608033
 20
165.327300062
 30
0.0
 40
9.711146250356295
 50
184.2013188363
 51
186.1497630165
  0
ARC
  5
234
  8
0
  6
CONTINUOUS
 62
     7
 10
2.0860239307
 20
329.2490997034
 30
0.0
 40
166.1986809620939
 50
268.29421042
 51
269.3110263654
  0
ARC
  5
235
  8
0
  6
CONTINUOUS
 62
     7
 10
2.1733110545
 20
163.1927793631
 30
0.0
 40
0.1899437525438334
 50
269.1533439214
 51
339.193761003
  0
ARC
  5
236
  8
0
  6
CONTINUOUS
 62
     7
 10
145.0080717835
 20
-82.0112390431
 30
0.0
 40
2.490170466779801
 50
314.7232623236
 51
338.1441684501
  0
ARC
  5
237
  8
0
  6
CONTINUOUS
 62
     7
 10
147.6874862401
 20
-81.8407333107
 30
0.0
 40
2.992310023279082
 50
201.0582120265
 51
220.3172532263
  0
ARC
  5
238
  8
0
  6
CONTINUOUS
 62
     7
 10
143.4903333122
 20
-83.1957907762
 30
0.0
 40
0.7805195717935188
 50
185.3366141445
 51
213.9795538597
  0
ARC
  5
239
  8
0
  6
CONTINUOUS
 62
     7
 10
145.0393896188
 20
-88.8457162713
 30
0.0
 40
0.1444716793814327
 50
177.8984529516
 51
270.6590823881
  0
ARC
  5
23A
  8
0
  6
CONTINUOUS
 62
     7
 10
147.0762868087
 20
-88.2145778163
 30
0.0
 40
0.7761460798630272
 50
272.1482744785
 51
282.7586012732
  0
ARC
  5
23B
  8
0
  6
CONTINUOUS
 62
     7
 10
148.0138548604
 20
-87.1277566399
 30
0.0
 40
0.8202943404177035
 50
142.9724265973
 51
174.0058598632
  0
ARC
  5
23C
  8
0
  6
CONTINUOUS
 62
     7
 10
148.6156375533
 20
-83.1067711839
 30
0.0
 40
0.8860771528618284
 50
332.2386301226
 51
2.1760802133
  0
ARC
  5
23D
  8
0
  6
CONTINUOUS
 62
     7
 10
27.546854316
 20
-84.5289621689
 30
0.0
 40
8.294057627298514
 50
28.5507618188
 51
207.159347566
  0
ARC
  5
23E
  8
0
  6
CONTINUOUS
 62
     7
 10
20.167295593
 20
-70.5649237349
 30
0.0
 40
17.7499999999999
 50
270.0
 51
325.7101093848
  0
ARC
  5
23F
  8
0
  6
CONTINUOUS
 62
     7
 10
9.1671149029
 20
-81.898426332
 30
0.0
 40
8.294057627298526
 50
316.5507618188
 51
135.159347566
  0
ARC
  5
240
  8
0
  6
CONTINUOUS
 62
     7
 10
20.167295593
 20
-70.5649237349
 30
0.0
 40
17.74999999999983
 50
198.0
 51
253.7101093848
  0
ARC
  5
241
  8
0
  6
CONTINUOUS
 62
     7
 10
5.9892513211
 20
-63.6053751174
 30
0.0
 40
8.294057627298525
 50
244.5507618188
 51
63.159347566
  0
ARC
  5
242
  8
0
  6
CONTINUOUS
 62
     7
 10
20.167295593
 20
-70.5649237349
 30
0.0
 40
17.74999999999998
 50
126.0
 51
181.7101093848
  0
ARC
  5
243
  8
0
  6
CONTINUOUS
 62
     7
 10
22.4049630291
 20
-54.9301835458
 30
0.0
 40
8.29405762729853
 50
172.5507618188
 51
351.159347566
  0
ARC
  5
244
  8
0
  6
CONTINUOUS
 62
     7
 10
20.167295593
 20
-70.5649237349
 30
0.0
 40
17.75000000000008
 50
54.0
 51
109.7101093848
  0
ARC
  5
245
  8
0
  6
CONTINUOUS
 62
     7
 10
35.7282943959
 20
-67.8616715102
 30
0.0
 40
8.294057627298537
 50
100.5507618188
 51
279.159347566
  0
ARC
  5
246
  8
0
  6
CONTINUOUS
 62
     7
 10
20.167295593
 20
-70.5649237349
 30
0.0
 40
17.75000000000003
 50
342.0
 51
37.7101093848
  0
ARC
  5
247
  8
0
  6
CONTINUOUS
 62
     7
 10
-82.5558798801
 20
17.9909784158
 30
0.0
 40
1.999999999999976
 50
210.0
 51
30.0
  0
ARC
  5
248
  8
0
  6
CONTINUOUS
 62
     7
 10
-95.0558798801
 20
39.6416135104
 30
0.0
 40
1.99999999999996
 50
30.0
 51
210.0
  0
ARC
  5
249
  8
0
  6
CONTINUOUS
 62
     7
 10
-48.502631226
 20
-40.9909784158
 30
0.0
 40
1.99999999999998
 50
30.0
 51
210.0
  0
ARC
  5
24A
  8
0
  6
CONTINUOUS
 62
     7
 10
-36.002631226
 20
-62.6416135104
 30
0.0
 40
1.999999999999974
 50
210.0
 51
30.0
  0
ARC
  5
24B
  8
0
  6
CONTINUOUS
 62
     7
 10
-65.2353718044
 20
27.9909784158
 30
0.0
 40
1.999999999999983
 50
210.0
 51
30.0
  0
ARC
  5
24C
  8
0
  6
CONTINUOUS
 62
     7
 10
-77.7353718044
 20
49.6416135104
 30
0.0
 40
1.999999999999976
 50
30.0
 51
210.0
  0
ARC
  5
24D
  8
0
  6
CONTINUOUS
 62
     7
 10
-30.594355653
 20
47.9909784158
 30
0.0
 40
1.99999999999997
 50
210.0
 51
30.0
  0
ARC
  5
24E
  8
0
  6
CONTINUOUS
 62
     7
 10
-43.094355653
 20
69.6416135104
 30
0.0
 40
1.99999999999997
 50
30.0
 51
210.0
  0
ARC
  5
24F
  8
0
  6
CONTINUOUS
 62
     7
 10
-13.8616150746
 20
-20.9909784158
 30
0.0
 40
1.999999999999971
 50
30.0
 51
210.0
  0
ARC
  5
250
  8
0
  6
CONTINUOUS
 62
     7
 10
-1.3616150746
 20
-42.6416135104
 30
0.0
 40
1.999999999999967
 50
210.0
 51
30.0
  0
ARC
  5
251
  8
0
  6
CONTINUOUS
 62
     7
 10
-47.9148637287
 20
37.9909784158
 30
0.0
 40
1.999999999999964
 50
210.0
 51
30.0
  0
ARC
  5
252
  8
0
  6
CONTINUOUS
 62
     7
 10
-60.4148637287
 20
59.6416135104
 30
0.0
 40
1.999999999999967
 50
30.0
 51
210.0
  0
ARC
  5
253
  8
0
  6
CONTINUOUS
 62
     7
 10
-31.1821231503
 20
-30.9909784158
 30
0.0
 40
1.99999999999998
 50
30.0
 51
210.0
  0
ARC
  5
254
  8
0
  6
CONTINUOUS
 62
     7
 10
-18.6821231503
 20
-52.6416135104
 30
0.0
 40
1.99999999999997
 50
210.0
 51
30.0
  0
ARC
  5
255
  8
0
  6
CONTINUOUS
 62
     7
 10
20.7794010767
 20
-0.9909784158
 30
0.0
 40
1.999999999999969
 50
30.0
 51
210.0
  0
ARC
  5
256
  8
0
  6
CONTINUOUS
 62
     7
 10
33.2794010767
 20
-22.6416135104
 30
0.0
 40
1.999999999999957
 50
210.0
 51
30.0
  0
ARC
  5
257
  8
0
  6
CONTINUOUS
 62
     7
 10
4.0466604984
 20
67.9909784158
 30
0.0
 40
1.999999999999972
 50
210.0
 51
30.0
  0
ARC
  5
258
  8
0
  6
CONTINUOUS
 62
     7
 10
-8.4533395016
 20
89.6416135104
 30
0.0
 40
1.999999999999976
 50
30.0
 51
210.0
  0
ARC
  5
259
  8
0
  6
CONTINUOUS
 62
     7
 10
38.0999091524
 20
9.0090215842
 30
0.0
 40
1.999999999999978
 50
30.0
 51
210.0
  0
ARC
  5
25A
  8
0
  6
CONTINUOUS
 62
     7
 10
50.5999091524
 20
-12.6416135104
 30
0.0
 40
1.999999999999974
 50
210.0
 51
30.0
  0
ARC
  5
25B
  8
0
  6
CONTINUOUS
 62
     7
 10
-13.2738475773
 20
57.9909784158
 30
0.0
 40
1.99999999999997
 50
210.0
 51
30.0
  0
ARC
  5
25C
  8
0
  6
CONTINUOUS
 62
     7
 10
-25.7738475773
 20
79.6416135104
 30
0.0
 40
1.999999999999967
 50
30.0
 51
210.0
  0
ARC
  5
25D
  8
0
  6
CONTINUOUS
 62
     7
 10
3.4588930011
 20
-10.9909784158
 30
0.0
 40
1.99999999999997
 50
30.0
 51
210.0
  0
ARC
  5
25E
  8
0
  6
CONTINUOUS
 62
     7
 10
15.9588930011
 20
-32.6416135104
 30
0.0
 40
1.99999999999997
 50
210.0
 51
30.0
  0
ARC
  5
25F
  8
0
  6
CONTINUOUS
 62
     7
 10
55.4204172281
 20
19.0090215842
 30
0.0
 40
2.000000000000007
 50
210.0
 51
30.0
  0
ARC
  5
260
  8
0
  6
CONTINUOUS
 62
     7
 10
21.3671685741
 20
77.9909784158
 30
0.0
 40
1.999999999999992
 50
30.0
 51
210.0
  0
ARC
  5
261
  8
0
  6
CONTINUOUS
 62
     7
 10
72.7409253038
 20
29.0090215842
 30
0.0
 40
1.999999999999992
 50
210.0
 51
30.0
  0
ARC
  5
262
  8
0
  6
CONTINUOUS
 62
     7
 10
38.6876766498
 20
87.9909784158
 30
0.0
 40
1.999999999999984
 50
30.0
 51
210.0
  0
ARC
  5
263
  8
0
  6
CONTINUOUS
 62
     7
 10
90.0614333795
 20
39.0090215842
 30
0.0
 40
2.000000000000015
 50
210.0
 51
30.0
  0
ARC
  5
264
  8
0
  6
CONTINUOUS
 62
     7
 10
56.0081847254
 20
97.9909784158
 30
0.0
 40
1.999999999999982
 50
30.0
 51
210.0
  0
ARC
  5
265
  8
0
  6
CONTINUOUS
 62
     7
 10
107.3819414552
 20
49.0090215842
 30
0.0
 40
2.000000000000002
 50
210.0
 51
30.0
  0
ARC
  5
266
  8
0
  6
CONTINUOUS
 62
     7
 10
73.3286928011
 20
107.9909784158
 30
0.0
 40
1.99999999999999
 50
30.0
 51
210.0
  0
ARC
  5
267
  8
0
  6
CONTINUOUS
 62
     7
 10
-65.8231393017
 20
-50.9909784158
 30
0.0
 40
2.000000000000011
 50
210.0
 51
30.0
  0
ARC
  5
268
  8
0
  6
CONTINUOUS
 62
     7
 10
-99.8763879558
 20
7.9909784158
 30
0.0
 40
2.000000000000001
 50
30.0
 51
210.0
  0
ARC
  5
269
  8
0
  6
CONTINUOUS
 62
     7
 10
-83.1436473774
 20
-60.9909784158
 30
0.0
 40
1.999999999999994
 50
210.0
 51
30.0
  0
ARC
  5
26A
  8
0
  6
CONTINUOUS
 62
     7
 10
-117.1968960314
 20
-2.0090215842
 30
0.0
 40
2.0
 50
30.0
 51
210.0
  0
ARC
  5
26B
  8
0
  6
CONTINUOUS
 62
     7
 10
-129.3379121828
 20
-60.9801647545
 30
0.0
 40
1.999999999999999
 50
210.0
 51
30.0
  0
ARC
  5
26C
  8
0
  6
CONTINUOUS
 62
     7
 10
-151.8379121828
 20
-22.0090215842
 30
0.0
 40
2.000000000000004
 50
30.0
 51
210.0
  0
ARC
  5
26D
  8
0
  6
CONTINUOUS
 62
     7
 10
-112.0174041071
 20
-50.9801647545
 30
0.0
 40
2.000000000000022
 50
210.0
 51
30.0
  0
ARC
  5
26E
  8
0
  6
CONTINUOUS
 62
     7
 10
-134.5174041071
 20
-12.0090215842
 30
0.0
 40
1.999999999999998
 50
30.0
 51
210.0
  0
ENDSEC
  0
EOF
