  0
SECTION
  2
HEADER
  9
$ACADVER
  1
AC1009
  9
$DWGCODEPAGE
  3
ansi_1252
  9
$INSBASE
 10
0.0
 20
0.0
 30
0.0
  9
$EXTMIN
 10
-100.0
 20
-42.15
 30
0.0
  9
$EXTMAX
 10
100.0
 20
42.15
 30
0.0
  9
$LIMMIN
 10
0.0
 20
0.0
  9
$LIMMAX
 10
420.0
 20
297.0
  9
$ORTHOMODE
 70
     0
  9
$REGENMODE
 70
     1
  9
$FILLMODE
 70
     1
  9
$QTEXTMODE
 70
     0
  9
$MIRRTEXT
 70
     1
  9
$DRAGMODE
 70
     2
  9
$LTSCALE
 40
1.0
  9
$OSMODE
 70
    37
  9
$ATTMODE
 70
     1
  9
$TEXTSIZE
 40
3.5
  9
$TRACEWID
 40
1.0
  9
$TEXTSTYLE
  7
STANDARD
  9
$CLAYER
  8
0
  9
$CELTYPE
  6
BYLAYER
  9
$CECOLOR
 62
   256
  9
$DIMSCALE
 40
1.0
  9
$DIMASZ
 40
3.302
  9
$DIMEXO
 40
1.0
  9
$DIMDLI
 40
3.75
  9
$DIMRND
 40
0.0
  9
$DIMDLE
 40
0.0
  9
$DIMEXE
 40
1.0
  9
$DIMTP
 40
0.0
  9
$DIMTM
 40
0.0
  9
$DIMTXT
 40
3.5
  9
$DIMCEN
 40
2.5
  9
$DIMTSZ
 40
0.0
  9
$DIMTOL
 70
     0
  9
$DIMLIM
 70
     0
  9
$DIMTIH
 70
     1
  9
$DIMTOH
 70
     1
  9
$DIMSE1
 70
     0
  9
$DIMSE2
 70
     0
  9
$DIMTAD
 70
     1
  9
$DIMZIN
 70
     0
  9
$DIMBLK
  1

  9
$DIMASO
 70
     1
  9
$DIMSHO
 70
     1
  9
$DIMPOST
  1

  9
$DIMAPOST
  1

  9
$DIMALT
 70
     0
  9
$DIMALTD
 70
     3
  9
$DIMALTF
 40
0.0393700787
  9
$DIMLFAC
 40
1.0
  9
$DIMTOFL
 70
     1
  9
$DIMTVP
 40
0.0
  9
$DIMTIX
 70
     0
  9
$DIMSOXD
 70
     0
  9
$DIMSAH
 70
     0
  9
$DIMBLK1
  1

  9
$DIMBLK2
  1

  9
$DIMSTYLE
  2
ISO-25
  9
$DIMCLRD
 70
     0
  9
$DIMCLRE
 70
     0
  9
$DIMCLRT
 70
     0
  9
$DIMTFAC
 40
1.0
  9
$DIMGAP
 40
1.524
  9
$LUNITS
 70
     2
  9
$LUPREC
 70
     4
  9
$SKETCHINC
 40
1.0
  9
$FILLETRAD
 40
10.0
  9
$AUNITS
 70
     0
  9
$AUPREC
 70
     2
  9
$MENU
  1
.
  9
$ELEVATION
 40
0.0
  9
$PELEVATION
 40
0.0
  9
$THICKNESS
 40
0.0
  9
$LIMCHECK
 70
     0
  9
$CHAMFERA
 40
0.0
  9
$CHAMFERB
 40
0.0
  9
$SKPOLY
 70
     0
  9
$TDCREATE
 40
2457620.386049653
  9
$TDUPDATE
 40
2457620.386078577
  9
$TDINDWG
 40
0.0000000116
  9
$TDUSRTIMER
 40
0.0000000116
  9
$USRTIMER
 70
     1
  9
$ANGBASE
 50
0.0
  9
$ANGDIR
 70
     0
  9
$PDMODE
 70
     0
  9
$PDSIZE
 40
-1.0
  9
$PLINEWID
 40
0.0
  9
$COORDS
 70
     1
  9
$SPLFRAME
 70
     0
  9
$SPLINETYPE
 70
     6
  9
$SPLINESEGS
 70
     8
  9
$ATTDIA
 70
     0
  9
$ATTREQ
 70
     1
  9
$HANDLING
 70
     1
  9
$HANDSEED
  5
1A1
  9
$SURFTAB1
 70
     6
  9
$SURFTAB2
 70
     6
  9
$SURFTYPE
 70
     6
  9
$SURFU
 70
     6
  9
$SURFV
 70
     6
  9
$UCSNAME
  2

  9
$UCSORG
 10
0.0
 20
0.0
 30
0.0
  9
$UCSXDIR
 10
1.0
 20
0.0
 30
0.0
  9
$UCSYDIR
 10
0.0
 20
1.0
 30
0.0
  9
$PUCSNAME
  2

  9
$PUCSORG
 10
0.0
 20
0.0
 30
0.0
  9
$PUCSXDIR
 10
1.0
 20
0.0
 30
0.0
  9
$PUCSYDIR
 10
0.0
 20
1.0
 30
0.0
  9
$USERI1
 70
     0
  9
$USERI2
 70
     0
  9
$USERI3
 70
     0
  9
$USERI4
 70
     0
  9
$USERI5
 70
     0
  9
$USERR1
 40
0.0
  9
$USERR2
 40
0.0
  9
$USERR3
 40
0.0
  9
$USERR4
 40
0.0
  9
$USERR5
 40
0.0
  9
$WORLDVIEW
 70
     1
  9
$SHADEDGE
 70
     3
  9
$SHADEDIF
 70
    70
  9
$TILEMODE
 70
     1
  9
$MAXACTVP
 70
    64
  9
$PLIMCHECK
 70
     0
  9
$PEXTMIN
 10
1.0000000000E+20
 20
1.0000000000E+20
 30
1.0000000000E+20
  9
$PEXTMAX
 10
-1.0000000000E+20
 20
-1.0000000000E+20
 30
-1.0000000000E+20
  9
$PLIMMIN
 10
0.0
 20
0.0
  9
$PLIMMAX
 10
420.0
 20
297.0
  9
$UNITMODE
 70
     0
  9
$VISRETAIN
 70
     1
  9
$PLINEGEN
 70
     0
  9
$PSLTSCALE
 70
     1
  0
ENDSEC
  0
SECTION
  2
TABLES
  0
TABLE
  2
VPORT
 70
     1
  0
VPORT
  2
*ACTIVE
 70
     0
 10
0.0
 20
0.0
 11
1.0
 21
1.0
 12
0.0
 22
0.0
 13
0.0
 23
0.0
 14
10.0
 24
10.0
 15
10.0
 25
10.0
 16
0.0
 26
0.0
 36
1.0
 17
0.0
 27
0.0
 37
0.0
 40
85.986
 41
2.3724792408
 42
50.0
 43
0.0
 44
0.0
 50
0.0
 51
0.0
 71
     0
 72
   100
 73
     1
 74
     3
 75
     0
 76
     0
 77
     0
 78
     0
  0
ENDTAB
  0
TABLE
  2
LTYPE
 70
     6
  0
LTYPE
  2
CONTINUOUS
 70
     0
  3
Solid line
 72
    65
 73
     0
 40
0.0
  0
LTYPE
  2
HIDDEN
 70
     0
  3
Hidden __ __ __ __ __ __ __ __ __ __ __ __ __ __
 72
    65
 73
     2
 40
1.905
 49
1.27
 49
-0.635
  0
LTYPE
  2
PHANTOM
 70
     0
  3
Phantom ______  __  __  ______  __  __  ______
 72
    65
 73
     6
 40
12.7
 49
6.35
 49
-1.27
 49
1.27
 49
-1.27
 49
1.27
 49
-1.27
  0
LTYPE
  2
CENTER
 70
     0
  3
Center ____ _ ____ _ ____ _ ____ _ ____ _ ____
 72
    65
 73
     4
 40
10.16
 49
6.35
 49
-1.27
 49
1.27
 49
-1.27
  0
LTYPE
  2
CENTERX2
 70
     0
  3
Center (2x) ________  __  ________  __  _____
 72
    65
 73
     4
 40
20.32
 49
12.7
 49
-2.54
 49
2.54
 49
-2.54
  0
LTYPE
  2
DOT2
 70
     0
  3
Dot (.5x) ........................................
 72
    65
 73
     2
 40
0.635
 49
0.0
 49
-0.635
  0
ENDTAB
  0
TABLE
  2
LAYER
 70
     1
  0
LAYER
  2
0
 70
     0
 62
     7
  6
CONTINUOUS
  0
ENDTAB
  0
TABLE
  2
STYLE
 70
     1
  0
STYLE
  2
STANDARD
 70
     0
 40
0.0
 41
1.0
 50
0.0
 71
     0
 42
3.5
  3
txt
  4

  0
ENDTAB
  0
TABLE
  2
VIEW
 70
     0
  0
ENDTAB
  0
TABLE
  2
UCS
 70
     0
  0
ENDTAB
  0
TABLE
  2
APPID
 70
     1
  0
APPID
  2
ACAD
 70
     0
  0
ENDTAB
  0
TABLE
  2
DIMSTYLE
 70
     1
  0
DIMSTYLE
  2
ISO-25
 70
     0
  3

  4

  5

  6

  7

 40
1.0
 41
2.5
 42
0.625
 43
3.75
 44
1.25
 45
0.0
 46
0.0
 47
0.0
 48
0.0
140
2.5
141
2.5
142
0.0
143
0.0393700787
144
1.0
145
0.0
146
1.0
147
0.625
 71
     0
 72
     0
 73
     0
 74
     0
 75
     0
 76
     0
 77
     1
 78
     8
170
     0
171
     3
172
     1
173
     0
174
     0
175
     0
176
     0
177
     0
178
     0
  0
ENDTAB
  0
ENDSEC
  0
SECTION
  2
BLOCKS
  0
BLOCK
  8
0
  2
$MODEL_SPACE
 70
     0
 10
0.0
 20
0.0
 30
0.0
  3
$MODEL_SPACE
  1

  0
ENDBLK
  5
21
  8
0
  0
BLOCK
 67
     1
  8
0
  2
$PAPER_SPACE
 70
     0
 10
0.0
 20
0.0
 30
0.0
  3
$PAPER_SPACE
  1

  0
ENDBLK
  5
1D
 67
     1
  8
0
  0
ENDSEC
  0
SECTION
  2
ENTITIES
  0
CIRCLE
  5
7B
  8
0
  6
CONTINUOUS
 62
     7
 10
-92.0
 20
15.15
 30
0.0
 40
3.25
  0
CIRCLE
  5
7C
  8
0
  6
CONTINUOUS
 62
     7
 10
92.0
 20
15.15
 30
0.0
 40
3.25
  0
CIRCLE
  5
85
  8
0
  6
CONTINUOUS
 62
     7
 10
34.0
 20
-20.0
 30
0.0
 40
1.775000000000006
  0
CIRCLE
  5
86
  8
0
  6
CONTINUOUS
 62
     7
 10
74.0
 20
-20.0
 30
0.0
 40
1.774999999999991
  0
CIRCLE
  5
8B
  8
0
  6
CONTINUOUS
 62
     7
 10
22.5
 20
25.0
 30
0.0
 40
1.774999999999995
  0
CIRCLE
  5
8C
  8
0
  6
CONTINUOUS
 62
     7
 10
-27.5
 20
-25.0
 30
0.0
 40
1.774999999999991
  0
LINE
  5
10D
  8
0
  6
CONTINUOUS
 62
     7
 10
-98.0
 20
-42.15
 30
0.0
 11
98.0
 21
-42.15
 31
0.0
  0
LINE
  5
10E
  8
0
  6
CONTINUOUS
 62
     7
 10
-100.0
 20
40.15
 30
0.0
 11
-100.0
 21
-40.15
 31
0.0
  0
LINE
  5
10F
  8
0
  6
CONTINUOUS
 62
     7
 10
98.0
 20
42.15
 30
0.0
 11
-98.0
 21
42.15
 31
0.0
  0
LINE
  5
110
  8
0
  6
CONTINUOUS
 62
     7
 10
100.0
 20
-40.15
 30
0.0
 11
100.0
 21
40.15
 31
0.0
  0
LINE
  5
111
  8
0
  6
CONTINUOUS
 62
     7
 10
64.0
 20
-9.0
 30
0.0
 11
44.0
 21
-9.0
 31
0.0
  0
LINE
  5
112
  8
0
  6
CONTINUOUS
 62
     7
 10
39.0
 20
-14.0
 30
0.0
 11
39.0
 21
-26.0
 31
0.0
  0
LINE
  5
113
  8
0
  6
CONTINUOUS
 62
     7
 10
44.0
 20
-31.0
 30
0.0
 11
64.0
 21
-31.0
 31
0.0
  0
LINE
  5
114
  8
0
  6
CONTINUOUS
 62
     7
 10
69.0
 20
-26.0
 30
0.0
 11
69.0
 21
-14.0
 31
0.0
  0
LINE
  5
115
  8
0
  6
CONTINUOUS
 62
     7
 10
50.3244048101
 20
5.7
 30
0.0
 11
57.6755951899
 21
5.7
 31
0.0
  0
LINE
  5
116
  8
0
  6
CONTINUOUS
 62
     7
 10
57.6755951899
 20
24.3
 30
0.0
 11
50.3244048101
 21
24.3
 31
0.0
  0
LINE
  5
117
  8
0
  6
CONTINUOUS
 62
     7
 10
27.05
 20
7.5529795445
 30
0.0
 11
27.05
 21
12.9909262836
 31
0.0
  0
LINE
  5
118
  8
0
  6
CONTINUOUS
 62
     7
 10
19.9325203243
 20
20.6647533714
 30
0.0
 11
21.1918225077
 21
21.9240555548
 31
0.0
  0
LINE
  5
119
  8
0
  6
CONTINUOUS
 62
     7
 10
10.0176167552
 20
10.7498498022
 30
0.0
 11
13.5609632351
 21
14.2931962822
 31
0.0
  0
LINE
  5
11A
  8
0
  6
CONTINUOUS
 62
     7
 10
18.9636320319
 20
1.25
 30
0.0
 11
13.9525833838
 21
1.25
 31
0.0
  0
LINE
  5
11B
  8
0
  6
CONTINUOUS
 62
     7
 10
14.9773686439
 20
15.7096016909
 30
0.0
 11
18.5170339999
 21
19.249267047
 31
0.0
  0
LINE
  5
11C
  8
0
  6
CONTINUOUS
 62
     7
 10
25.9725745236
 20
1.25
 30
0.0
 11
20.9667317707
 21
1.25
 31
0.0
  0
LINE
  5
11D
  8
0
  6
CONTINUOUS
 62
     7
 10
5.0529795445
 20
-29.55
 30
0.0
 11
10.4909262836
 21
-29.55
 31
0.0
  0
LINE
  5
11E
  8
0
  6
CONTINUOUS
 62
     7
 10
18.1647533714
 20
-22.4325203243
 30
0.0
 11
19.4240555548
 21
-23.6918225077
 31
0.0
  0
LINE
  5
11F
  8
0
  6
CONTINUOUS
 62
     7
 10
13.9525833838
 20
-1.25
 30
0.0
 11
18.9636320319
 21
-1.25
 31
0.0
  0
LINE
  5
120
  8
0
  6
CONTINUOUS
 62
     7
 10
13.5609632351
 20
-14.2931962822
 30
0.0
 11
10.0176167552
 21
-10.7498498022
 31
0.0
  0
LINE
  5
121
  8
0
  6
CONTINUOUS
 62
     7
 10
20.9667317707
 20
-1.25
 30
0.0
 11
25.9725745236
 21
-1.25
 31
0.0
  0
LINE
  5
122
  8
0
  6
CONTINUOUS
 62
     7
 10
18.5170339999
 20
-19.249267047
 30
0.0
 11
14.9773686439
 21
-15.7096016909
 31
0.0
  0
LINE
  5
123
  8
0
  6
CONTINUOUS
 62
     7
 10
27.05
 20
-12.9909262836
 30
0.0
 11
27.05
 21
-7.5529795445
 31
0.0
  0
LINE
  5
124
  8
0
  6
CONTINUOUS
 62
     7
 10
21.1918225077
 20
-21.9240555548
 30
0.0
 11
19.9325203243
 21
-20.6647533714
 31
0.0
  0
LINE
  5
125
  8
0
  6
CONTINUOUS
 62
     7
 10
8.2498498022
 20
-12.5176167552
 30
0.0
 11
11.7931962822
 21
-16.0609632351
 31
0.0
  0
LINE
  5
126
  8
0
  6
CONTINUOUS
 62
     7
 10
-1.25
 20
-21.4636320319
 30
0.0
 11
-1.25
 21
-16.4525833838
 31
0.0
  0
LINE
  5
127
  8
0
  6
CONTINUOUS
 62
     7
 10
13.2096016909
 20
-17.4773686439
 30
0.0
 11
16.749267047
 21
-21.0170339999
 31
0.0
  0
LINE
  5
128
  8
0
  6
CONTINUOUS
 62
     7
 10
-1.25
 20
-28.4725745236
 30
0.0
 11
-1.25
 21
-23.4667317707
 31
0.0
  0
LINE
  5
129
  8
0
  6
CONTINUOUS
 62
     7
 10
11.7931962822
 20
16.0609632351
 30
0.0
 11
8.2498498022
 21
12.5176167552
 31
0.0
  0
LINE
  5
12A
  8
0
  6
CONTINUOUS
 62
     7
 10
10.4909262836
 20
29.55
 30
0.0
 11
5.0529795445
 21
29.55
 31
0.0
  0
LINE
  5
12B
  8
0
  6
CONTINUOUS
 62
     7
 10
19.4240555548
 20
23.6918225077
 30
0.0
 11
18.1647533714
 21
22.4325203243
 31
0.0
  0
LINE
  5
12C
  8
0
  6
CONTINUOUS
 62
     7
 10
-3.75
 20
-16.4525833838
 30
0.0
 11
-3.75
 21
-21.4636320319
 31
0.0
  0
LINE
  5
12D
  8
0
  6
CONTINUOUS
 62
     7
 10
-16.7931962822
 20
-16.0609632351
 30
0.0
 11
-13.2498498022
 21
-12.5176167552
 31
0.0
  0
LINE
  5
12E
  8
0
  6
CONTINUOUS
 62
     7
 10
-3.75
 20
-23.4667317707
 30
0.0
 11
-3.75
 21
-28.4725745236
 31
0.0
  0
LINE
  5
12F
  8
0
  6
CONTINUOUS
 62
     7
 10
-21.749267047
 20
-21.0170339999
 30
0.0
 11
-18.2096016909
 21
-17.4773686439
 31
0.0
  0
LINE
  5
130
  8
0
  6
CONTINUOUS
 62
     7
 10
-15.4909262836
 20
-29.55
 30
0.0
 11
-10.0529795445
 21
-29.55
 31
0.0
  0
LINE
  5
131
  8
0
  6
CONTINUOUS
 62
     7
 10
-24.4240555548
 20
-23.6918225077
 30
0.0
 11
-23.1647533714
 21
-22.4325203243
 31
0.0
  0
LINE
  5
132
  8
0
  6
CONTINUOUS
 62
     7
 10
-32.05
 20
-7.5529795445
 30
0.0
 11
-32.05
 21
-12.9909262836
 31
0.0
  0
LINE
  5
133
  8
0
  6
CONTINUOUS
 62
     7
 10
-24.9325203243
 20
-20.6647533714
 30
0.0
 11
-26.1918225077
 21
-21.9240555548
 31
0.0
  0
LINE
  5
134
  8
0
  6
CONTINUOUS
 62
     7
 10
-15.0176167552
 20
-10.7498498022
 30
0.0
 11
-18.5609632351
 21
-14.2931962822
 31
0.0
  0
LINE
  5
135
  8
0
  6
CONTINUOUS
 62
     7
 10
-23.9636320319
 20
-1.25
 30
0.0
 11
-18.9525833838
 21
-1.25
 31
0.0
  0
LINE
  5
136
  8
0
  6
CONTINUOUS
 62
     7
 10
-19.9773686439
 20
-15.7096016909
 30
0.0
 11
-23.5170339999
 21
-19.249267047
 31
0.0
  0
LINE
  5
137
  8
0
  6
CONTINUOUS
 62
     7
 10
-30.9725745236
 20
-1.25
 30
0.0
 11
-25.9667317707
 21
-1.25
 31
0.0
  0
LINE
  5
138
  8
0
  6
CONTINUOUS
 62
     7
 10
-10.0529795445
 20
29.55
 30
0.0
 11
-15.4909262836
 21
29.55
 31
0.0
  0
LINE
  5
139
  8
0
  6
CONTINUOUS
 62
     7
 10
-23.1647533714
 20
22.4325203243
 30
0.0
 11
-24.4240555548
 21
23.6918225077
 31
0.0
  0
LINE
  5
13A
  8
0
  6
CONTINUOUS
 62
     7
 10
-18.2096016909
 20
17.4773686439
 30
0.0
 11
-21.749267047
 21
21.0170339999
 31
0.0
  0
LINE
  5
13B
  8
0
  6
CONTINUOUS
 62
     7
 10
-13.2498498022
 20
12.5176167552
 30
0.0
 11
-16.7931962822
 21
16.0609632351
 31
0.0
  0
LINE
  5
13C
  8
0
  6
CONTINUOUS
 62
     7
 10
-8.2752268245
 20
7.5429937774
 30
0.0
 11
-11.8309953774
 21
11.0987623304
 31
0.0
  0
LINE
  5
13D
  8
0
  6
CONTINUOUS
 62
     7
 10
-18.9525833838
 20
1.25
 30
0.0
 11
-23.9636320319
 21
1.25
 31
0.0
  0
LINE
  5
13E
  8
0
  6
CONTINUOUS
 62
     7
 10
-18.5609632351
 20
14.2931962822
 30
0.0
 11
-15.0176167552
 21
10.7498498022
 31
0.0
  0
LINE
  5
13F
  8
0
  6
CONTINUOUS
 62
     7
 10
-25.9667317707
 20
1.25
 30
0.0
 11
-30.9725745236
 21
1.25
 31
0.0
  0
LINE
  5
140
  8
0
  6
CONTINUOUS
 62
     7
 10
-23.5170339999
 20
19.249267047
 30
0.0
 11
-19.9773686439
 21
15.7096016909
 31
0.0
  0
LINE
  5
141
  8
0
  6
CONTINUOUS
 62
     7
 10
-32.05
 20
12.9909262836
 30
0.0
 11
-32.05
 21
7.5529795445
 31
0.0
  0
LINE
  5
142
  8
0
  6
CONTINUOUS
 62
     7
 10
-26.1918225077
 20
21.9240555548
 30
0.0
 11
-24.9325203243
 21
20.6647533714
 31
0.0
  0
LINE
  5
143
  8
0
  6
CONTINUOUS
 62
     7
 10
-10.0429937774
 20
-5.7752268245
 30
0.0
 11
-13.5987623304
 21
-9.3309953774
 31
0.0
  0
LINE
  5
144
  8
0
  6
CONTINUOUS
 62
     7
 10
-16.9460202132
 20
-1.25
 30
0.0
 11
-11.9174041009
 21
-1.25
 31
0.0
  0
LINE
  5
145
  8
0
  6
CONTINUOUS
 62
     7
 10
-11.9174041009
 20
1.25
 30
0.0
 11
-16.9460202132
 21
1.25
 31
0.0
  0
LINE
  5
146
  8
0
  6
CONTINUOUS
 62
     7
 10
-13.5987623304
 20
9.3309953774
 30
0.0
 11
-10.0429937774
 21
5.7752268245
 31
0.0
  0
LINE
  5
147
  8
0
  6
CONTINUOUS
 62
     7
 10
6.8309953774
 20
11.0987623304
 30
0.0
 11
3.2752268245
 21
7.5429937774
 31
0.0
  0
LINE
  5
148
  8
0
  6
CONTINUOUS
 62
     7
 10
5.0429937774
 20
5.7752268245
 30
0.0
 11
8.5987623304
 21
9.3309953774
 31
0.0
  0
LINE
  5
149
  8
0
  6
CONTINUOUS
 62
     7
 10
11.9460202132
 20
1.25
 30
0.0
 11
6.9174041009
 21
1.25
 31
0.0
  0
LINE
  5
14A
  8
0
  6
CONTINUOUS
 62
     7
 10
6.9174041009
 20
-1.25
 30
0.0
 11
11.9460202132
 21
-1.25
 31
0.0
  0
LINE
  5
14B
  8
0
  6
CONTINUOUS
 62
     7
 10
8.5987623304
 20
-9.3309953774
 30
0.0
 11
5.0429937774
 21
-5.7752268245
 31
0.0
  0
LINE
  5
14C
  8
0
  6
CONTINUOUS
 62
     7
 10
3.2752268245
 20
-7.5429937774
 30
0.0
 11
6.8309953774
 21
-11.0987623304
 31
0.0
  0
LINE
  5
14D
  8
0
  6
CONTINUOUS
 62
     7
 10
-1.25
 20
-14.4460202132
 30
0.0
 11
-1.25
 21
-9.4174041009
 31
0.0
  0
LINE
  5
14E
  8
0
  6
CONTINUOUS
 62
     7
 10
-3.75
 20
-9.4174041009
 30
0.0
 11
-3.75
 21
-14.4460202132
 31
0.0
  0
LINE
  5
14F
  8
0
  6
CONTINUOUS
 62
     7
 10
-11.8309953774
 20
-11.0987623304
 30
0.0
 11
-8.2752268245
 21
-7.5429937774
 31
0.0
  0
LINE
  5
150
  8
0
  6
CONTINUOUS
 62
     7
 10
16.749267047
 20
21.0170339999
 30
0.0
 11
13.2096016909
 21
17.4773686439
 31
0.0
  0
LINE
  5
151
  8
0
  6
CONTINUOUS
 62
     7
 10
-1.25
 20
23.4667317707
 30
0.0
 11
-1.25
 21
28.4725745236
 31
0.0
  0
LINE
  5
152
  8
0
  6
CONTINUOUS
 62
     7
 10
-3.75
 20
28.4725745236
 30
0.0
 11
-3.75
 21
23.4667317707
 31
0.0
  0
LINE
  5
153
  8
0
  6
CONTINUOUS
 62
     7
 10
-1.25
 20
16.4525833838
 30
0.0
 11
-1.25
 21
21.4636320319
 31
0.0
  0
LINE
  5
154
  8
0
  6
CONTINUOUS
 62
     7
 10
-3.75
 20
21.4636320319
 30
0.0
 11
-3.75
 21
16.4525833838
 31
0.0
  0
LINE
  5
155
  8
0
  6
CONTINUOUS
 62
     7
 10
-1.25
 20
9.4174041009
 30
0.0
 11
-1.25
 21
14.4460202132
 31
0.0
  0
LINE
  5
156
  8
0
  6
CONTINUOUS
 62
     7
 10
-3.75
 20
14.4460202132
 30
0.0
 11
-3.75
 21
9.4174041009
 31
0.0
  0
ARC
  5
157
  8
0
  6
CONTINUOUS
 62
     7
 10
98.0
 20
-40.15
 30
0.0
 40
2.0
 50
270.0
 51
0.0
  0
ARC
  5
158
  8
0
  6
CONTINUOUS
 62
     7
 10
-98.0
 20
-40.15
 30
0.0
 40
2.000000000000007
 50
180.0
 51
270.0
  0
ARC
  5
159
  8
0
  6
CONTINUOUS
 62
     7
 10
-98.0
 20
40.15
 30
0.0
 40
2.0
 50
90.0
 51
180.0
  0
ARC
  5
15A
  8
0
  6
CONTINUOUS
 62
     7
 10
98.0
 20
40.15
 30
0.0
 40
2.000000000000007
 50
0.0
 51
90.0
  0
ARC
  5
15B
  8
0
  6
CONTINUOUS
 62
     7
 10
64.0
 20
-14.0
 30
0.0
 40
4.999999999999993
 50
0.0
 51
90.0
  0
ARC
  5
15C
  8
0
  6
CONTINUOUS
 62
     7
 10
44.0
 20
-14.0
 30
0.0
 40
5.000000000000021
 50
90.0
 51
180.0
  0
ARC
  5
15D
  8
0
  6
CONTINUOUS
 62
     7
 10
44.0
 20
-26.0
 30
0.0
 40
5.0
 50
180.0
 51
270.0
  0
ARC
  5
15E
  8
0
  6
CONTINUOUS
 62
     7
 10
64.0
 20
-26.0
 30
0.0
 40
5.0
 50
270.0
 51
0.0
  0
ARC
  5
15F
  8
0
  6
CONTINUOUS
 62
     7
 10
54.0
 20
15.0
 30
0.0
 40
10.00000000000001
 50
291.5651850152
 51
68.4348149848
  0
ARC
  5
160
  8
0
  6
CONTINUOUS
 62
     7
 10
54.0
 20
15.0
 30
0.0
 40
10.00000000000001
 50
111.5651850152
 51
248.4348149848
  0
ARC
  5
161
  8
0
  6
CONTINUOUS
 62
     7
 10
-2.5
 20
0.0
 30
0.0
 40
32.27950844895478
 50
23.73150331
 51
42.7807085765
  0
ARC
  5
162
  8
0
  6
CONTINUOUS
 62
     7
 10
-2.5
 20
0.0
 30
0.0
 40
30.49999999999998
 50
14.3378249325
 51
42.6511544598
  0
ARC
  5
163
  8
0
  6
CONTINUOUS
 62
     7
 10
-2.5
 20
0.0
 30
0.0
 40
32.27950844896034
 50
293.73150331
 51
312.7807085765
  0
ARC
  5
164
  8
0
  6
CONTINUOUS
 62
     7
 10
-2.5
 20
0.0
 30
0.0
 40
30.49999999999995
 50
284.3378249325
 51
312.6511544598
  0
ARC
  5
165
  8
0
  6
CONTINUOUS
 62
     7
 10
-2.5
 20
0.0
 30
0.0
 40
16.50000000000011
 50
229.3447520426
 51
265.6552479574
  0
ARC
  5
166
  8
0
  6
CONTINUOUS
 62
     7
 10
-2.5
 20
0.0
 30
0.0
 40
21.50000000000001
 50
228.3330294939
 51
266.6669705061
  0
ARC
  5
167
  8
0
  6
CONTINUOUS
 62
     7
 10
-2.5
 20
0.0
 30
0.0
 40
23.50000000000022
 50
228.0490868152
 51
266.9509131848
  0
ARC
  5
168
  8
0
  6
CONTINUOUS
 62
     7
 10
-2.5
 20
0.0
 30
0.0
 40
28.50000000000005
 50
227.5137791718
 51
267.4862208282
  0
ARC
  5
169
  8
0
  6
CONTINUOUS
 62
     7
 10
-2.5
 20
0.0
 30
0.0
 40
30.50000000000002
 50
227.3488455402
 51
255.6621750675
  0
ARC
  5
16A
  8
0
  6
CONTINUOUS
 62
     7
 10
-2.5
 20
0.0
 30
0.0
 40
32.27950844895719
 50
227.2192914235
 51
246.26849669
  0
ARC
  5
16B
  8
0
  6
CONTINUOUS
 62
     7
 10
-2.5
 20
0.0
 30
0.0
 40
32.2795084489541
 50
113.73150331
 51
132.7807085765
  0
ARC
  5
16C
  8
0
  6
CONTINUOUS
 62
     7
 10
-2.5
 20
0.0
 30
0.0
 40
30.49999999999971
 50
104.3378249325
 51
132.6511544598
  0
ARC
  5
16D
  8
0
  6
CONTINUOUS
 62
     7
 10
-2.5
 20
0.0
 30
0.0
 40
14.50000000000005
 50
229.9454297179
 51
265.0545702821
  0
ARC
  5
16E
  8
0
  6
CONTINUOUS
 62
     7
 10
-2.5
 20
0.0
 30
0.0
 40
9.500000000000016
 50
232.5608431767
 51
262.4391568233
  0
ARC
  5
16F
  8
0
  6
CONTINUOUS
 62
     7
 10
-2.5
 20
0.0
 30
0.0
 40
16.50000000000002
 50
49.3447520426
 51
85.6552479574
  0
ARC
  5
170
  8
0
  6
CONTINUOUS
 62
     7
 10
-2.5
 20
0.0
 30
0.0
 40
16.50000000000007
 50
4.3447520426
 51
40.6552479574
  0
ARC
  5
171
  8
0
  6
CONTINUOUS
 62
     7
 10
-2.5
 20
0.0
 30
0.0
 40
16.50000000000007
 50
319.3447520426
 51
355.6552479574
  0
ARC
  5
172
  8
0
  6
CONTINUOUS
 62
     7
 10
-2.5
 20
0.0
 30
0.0
 40
16.50000000000007
 50
274.3447520426
 51
310.6552479574
  0
ARC
  5
173
  8
0
  6
CONTINUOUS
 62
     7
 10
-2.5
 20
0.0
 30
0.0
 40
16.50000000000014
 50
94.3447520426
 51
130.6552479574
  0
ARC
  5
174
  8
0
  6
CONTINUOUS
 62
     7
 10
-2.5
 20
0.0
 30
0.0
 40
16.5
 50
184.3447520426
 51
220.6552479574
  0
ARC
  5
175
  8
0
  6
CONTINUOUS
 62
     7
 10
-2.5
 20
0.0
 30
0.0
 40
16.50000000000006
 50
139.3447520426
 51
175.6552479574
  0
ARC
  5
176
  8
0
  6
CONTINUOUS
 62
     7
 10
-2.5
 20
0.0
 30
0.0
 40
14.50000000000009
 50
49.9454297179
 51
85.0545702821
  0
ARC
  5
177
  8
0
  6
CONTINUOUS
 62
     7
 10
-2.5
 20
0.0
 30
0.0
 40
14.50000000000013
 50
4.9454297179
 51
40.0545702821
  0
ARC
  5
178
  8
0
  6
CONTINUOUS
 62
     7
 10
-2.5
 20
0.0
 30
0.0
 40
14.50000000000013
 50
319.9454297179
 51
355.0545702821
  0
ARC
  5
179
  8
0
  6
CONTINUOUS
 62
     7
 10
-2.5
 20
0.0
 30
0.0
 40
14.50000000000014
 50
274.9454297179
 51
310.0545702821
  0
ARC
  5
17A
  8
0
  6
CONTINUOUS
 62
     7
 10
-2.5
 20
0.0
 30
0.0
 40
14.50000000000015
 50
94.9454297179
 51
130.0545702821
  0
ARC
  5
17B
  8
0
  6
CONTINUOUS
 62
     7
 10
-2.5
 20
0.0
 30
0.0
 40
14.50000000000009
 50
184.9454297179
 51
220.0545702821
  0
ARC
  5
17C
  8
0
  6
CONTINUOUS
 62
     7
 10
-2.5
 20
0.0
 30
0.0
 40
14.50000000000007
 50
139.9454297179
 51
175.0545702821
  0
ARC
  5
17D
  8
0
  6
CONTINUOUS
 62
     7
 10
-2.5
 20
0.0
 30
0.0
 40
23.50000000000014
 50
48.0490868152
 51
86.9509131848
  0
ARC
  5
17E
  8
0
  6
CONTINUOUS
 62
     7
 10
-2.5
 20
0.0
 30
0.0
 40
23.49999999999994
 50
3.0490868152
 51
41.9509131848
  0
ARC
  5
17F
  8
0
  6
CONTINUOUS
 62
     7
 10
-2.5
 20
0.0
 30
0.0
 40
23.49999999999995
 50
318.0490868152
 51
356.9509131848
  0
ARC
  5
180
  8
0
  6
CONTINUOUS
 62
     7
 10
-2.5
 20
0.0
 30
0.0
 40
23.50000000000006
 50
273.0490868152
 51
311.9509131848
  0
ARC
  5
181
  8
0
  6
CONTINUOUS
 62
     7
 10
-2.5
 20
0.0
 30
0.0
 40
23.49999999999999
 50
93.0490868152
 51
131.9509131848
  0
ARC
  5
182
  8
0
  6
CONTINUOUS
 62
     7
 10
-2.5
 20
0.0
 30
0.0
 40
23.5
 50
183.0490868152
 51
221.9509131848
  0
ARC
  5
183
  8
0
  6
CONTINUOUS
 62
     7
 10
-2.5
 20
0.0
 30
0.0
 40
23.49999999999992
 50
138.0490868152
 51
176.9509131848
  0
ARC
  5
184
  8
0
  6
CONTINUOUS
 62
     7
 10
-2.5
 20
0.0
 30
0.0
 40
21.50000000000016
 50
48.3330294939
 51
86.6669705061
  0
ARC
  5
185
  8
0
  6
CONTINUOUS
 62
     7
 10
-2.5
 20
0.0
 30
0.0
 40
21.50000000000012
 50
3.3330294939
 51
41.6669705061
  0
ARC
  5
186
  8
0
  6
CONTINUOUS
 62
     7
 10
-2.5
 20
0.0
 30
0.0
 40
21.50000000000013
 50
318.3330294939
 51
356.6669705061
  0
ARC
  5
187
  8
0
  6
CONTINUOUS
 62
     7
 10
-2.5
 20
0.0
 30
0.0
 40
21.50000000000018
 50
273.3330294939
 51
311.6669705061
  0
ARC
  5
188
  8
0
  6
CONTINUOUS
 62
     7
 10
-2.5
 20
0.0
 30
0.0
 40
21.5000000000001
 50
93.3330294939
 51
131.6669705061
  0
ARC
  5
189
  8
0
  6
CONTINUOUS
 62
     7
 10
-2.5
 20
0.0
 30
0.0
 40
21.49999999999997
 50
183.3330294939
 51
221.6669705061
  0
ARC
  5
18A
  8
0
  6
CONTINUOUS
 62
     7
 10
-2.5
 20
0.0
 30
0.0
 40
21.50000000000012
 50
138.3330294939
 51
176.6669705061
  0
ARC
  5
18B
  8
0
  6
CONTINUOUS
 62
     7
 10
-2.5
 20
0.0
 30
0.0
 40
32.27950844895992
 50
317.2192914235
 51
336.26849669
  0
ARC
  5
18C
  8
0
  6
CONTINUOUS
 62
     7
 10
-2.5
 20
0.0
 30
0.0
 40
30.49999999999994
 50
317.3488455402
 51
345.6621750675
  0
ARC
  5
18D
  8
0
  6
CONTINUOUS
 62
     7
 10
-2.5
 20
0.0
 30
0.0
 40
32.27950844895697
 50
203.73150331
 51
222.7807085765
  0
ARC
  5
18E
  8
0
  6
CONTINUOUS
 62
     7
 10
-2.5
 20
0.0
 30
0.0
 40
30.49999999999988
 50
194.3378249325
 51
222.6511544598
  0
ARC
  5
18F
  8
0
  6
CONTINUOUS
 62
     7
 10
-2.5
 20
0.0
 30
0.0
 40
32.27950844895393
 50
137.2192914235
 51
156.26849669
  0
ARC
  5
190
  8
0
  6
CONTINUOUS
 62
     7
 10
-2.5
 20
0.0
 30
0.0
 40
30.49999999999993
 50
137.3488455402
 51
165.6621750675
  0
ARC
  5
191
  8
0
  6
CONTINUOUS
 62
     7
 10
-2.5
 20
0.0
 30
0.0
 40
32.27950844895501
 50
47.2192914235
 51
66.26849669
  0
ARC
  5
192
  8
0
  6
CONTINUOUS
 62
     7
 10
-2.5
 20
0.0
 30
0.0
 40
30.50000000000009
 50
47.3488455402
 51
75.6621750675
  0
ARC
  5
193
  8
0
  6
CONTINUOUS
 62
     7
 10
-2.5
 20
0.0
 30
0.0
 40
28.50000000000026
 50
47.5137791718
 51
87.4862208282
  0
ARC
  5
194
  8
0
  6
CONTINUOUS
 62
     7
 10
-2.5
 20
0.0
 30
0.0
 40
28.49999999999998
 50
2.5137791718
 51
42.4862208282
  0
ARC
  5
195
  8
0
  6
CONTINUOUS
 62
     7
 10
-2.5
 20
0.0
 30
0.0
 40
28.50000000000004
 50
317.5137791718
 51
357.4862208282
  0
ARC
  5
196
  8
0
  6
CONTINUOUS
 62
     7
 10
-2.5
 20
0.0
 30
0.0
 40
28.50000000000012
 50
272.5137791718
 51
312.4862208282
  0
ARC
  5
197
  8
0
  6
CONTINUOUS
 62
     7
 10
-2.5
 20
0.0
 30
0.0
 40
28.50000000000012
 50
92.5137791718
 51
132.4862208282
  0
ARC
  5
198
  8
0
  6
CONTINUOUS
 62
     7
 10
-2.5
 20
0.0
 30
0.0
 40
28.4999999999999
 50
182.5137791718
 51
222.4862208282
  0
ARC
  5
199
  8
0
  6
CONTINUOUS
 62
     7
 10
-2.5
 20
0.0
 30
0.0
 40
28.49999999999991
 50
137.5137791718
 51
177.4862208282
  0
ARC
  5
19A
  8
0
  6
CONTINUOUS
 62
     7
 10
-2.5
 20
0.0
 30
0.0
 40
9.499999999999957
 50
52.5608431767
 51
82.4391568233
  0
ARC
  5
19B
  8
0
  6
CONTINUOUS
 62
     7
 10
-2.5
 20
0.0
 30
0.0
 40
9.500000000000048
 50
7.5608431767
 51
37.4391568233
  0
ARC
  5
19C
  8
0
  6
CONTINUOUS
 62
     7
 10
-2.5
 20
0.0
 30
0.0
 40
9.500000000000025
 50
322.5608431767
 51
352.4391568233
  0
ARC
  5
19D
  8
0
  6
CONTINUOUS
 62
     7
 10
-2.5
 20
0.0
 30
0.0
 40
9.500000000000115
 50
277.5608431767
 51
307.4391568233
  0
ARC
  5
19E
  8
0
  6
CONTINUOUS
 62
     7
 10
-2.5
 20
0.0
 30
0.0
 40
9.500000000000094
 50
97.5608431767
 51
127.4391568233
  0
ARC
  5
19F
  8
0
  6
CONTINUOUS
 62
     7
 10
-2.5
 20
0.0
 30
0.0
 40
9.500000000000066
 50
187.5608431767
 51
217.4391568233
  0
ARC
  5
1A0
  8
0
  6
CONTINUOUS
 62
     7
 10
-2.5
 20
0.0
 30
0.0
 40
9.500000000000043
 50
142.5608431767
 51
172.4391568233
  0
ENDSEC
  0
EOF
